/* XPM */
static char *d722070763654d52cd14f53d7f088f172FsHPJqc8GOxXR2h[] = {
/* columns rows colors chars-per-pixel */
"64 64 170 2 ",
"   c #FFFFFFFF",
".  c #786A58",
"X  c #81563E",
"o  c #8C563B",
"O  c #786B58",
"+  c #81553C",
"@  c #854D31",
"#  c #786957",
"$  c #757060",
"%  c #776B5A",
"&  c #81543B",
"*  c #844D32",
"=  c #75705F",
"-  c #7F5941",
";  c #844F34",
":  c #7D5F49",
">  c #825239",
",  c #7E5D46",
"<  c #7D5F4A",
"1  c #7D5E47",
"2  c #835136",
"3  c #805840",
"4  c #835035",
"5  c #81563D",
"6  c #854C31",
"7  c #805941",
"8  c #844E33",
"9  c #796754",
"0  c #7F5A43",
"q  c #7F5A42",
"w  c #835237",
"e  c #766E5D",
"r  c #757161",
"t  c #776D5C",
"y  c #80583F",
"u  c #835036",
"i  c #80573F",
"p  c #825238",
"a  c #776C5B",
"s  c #835137",
"d  c #786A57",
"f  c #7E5B44",
"g  c #825339",
"h  c #7C604B",
"j  c #7C624D",
"k  c #7B624E",
"l  c #757160",
"z  c #7B634F",
"x  c #7A6653",
"c  c #7E5D47",
"v  c #766F5F",
"b  c #7B644F",
"n  c #81553B",
"m  c #766F5E",
"M  c #7A6551",
"N  c #7A6753",
"B  c #7D5E48",
"V  c #81553D",
"C  c #786956",
"Z  c #844F33",
"A  c #80563E",
"S  c #76705F",
"D  c #835238",
"F  c #80573E",
"G  c #776D5B",
"H  c #814C33",
"J  c #7A5240",
"K  c #7A645A",
"L  c #7A7567",
"P  c #9E795E",
"I  c #9C6642",
"U  c #9A5A2F",
"Y  c #9A592F",
"T  c #864C30",
"R  c #824C32",
"E  c #704B3D",
"W  c #67484A",
"Q  c #84494C",
"!  c #847976",
"~  c #D0D1BE",
"^  c #DEEDD5",
"/  c #DEEED6",
"(  c #D8B783",
")  c #D3873B",
"_  c #D27D2C",
"`  c #D07C2C",
"'  c #95562F",
"]  c #864D30",
"[  c #744B3C",
"{  c #5B4B4C",
"}  c #5B5755",
"|  c #79675B",
" . c #893C42",
".. c #8F5051",
"X. c #CFDAC5",
"o. c #DDEDD5",
"O. c #D9BA89",
"+. c #D38335",
"@. c #93552F",
"#. c #874137",
"$. c #824C4B",
"%. c #746F60",
"&. c #4A3942",
"*. c #D0DDC8",
"=. c #D9C091",
"-. c #94552F",
";. c #724B3D",
":. c #584B4C",
">. c #595553",
",. c #766F60",
"<. c #89373F",
"1. c #D6DDC8",
"2. c #854237",
"3. c #703E45",
"4. c #4F4B4F",
"5. c #726E5F",
"6. c #524D4F",
"7. c #503741",
"8. c #D1DDC8",
"9. c #854A31",
"0. c #71483D",
"q. c #575352",
"w. c #6F6B5E",
"e. c #747061",
"r. c #6E685C",
"t. c #7D373F",
"y. c #D5DDC8",
"u. c #9CA499",
"i. c #8D938B",
"p. c #8A7862",
"a. c #855026",
"s. c #865026",
"d. c #97592E",
"f. c #643A29",
"g. c #78452E",
"h. c #7F4C33",
"j. c #794A3D",
"k. c #7E494A",
"l. c #675450",
"z. c #844749",
"x. c #7E6767",
"c. c #949990",
"v. c #7E837E",
"b. c #797D79",
"n. c #77695B",
"m. c #744F33",
"M. c #734524",
"N. c #744524",
"B. c #834D2C",
"V. c #633929",
"C. c #502E27",
"Z. c #593328",
"A. c #76432D",
"S. c #864A32",
"D. c #7D4135",
"F. c #553734",
"G. c #643030",
"H. c #5E4A45",
"J. c #5E4B46",
"K. c #5D4036",
"L. c #5C3625",
"P. c #643A2A",
"I. c #4F2D26",
"U. c #4D2C26",
"Y. c #663A2A",
"T. c #7D472F",
"R. c #80492F",
"E. c #6A3D2B",
"W. c #7D482F",
"Q. c white",
/* pixels */
"                                        . X                                                                                   o ",
"                                      O + @                                                                                   o ",
"                                  @ # $ % &                                                                                   o ",
"                                  * = - X ;                                                                                   o ",
"                                  * = ; : >                                                                                   o ",
"                                  @ , < 1 2 3 +                                                                               o ",
"                                      : 4   - 5                                                                               o ",
"                                  6 3 7 8 + 2                                                                                 o ",
"                                  @ 9 $ 0 # q                                                                                 o ",
"                                    w e r t y                                                                                 o ",
"                                  * = r r 3 @                                                                                 o ",
"                                  * = r r r q                                                                                 o ",
"                                  * = u . i 6                                                                                 o ",
"                              p a % s d $ e a f                                                                               o ",
"                              g r r # $ r r : 4                                                                               o ",
"                              8 y 3 $ q a : h 3                                                                               o ",
"                              4 j k l z e x % c                                                                               o ",
"                              4 h $ : v r b : n                                                                               o ",
"                                8 j f m M , w                                                                                 o ",
"                              8 i 3 $ N 2 B V                                                                                 o ",
"                              g $ C C Z                                                                                       o ",
"                            * 5 d u                                                                                           o ",
"                            A # 4 S @                                                                                         o ",
"                                4 S @                                                                                         o ",
"                                4 S @                                                                                         o ",
"                            + M @ D                                                                                           o ",
"                            F .                                                                                               o ",
"                            4 X 8 z @                                                                                         o ",
"                                4 S @                                                                                         o ",
"                            2 q 8 : @                                                                                         o ",
"                            F G 3                                                                                             o ",
"                          H J K L P P P P P P P P P P P P P P P P P I U U U U U U U U U U U U U U U U U Y T                   o ",
"                        R E W Q ! ~ ^ / / / / / / / / / / / / / / / ( ) _ _ _ _ _ _ _ _ _ _ _ _ _ _ _ _ ` ' ]                 o ",
"                        [ { } |  ...X.o./ / / / / / / / / / / / / / / O.+._ _ _ _ _ _ _ _ _ _ _ _ _ _ _ _ _ @.]               o ",
"                        #.$.r r r %.&.*./ / / / / / / / / / / / / / / / =._ _ _ _ _ _ _ _ _ _ _ _ _ _ _ _ _ _ -.              o ",
"                        ;.:.>.r r ,.<.1./ / / / / / / / / / / / / / / / =._ _ _ _ _ _ _ _ _ _ _ _ _ _ _ _ _ _ -.              o ",
"                        2.3.4.>.5.6.7.8./ / / / / / / / / / / / / / / / =._ _ _ _ _ _ _ _ _ _ _ _ _ _ _ _ _ _ -.              o ",
"                        9.0.q.w.e.r.t.y.u.i.i.i.i.i.i.i.i.i.i.i.i.i.i.i.p.a.s.s.a.s.a.a.a.s.a.a.a.a.a.a.a.a.d.f.g.            o ",
"                          h.j.k.l.z.x.c.v.b.b.b.b.b.b.b.b.b.b.b.b.b.b.n.m.M.M.M.M.M.M.M.M.M.M.M.M.M.M.M.N.B.V.C.Z.A.          o ",
"                            S.D.F.G.H.J.J.J.J.J.J.J.J.J.J.J.J.J.J.J.J.K.L.L.L.L.L.L.L.L.L.L.L.L.L.L.L.L.L.P.I.U.Y.T.          o ",
"                              R.E.E.E.E.E.E.E.E.E.E.E.E.E.E.E.E.E.E.E.E.E.E.E.E.E.E.E.E.E.E.E.E.E.E.E.E.E.E.E.E.W.            o ",
"                                                                                                                              o ",
"                                                                                                                              o ",
"                                                                                                                              o ",
"                                                                                                                              o ",
"                                                                                                                              o ",
"                                                                                                                              o ",
"                                                                                                                              o ",
"                                                                                                                              o ",
"                                                                                                                              o ",
"                                                                                                                              o ",
"                                                                                                                              o ",
"                                                                                                                              o ",
"                                                                                                                              o ",
"                                                                                                                              o ",
"                                                                                                                              o ",
"                                                                                                                              o ",
"                                                                                                                              o ",
"                                                                                                                              o ",
"                                                                                                                              o ",
"                                                                                                                              o ",
"                                                                                                                              o ",
"                                                                                                                              o ",
"                                                                                                                              o "
};
