/* XPM */
static char *_a00e6951f40461de32e8010997ed70ftBWv1mMW2sgAqdTO[] = {
/* columns rows colors chars-per-pixel */
"64 64 162 2 ",
"   c #FFFFFFFF",
".  c #776D5B",
"X  c #82543A",
"o  c #946249",
"O  c #844F33",
"+  c #776D5C",
"@  c #766E5D",
"#  c #757160",
"$  c #81563D",
"%  c #844F34",
"&  c #757161",
"*  c #766D5C",
"=  c #7F5941",
"-  c #7B634E",
";  c #805840",
":  c #796754",
">  c #76705F",
",  c #796956",
"<  c #7F5B43",
"1  c #854D31",
"2  c #7F5A42",
"3  c #757060",
"4  c #7C614C",
"5  c #835237",
"6  c #844E32",
"7  c #7D604A",
"8  c #7D5F49",
"9  c #7C614B",
"0  c #766F5F",
"q  c #7D5F4A",
"w  c #81543B",
"e  c #805941",
"r  c #7B6450",
"t  c #82533A",
"y  c #80573F",
"u  c #81553C",
"i  c #844E33",
"p  c #825238",
"a  c #786B59",
"s  c #776C5B",
"d  c #766F5E",
"f  c #80573E",
"g  c #796855",
"h  c #835136",
"j  c #776C5A",
"k  c #80563E",
"l  c #844D32",
"z  c #7A6753",
"x  c #82543B",
"c  c #7A6551",
"v  c #7A6552",
"b  c #835137",
"n  c #7C624D",
"m  c #7E5B44",
"M  c #766E5E",
"N  c #835035",
"B  c #7E5C45",
"V  c #7B634F",
"C  c #7B624E",
"Z  c #825339",
"A  c #854D32",
"S  c #7A6550",
"D  c #81553B",
"F  c #7D5E48",
"G  c #815D49",
"H  c #896E5D",
"J  c #9E795E",
"K  c #9B643F",
"L  c #9A5A2F",
"P  c #99592F",
"I  c #814C33",
"U  c #775947",
"Y  c #7D665B",
"T  c #A97D71",
"R  c #D0D2BE",
"E  c #C5CFBD",
"W  c #DEEED6",
"Q  c #D7B17A",
"!  c #D38639",
"~  c #D27D2C",
"^  c #CE7A2C",
"/  c #93552F",
"(  c #704A3D",
")  c #594A4C",
"_  c #5E5A56",
"`  c #806C5E",
"'  c #915752",
"]  c #57494E",
"[  c #D0DDC8",
"{  c #D8B47E",
"}  c #D38234",
"|  c #8E522F",
" . c #864D30",
".. c #7B3931",
"X. c #734947",
"o. c #726C5E",
"O. c #493741",
"+. c #DBEAD3",
"@. c #D8B985",
"#. c #8F522F",
"$. c #624538",
"%. c #494446",
"&. c #5C5855",
"*. c #786F60",
"=. c #A15B54",
"-. c #DDEBD3",
";. c #783A32",
":. c #5F393F",
">. c #4F4B4F",
",. c #5B5754",
"<. c #6F6B5E",
"1. c #544F50",
"2. c #675D57",
"3. c #DBEBD3",
"4. c #834830",
"5. c #603C35",
"6. c #4A4546",
"7. c #747060",
"8. c #6F665B",
"9. c #823D43",
"0. c #DCEAD3",
"q. c #969E94",
"w. c #8D938B",
"e. c #89735B",
"r. c #855026",
"t. c #865026",
"y. c #98592F",
"u. c #603729",
"i. c #7B462E",
"p. c #7A4831",
"a. c #6F4136",
"s. c #734B48",
"d. c #7A6E5F",
"f. c #936259",
"g. c #7E6868",
"h. c #969C93",
"j. c #7C817C",
"k. c #797D79",
"l. c #776657",
"z. c #744E31",
"x. c #734524",
"c. c #744625",
"v. c #844D2C",
"b. c #4F2D26",
"n. c #5A3328",
"m. c #79452E",
"M. c #824730",
"N. c #754134",
"B. c #5F453C",
"V. c #6C3F39",
"C. c #5E4B46",
"Z. c #5D3F33",
"A. c #5C3625",
"S. c #5C3626",
"D. c #653A2A",
"F. c #4E2C26",
"G. c #4D2C26",
"H. c #683B2B",
"J. c #7E482F",
"K. c #6A3D2B",
"L. c #7F492F",
"P. c white",
/* pixels */
"                                        . X                                                                                   o ",
"                                  O + @ # @ $                                                                                 o ",
"                                  % & X * = - ;                                                                               o ",
"                                  % & : > , @ <                                                                               o ",
"                                  1 2 3 & & 4 5                                                                               o ",
"                                  6 7 # & 4 8 X                                                                               o ",
"                                  6 9 4 0 9 q w                                                                               o ",
"                                  1 e   4 r t                                                                                 o ",
"                                6 y & $ u i                                                                                   o ",
"                                p # a & & ; 6                                                                                 o ",
"                                p s i @ d d f                                                                                 o ",
"                                  % & 1                                                                                       o ",
"                                  % & 1   g f                                                                                 o ",
"                                    h j s k l                                                                                 o ",
"                                h z   x x 6                                                                                   o ",
"                                i f   c v b                                                                                   o ",
"                              p n n n m M X                                                                                   o ",
"                              h n & & 8 8 N                                                                                   o ",
"                              N B V & C O                                                                                     o ",
"                              Z 4 i v 1                                                                                       o ",
"                                l t                                                                                           o ",
"                              A $ @                                                                                           o ",
"                              $ & @                                                                                           o ",
"                              $ & @                                                                                           o ",
"                              $ & @                                                                                           o ",
"                            y S y @                                                                                           o ",
"                            % Z 6 D                                                                                           o ",
"                            w F                                                                                               o ",
"                            p ;                                                                                               o ",
"                            p e                                                                                               o ",
"                            = :                                                                                               o ",
"                          h G H J J J J J J J J J J J J J J J J J J K L L L L L L L L L L L L L L L L L P                     o ",
"                        I U Y T R E W W W W W W W W W W W W W W W W Q ! ~ ~ ~ ~ ~ ~ ~ ~ ~ ~ ~ ~ ~ ~ ~ ~ ^ /                   o ",
"                        ( ) _ ` ' ] [ W W W W W W W W W W W W W W W W { } ~ ~ ~ ~ ~ ~ ~ ~ ~ ~ ~ ~ ~ ~ ~ ~ ~ |  .              o ",
"                        ..X.& & & o.O.+.W W W W W W W W W W W W W W W W @.~ ~ ~ ~ ~ ~ ~ ~ ~ ~ ~ ~ ~ ~ ~ ~ ~ ~ #.              o ",
"                        $.%.&.& & *.=.-.W W W W W W W W W W W W W W W W @.~ ~ ~ ~ ~ ~ ~ ~ ~ ~ ~ ~ ~ ~ ~ ~ ~ ~ #.              o ",
"                        ;.:.>.,.<.1.2.3.W W W W W W W W W W W W W W W W @.~ ~ ~ ~ ~ ~ ~ ~ ~ ~ ~ ~ ~ ~ ~ ~ ~ ~ #.              o ",
"                        4.5.6.<.7.8.9.0.q.w.w.w.w.w.w.w.w.w.w.w.w.w.w.w.e.r.t.t.r.t.r.r.r.t.r.r.r.r.r.r.r.r.y.u.i.            o ",
"                          p.a.s.d.f.g.h.j.k.k.k.k.k.k.k.k.k.k.k.k.k.k.l.z.x.x.x.x.x.x.x.x.x.x.x.x.x.x.x.c.v.u.b.n.m.          o ",
"                            M.N.B.V.C.C.C.C.C.C.C.C.C.C.C.C.C.C.C.C.C.Z.A.A.A.A.A.A.A.A.A.A.A.A.A.A.A.A.S.D.F.G.H.J.          o ",
"                              J.K.K.K.K.K.K.K.K.K.K.K.K.K.K.K.K.K.K.K.K.K.K.K.K.K.K.K.K.K.K.K.K.K.K.K.K.K.K.K.K.L.            o ",
"                                                                                                                              o ",
"                                                                                                                              o ",
"                                                                                                                              o ",
"                                                                                                                              o ",
"                                                                                                                              o ",
"                                                                                                                              o ",
"                                                                                                                              o ",
"                                                                                                                              o ",
"                                                                                                                              o ",
"                                                                                                                              o ",
"                                                                                                                              o ",
"                                                                                                                              o ",
"                                                                                                                              o ",
"                                                                                                                              o ",
"                                                                                                                              o ",
"                                                                                                                              o ",
"                                                                                                                              o ",
"                                                                                                                              o ",
"                                                                                                                              o ",
"                                                                                                                              o ",
"                                                                                                                              o ",
"                                                                                                                              o ",
"                                                                                                                              o "
};
