/* XPM */
static char *_f63cc4a5a6f467cdc7d85c55dcee2fcj3ZXepkY8kwmbUWl[] = {
/* columns rows colors chars-per-pixel */
"64 64 162 2 ",
"   c #FFFFFFFF",
".  c #844F33",
"X  c #757161",
"o  c #854D31",
"O  c #776C5B",
"+  c #82543A",
"@  c #946249",
"#  c #834F34",
"$  c #844E33",
"%  c #786A58",
"&  c #825238",
"*  c #7A6551",
"=  c #81553C",
"-  c #786957",
";  c #80573F",
":  c #7B6450",
">  c #7B634F",
",  c #766E5D",
"<  c #844D32",
"1  c #7E5D46",
"2  c #7E5D47",
"3  c #766F5E",
"4  c #7C614C",
"5  c #7D5F49",
"6  c #766E5E",
"7  c #786B59",
"8  c #81543B",
"9  c #835035",
"0  c #7B644F",
"q  c #766F5F",
"w  c #796753",
"e  c #776D5C",
"r  c #786956",
"t  c #80583F",
"y  c #81563D",
"u  c #7F5942",
"i  c #7F5B43",
"p  c #757060",
"a  c #7F5A43",
"s  c #7F5A42",
"d  c #776B5A",
"f  c #844E32",
"g  c #7B634E",
"h  c #757160",
"j  c #835036",
"k  c #7D5D47",
"l  c #776D5B",
"z  c #7F5941",
"x  c #82533A",
"c  c #854C31",
"v  c #835137",
"b  c #825237",
"n  c #805840",
"m  c #825239",
"M  c #796855",
"N  c #834F35",
"B  c #7D5E47",
"V  c #835136",
"C  c #7E5C46",
"Z  c #776B59",
"A  c #814E35",
"S  c #7A5644",
"D  c #84685C",
"F  c #A38368",
"G  c #A16C46",
"H  c #9F5D2F",
"J  c #9E5C2F",
"K  c #814E34",
"L  c #725343",
"P  c #685754",
"I  c #926460",
"U  c #C9C4B3",
"Y  c #BAC5B4",
"T  c #DDEDD5",
"R  c #DEEED6",
"E  c #D9BB8A",
"W  c #D38B41",
"Q  c #D27D2C",
"!  c #CF7B2C",
"~  c #99592F",
"^  c #864D30",
"/  c #795240",
"(  c #625754",
")  c #5C5855",
"_  c #786C5E",
"`  c #874E4F",
"'  c #545051",
"]  c #C3CEBC",
"[  c #DBEAD3",
"{  c #D9BE8E",
"}  c #D3873C",
"|  c #95562F",
" . c #874D30",
".. c #884B3C",
"X. c #835652",
"o. c #736F60",
"O. c #4F3A42",
"+. c #CCD8C4",
"@. c #D9BF90",
"#. c #90532F",
"$. c #765441",
"%. c #5B5755",
"&. c #585453",
"*. c #8E494C",
"=. c #D4DAC5",
"-. c #874236",
";. c #753D44",
":. c #4E4A4E",
">. c #555151",
",. c #726E60",
"<. c #4F4B4F",
"1. c #504A4E",
"2. c #CDDAC5",
"3. c #854B31",
"4. c #73493B",
"5. c #565252",
"6. c #716D5F",
"7. c #706C5F",
"8. c #87494C",
"9. c #D3DAC5",
"0. c #989F95",
"q. c #858A84",
"w. c #82705D",
"e. c #7E4C25",
"r. c #92562F",
"t. c #5D3528",
"y. c #79452E",
"u. c #814C32",
"i. c #7D4D3C",
"p. c #845351",
"a. c #686159",
"s. c #895150",
"d. c #7E716E",
"f. c #8C9089",
"g. c #7D827D",
"h. c #797D79",
"j. c #776757",
"k. c #744C2E",
"l. c #734524",
"z. c #744524",
"x. c #864E2D",
"c. c #5C3528",
"v. c #4F2D26",
"b. c #563128",
"n. c #76442D",
"m. c #864C32",
"M. c #804838",
"N. c #543B35",
"B. c #613431",
"V. c #5A443F",
"C. c #593C32",
"Z. c #583425",
"A. c #593426",
"S. c #603729",
"D. c #4E2D26",
"F. c #4D2C26",
"G. c #6B3D2B",
"H. c #7F492F",
"J. c #824A2F",
"K. c #6F3F2C",
"L. c #80492F",
"P. c white",
/* pixels */
"                                . X o O +                                                                                     @ ",
"                                  #   O +                                                                                     @ ",
"                                $ % o & * =                                                                                   @ ",
"                                . X o   - ;                                                                                   @ ",
"                                . X : > , ;                                                                                   @ ",
"                                < 1 2 3 4 5 +                                                                                 @ ",
"                              . 1 1 1 6 4 7 * 8                                                                               @ ",
"                              9 0 0 0 q w e r t                                                                               @ ",
"                                o y y * u r i                                                                                 @ ",
"                                $ % X y % X i                                                                                 @ ",
"                                    p X 3 , u                                                                                 @ ",
"                                    p X +                                                                                     @ ",
"                                    p X X X a                                                                                 @ ",
"                                    9 e X s <                                                                                 @ ",
"                                    - p X ;                                                                                   @ ",
"                                    p s d ;                                                                                   @ ",
"                                f g h j - ;                                                                                   @ ",
"                                < 2 k $ - ;                                                                                   @ ",
"                                      a l ;                                                                                   @ ",
"                                o z z g : x                                                                                   @ ",
"                                . X X j                                                                                       @ ",
"                                . X 7 9                                                                                       @ ",
"                              c v X o                                                                                         @ ",
"                              b X X o                                                                                         @ ",
"                            = p X X o                                                                                         @ ",
"                            = X 3 j                                                                                           @ ",
"                            f n ,                                                                                             @ ",
"                            m M ,                                                                                             @ ",
"                            N B ,                                                                                             @ ",
"                            V 5 C                                                                                             @ ",
"                            = Z                                                                                               @ ",
"                          A S D F F F F F F F F F F F F F F F F F F G H H H H H H H H H H H H H H H H H J                     @ ",
"                        K L P I U Y T R R R R R R R R R R R R R R R E W Q Q Q Q Q Q Q Q Q Q Q Q Q Q Q Q ! ~ ^                 @ ",
"                        / ( ) _ ` ' ] [ R R R R R R R R R R R R R R R { } Q Q Q Q Q Q Q Q Q Q Q Q Q Q Q Q Q |  .              @ ",
"                        ..X.o.X X X O.+.R R R R R R R R R R R R R R R R @.Q Q Q Q Q Q Q Q Q Q Q Q Q Q Q Q Q Q #.              @ ",
"                        $.%.&.X X X *.=.R R R R R R R R R R R R R R R R @.Q Q Q Q Q Q Q Q Q Q Q Q Q Q Q Q Q Q #.              @ ",
"                        -.;.:.>.,.<.1.2.R R R R R R R R R R R R R R R R @.Q Q Q Q Q Q Q Q Q Q Q Q Q Q Q Q Q Q #.              @ ",
"                        3.4.5.6.X 7.8.9.0.q.q.q.q.q.q.q.q.q.q.q.q.q.q.q.w.e.e.e.e.e.e.e.e.e.e.e.e.e.e.e.e.e.r.t.y.            @ ",
"                          u.i.p.a.s.d.f.g.h.h.h.h.h.h.h.h.h.h.h.h.h.h.j.k.l.l.l.l.l.l.l.l.l.l.l.l.l.l.l.z.x.c.v.b.n.          @ ",
"                            m.M.N.B.V.V.V.V.V.V.V.V.V.V.V.V.V.V.V.V.V.C.Z.Z.Z.Z.Z.Z.Z.Z.Z.Z.Z.Z.Z.Z.Z.Z.A.S.D.F.G.H.          @ ",
"                              J.K.K.K.K.K.K.K.K.K.K.K.K.K.K.K.K.K.K.K.K.K.K.K.K.K.K.K.K.K.K.K.K.K.K.K.K.K.K.K.K.L.            @ ",
"                                                                                                                              @ ",
"                                                                                                                              @ ",
"                                                                                                                              @ ",
"                                                                                                                              @ ",
"                                                                                                                              @ ",
"                                                                                                                              @ ",
"                                                                                                                              @ ",
"                                                                                                                              @ ",
"                                                                                                                              @ ",
"                                                                                                                              @ ",
"                                                                                                                              @ ",
"                                                                                                                              @ ",
"                                                                                                                              @ ",
"                                                                                                                              @ ",
"                                                                                                                              @ ",
"                                                                                                                              @ ",
"                                                                                                                              @ ",
"                                                                                                                              @ ",
"                                                                                                                              @ ",
"                                                                                                                              @ ",
"                                                                                                                              @ ",
"                                                                                                                              @ ",
"                                                                                                                              @ "
};
