/* XPM */
static char *result[] = {
/* columns rows colors chars-per-pixel */
"64 64 220 2 ",
"   c #030606",
".  c #060807",
"X  c #030709",
"o  c #05090B",
"O  c #0B0C0B",
"+  c #110E0B",
"@  c #0C100F",
"#  c #13110D",
"$  c #1A150F",
"%  c #070E11",
"&  c #0A0E11",
"*  c #0C1213",
"=  c #0C161A",
"-  c #131412",
";  c #1B1611",
":  c #1C1914",
">  c #111619",
",  c #131A1D",
"<  c #1C1D1A",
"1  c #21150F",
"2  c #241C14",
"3  c #291E14",
"4  c #211E1E",
"5  c #272119",
"6  c #2B221B",
"7  c #32261D",
"8  c #362A1F",
"9  c #3A2A1E",
"0  c #181D21",
"q  c #1B2324",
"w  c #1D2529",
"e  c #262827",
"r  c #2C2922",
"t  c #2B2C2E",
"y  c #302721",
"u  c #352B22",
"i  c #3A2D22",
"p  c #3E3125",
"a  c #3D332A",
"s  c #3C3C2F",
"d  c #2B2F32",
"f  c #243034",
"g  c #2B3236",
"h  c #353235",
"j  c #363936",
"k  c #6D331C",
"l  c #402F27",
"z  c #453426",
"x  c #41342A",
"c  c #4C3528",
"v  c #46382C",
"b  c #4B3A2B",
"n  c #523D2D",
"m  c #5B3D2C",
"M  c #493D33",
"N  c #6A3925",
"B  c #743C26",
"V  c #34413C",
"C  c #55402E",
"Z  c #4E4438",
"A  c #544332",
"S  c #5B4738",
"D  c #73452D",
"F  c #6B4433",
"G  c #674B37",
"H  c #654B3C",
"J  c #764834",
"K  c #7B4E3B",
"L  c #64513D",
"P  c #6C533A",
"I  c #73533D",
"U  c #7A513C",
"Y  c #394544",
"T  c #494849",
"R  c #554A47",
"E  c #5C554A",
"W  c #484F52",
"Q  c #575A5A",
"!  c #6B5443",
"~  c #655749",
"^  c #765946",
"/  c #795D46",
"(  c #79574B",
")  c #625F5F",
"_  c #76614E",
"`  c #7D6249",
"'  c #676059",
"]  c #786857",
"[  c #5C6463",
"{  c #5E6769",
"}  c #696A6B",
"|  c #6C7574",
" . c #78797A",
".. c #834F39",
"X. c #82563C",
"o. c #855948",
"O. c #835D49",
"+. c #905E52",
"@. c #876648",
"#. c #84644D",
"$. c #8C644D",
"%. c #926B4D",
"&. c #986D4F",
"*. c #826351",
"=. c #8C6452",
"-. c #846955",
";. c #8B6B53",
":. c #866C5D",
">. c #8C6D58",
",. c #926555",
"<. c #946C55",
"1. c #94655B",
"2. c #946C5C",
"3. c #8F7155",
"4. c #8D715A",
"5. c #8A745C",
"6. c #937356",
"7. c #947857",
"8. c #93745C",
"9. c #9A755D",
"0. c #967A5D",
"q. c #997C5D",
"w. c #A07457",
"e. c #9D6D64",
"r. c #8A7A68",
"t. c #947561",
"y. c #967B63",
"u. c #9A7D63",
"i. c #977868",
"p. c #9B7D6A",
"a. c #A37C63",
"s. c #A2796A",
"d. c #A47F71",
"f. c #78807D",
"g. c #9B805F",
"h. c #8E816C",
"j. c #978266",
"k. c #9B8163",
"l. c #96826B",
"z. c #9C846B",
"x. c #9D886E",
"c. c #9D8775",
"v. c #9E8C74",
"b. c #A28366",
"n. c #A3856B",
"m. c #A9856C",
"M. c #A4896D",
"N. c #A98C6E",
"B. c #A38572",
"V. c #A58B73",
"C. c #AA8D73",
"Z. c #A8847B",
"A. c #A58D7B",
"S. c #AA8D7B",
"D. c #A59176",
"F. c #AB9274",
"G. c #A4917B",
"H. c #AC947C",
"J. c #AE987D",
"K. c #B1957B",
"L. c #B1997D",
"P. c #7E7E80",
"I. c #7E8482",
"U. c #888A8A",
"Y. c #89918E",
"T. c #8F908D",
"R. c #959799",
"E. c #AA8D80",
"W. c #A69281",
"Q. c #AC9583",
"!. c #AE9984",
"~. c #AE9689",
"^. c #AE9A8A",
"/. c #B19583",
"(. c #B29B85",
"). c #B5968C",
"_. c #B19D8C",
"`. c #A79F9D",
"'. c #B29E90",
"]. c #B4A08D",
"[. c #AFA493",
"{. c #B3A293",
"}. c #B5A699",
"|. c #B9A998",
" X c #BBAD9C",
".X c #A49FA0",
"XX c #A5A7A6",
"oX c #ABACAD",
"OX c #ADB0AF",
"+X c #BEB1A5",
"@X c #B3B2B4",
"#X c #BBB9B8",
"$X c #C5A69D",
"%X c #C5B6AA",
"&X c #C7BDB6",
"*X c #D2B9B2",
"=X c #CEC3B7",
"-X c #CCC4BA",
";X c #D3C7BC",
":X c #BEC1C0",
">X c #C8C7C6",
",X c #D6CEC7",
"<X c #D9D2CA",
"1X c #CFD4D0",
"2X c #D7D7D5",
"3X c #DADADA",
"4X c #E2DBD5",
"5X c #E5DED9",
"6X c #E3E0DD",
"7X c #EAE3DF",
"8X c #E4E5E4",
"9X c #EAE6E3",
"0X c #EEEAE6",
"qX c #ECECEB",
"wX c #F3F1EE",
"eX c #EEF1F0",
"rX c #F4F3F3",
"tX c #F8F7F5",
"yX c #F8F8F7",
"uX c #FFFFFFFF",
/* pixels */
"uXuXuXuXuXuXuXuXuXuXuXuXuXuXuXuXuXuXuXuXuXuXuXuXuXuXuXuXuXuXuXuXuXuXuXuXuXuXuXuXuXuXuXuXuXuXuXuXuXuXuXuXuXuXuXuXuXuXuXuXuXuXuXuX",
"uXuXuXuXuXuXuXuXuXuXuXuXuXuXuXuXuXuXuXuXuXuXuXuXuXuXuXuXuXuXuXuXuXuXuXuXuXuXuXuXuXuXuXuXuXuXuXuXuXuXuXuXuXuXuXuXuXuXuXuXuXuXuXuX",
"uXuXuXuXuXuXuXuXuXuXuXuXuXuXuXuXuXuXuXuXuXuXuXuXuXuXuXuXuXuXuXuXuXuXuXuXuXuXuXuXuXuXuXuXuXuXuXuXuXuXuXuXuXuXuXuXuXuXuXuXuXuXuXuX",
"uXuXuXuXuXuXuXuXuXuXuXuXuXuXuXuXuXuXuXuXuXuXuXuXuXuXuXuXuXuXuXuXuXuXuXuXuXuXuXuXuXuXuXuXuXuXuXuXuXuXuXuXuXuXuXuXuXuXuXuXuXuXuXuX",
"uXuXuXuXuXuXuXuXuXuXuXuXuXuXuXuXuXuXuXuXuXuXuXuXuXuXuXuXuXuXuXuXuXuXuXuXuXuXuXuXuXuXuXuXuXuXuXuXuXuXuXuXuXuXuXuXuXuXuXuXuXuXuXuX",
"uXuXuXuXuXuXuXuXuXuXuXuXuXuXuXuXuXuXuXuXuXuXuXuXuXuXuXuXuXuXuXuXuXuXuXuXuXuXuXuXuXuXuXuXuXuXuXuXuXuXuXuXuXuXuXuXuXuXuXuXuXuXuXuX",
"uXuXuXuXuXuXuXuXuXuXuXuXuXuXuXuXuXuXuXuXuXuXuXuXuXuXuXuXuXuXuXuXuXuXuXuXuXuXuXuXuXuXuXuXuXuXuXuXuXuXuXuXuXuXuXuXuXuXuXuXuXuXuXuX",
"uXuXuXuXuXuXuXuXuXuXuXuXuXuXuXuXuXuXuXuXuXuXuXuXuXuXuXuXuXuXuXyXyXuXuXuXuXuXuXuXuXuXuXuXuXuXuXuXuXuXuXuXuXuXuXuXuXuXuXuXuXuXuXuX",
"uXuXuXuXuXuXuXuXuXuXuXuXuXuXuXuXuXuXuXuXuXuXuXuXuXuXuXuXeX<X-X-X-X3XrXyXuXuXuXuXuXuXuXuXuXuXuXuXuXuXuXuXuXuXuXuXuXuXuXuXuXuXuXuX",
"uXuXuXuXuXuXuXuXuXuXuXuXuXuXuXuXuXuXuXuXuXuXuXuXuX0X=X|.G.i.#.F #.p.{.;X8XuXuXuXuXuXuXuXuXuXuXuXuXuXuXuXuXuXuXuXuXuXuXuXuXuXuXuX",
"uXuXuXuXuXuXuXuXuXuXuXuXuXuXuXuXuXuXuXuXuXuXuXqX=XA.$.J B B N N B J J <.'.,X7X3XqXeX0XrXuXtXuXuXuXuXuXuXuXuXuXuXuXuXuXuXuXuXuXuX",
"uXuXuXuXuXuXuXuXuXuXuXuXuXuXuXuXuXuXuXuXuXuXeX%X$.k B ..X.B k N U o.=.9.v.^.^.[.[.^. X X X-X=X>X5X<XwXyXyXuXuXuXuXuXuXuXuXuXuXuX",
"uXuXuXuXuXuXuXuXuXuXuXuXuXuXuXuXuXuXuXeXrXuX3Xh.K ....U J D K =.t.p.v.G.G.v.v.v.V.x.x.j.j.l.x.z.l.G.Q. X;X9XuXuXuXuXuXuXuXuXuXuX",
"uXuXuXuXuXuXuXuXuXuXuXuXuXrXqXeX2XoXY.Y.f.} [ Z c G G G L ` t.A.G.c.x.x.l.h.y.j.g.j.k.k.u.y.y.7.8.4.t.8.y.Q.<XtXuXuXuXuXuXuXuXuX",
"uXuXuXuXuXuXuXuXuXuXyXeX1XXX| Y V j q @ > < @ : 5 6 S ] l.G.v.l.l.j.y.0.q.q.0.q.q.u.y.q.k.q.q.8.8.>.4.4.>.;.>.%X6XyXuXuXuXuXuXuX",
"uXuXuXuXuXuXuXuXuXuX2XY.Y , = % o @ @ @ @ @ > 7 Z _ g.j.x.j.j.j.y.0.0.y.q.q.y.k.u.k.k.z.n.z.z.q.0.8.8.8.4.<.;.>.H.;XuXuXuXuXuXuX",
"uXuXuXuXuXuXuXuXyX1XP.V = % % X X % - - : r M ! ] 7.g.g.j.g.g.k.u.q.q.q.g.g.g.b.b.b.N.N.N.F.D.M.M.z.u.t.8.4.;.=.;.4.9XuXuXuXuXuX",
"uXuXuXuXuXuXuXrXOX[ , = % % % o & & > < a H #.3.7.7.g.j.g.g.g.g.u.u.b.m.M.m.m.m.N.F.L.L.F.F.V.M.z.z.b.k.u.8.4.>.;.@.Q.5XuXuXuXuX",
"uXuXuXuXuXuXuX>X{ f % % % o o o o O - u L ` ;.4.7.7.g.g.g.g.g.k.b.b.N.N.F.F.C.C.F.F.D.D.D.F.V.V.M.z.z.b.z.u.t.2.;.$.y.&XuXuXuXuX",
"uXuXuXuXuXuX8X .f = = % o o X X X X o 6 P #.;.;.3.3.7.7.0.g.g.b.m.C.F.K.K.K.K.F.F.b.x.5.j.x.B.B.v.V.M.B.b.z.u.y.4.>.>.|.yXuXuXuX",
"uXuXuXuXuXrXR.w = % % o X X X X X X . $ A / ` #.;.6.%.@.3.q.b.N.F.K.L.(.(.(.(.F.N.x.g.` S ! :.t.z.M.V.V.V.M.z.z.p.8.;._.9XuXuXuX",
"uXuXuXuXuX>XY % o o % o X X X X   . . $ v L L ` ;.6.3.G @.9.n.F.K.(._.].{._.(.F.M.x.g.-.m m F o.t.z.A.S.S.Z.A.V.c.y.<.V.4XuXuXuX",
"uXuXuXuXyX ., o X X X X X X X X   X O 2 A A A ` ;.8.@.C P 7.M.L.].].].|.{._.S.z.z.z.j.0.U / ^ ( o.e.c.A.H.S.E.A.A.z.0.8.5XuXuXuX",
"uXuXuXyXXXf % X X X X   X   X       . # u C A ! 3.7.@.z F 6.k./.L.).'.|.}.Q.;.^ >.y.y.y.#.O.<.#.o.1.e.A.W.Q.~.W.~.D.k.6.,XyXuXuX",
"uXuXuX3Xj = o X X X X X X           X . 2 p C P 0.g.7.$ x t.t.S.L.].].}.{.M.O.K ^ =.t.p.9.K >.z.J 1.2.B.W.^.'.^.^.W.x.q.%XuXuXuX",
"uXuXuXoXg * % X X X X X           . O + $ z r A 7.z.a.i 6 ( u.n.L.].].].!.8.$.<./ J 9.z.i.o.2.C.o.+.e.d.Q.^.^.^.^.^.D.j.|.uXuXuX",
"uXuXqXI.w = % o   X X X   X     . . O $ 2 p 9 V ` M.C._ u R i.u.K.K.K.H.u.$.9.u.U F *.B.B.,.o.u.n.,.e.d.Q.'.^.~._.^.H.x.%XtXuXuX",
"uXuX8XY.q % o o X               . . O $ 5 b z 5 ~ V.!.D.H c 4.j.M.M.n.k.<.<.a.s.8.o.o.B./.B.,.s.!.+.e.Z.^.'.'.^._.^.H.v.=XyXuXuX",
"uXuXuX ., o X X               . O # 1 3 7 C L - Z y.!.(.z.O.<.y.0.6.<.2.<.9.s.m.m.a.2.B.Q.Q.2.,.A.2.e.Z.^.'.^.^.^.^.J.].6XuXuXuX",
"uXuXeX| w % X X   X   X       . # 1 3 3 3 z S 7 u ] v.!.H.u.9.6.&.&.&.w.a.m.C.H./.F.b.E._._.B.,.u.i.1.Z.^.].^.^.^.^.W.|.wXuXuXuX",
"uXuX2X{ w % X X X X           . + # $ $ 3 3 8 p M ! u.b.b.b.9.%.&.w.a.m.C./.).)._.).B.A._.'.Q.e.=.:.1.~.^.^.^.^.^.^.(.;XyXuXuXuX",
"uXuX8Xf , o o X     X           . . . + + + $ 9 ~ _ u.b.b.n.b.b.m.C.K./.(._._.].'.~.p.2.)._._.Z.! ! i.~.^.^.^.^.^.!.|.7XuXuXuXuX",
"uXuXoXf % o X X                   . O @ + $ 2 7 ( l.V.N.m.N.K.(.(.(.(.].].'.'._._.'.S.d.)._._.W.^ G p.~.^.^.^.!.Q.!.%XuXuXuXuXuX",
"uXrXU.= % X X X                     + ; ; $ 3 c ( p./.H.F.K.(.].].(.(.(._.'.).'._.).Q.~.^._._.Q.y./ z.~.Q.^.~.Q.H.{.7XuXuXuXuXuX",
"uX8XW % o o o X                     . O ; 3 9 n ! c.^._.(./.(.].K.F.F.K.(.'.'.'._.E.Z.S.Q.!.^.Q.M.0.M.A.H.W.D.N.].,XyXuXuXuXuXuX",
"uXqXW = % % o X                       & ; : 8 c A -.H.].].(.K.F.b.7.8.u.K.(.).'.'.K.M.b.M.B.V.H.C.M.V.H.J.!.H.D.=XwXuXuXuXuXuXuX",
"uX8XP.f 0 % o X X     X                 O ; y z n H c._.!.J.F.b.%.P X.o.s.H./.(._.~.Q.S.V.b.n.V.C.S.J.J.!.!.H. X0XuXuXuXuXuXuXuX",
"uXwX>XP.f % % X X     X               . O # 3 l n *.E.~.v.D.N.g.@.c F o.9.S.!.!.^.'.'._.Q.F.N.D.F.H.J.J.J.].=XwXuXuXuXuXuXuXuXuX",
"uXuXrX&X[ 0 % X X X   X               . O O # 3 9 ! p.c.h.v.N.q.I 9 c %.<.V./.(.'.{.}.}.{._.J.J.K.L.L.J.].=X0XuXuXuXuXuXuXuXuXuX",
"uXuXuX3X .w % X X                       O O 2 2 3 x ! } ~ r.D.z.%.7 7 k.a.S.(._.{.{.{.}.{.].(.!.].L.].].=XqXuXuXuXuXuXuXuXuXuXuX",
"uXuXuX8XY.h % % X X                     . + 1 2 5 9 p ~ s } W.J.K.S z :.N.H.!.^.].{.{.{.{.'.^.(.].^.^.+XwXuXuXuXuXuXuXuXuXuXuXuX",
"uXuXuXuXoXT > % o X                   .   + $ 1 5 8 8 A a Z r.^.].5.S S x.H.!.]._.].{.[.{.'.].'.'.{.}.<XyXuXuXuXuXuXuXuXuXuXuXuX",
"uXuXuXuX:XQ 0 > & o X X               . . O + $ 5 5 5 a a h ~ W._.H.7.m @.F.(.!.].^.^.{.{.'.'.'.'.'.+X0XuXuXuXuXuXuXuXuXuXuXuXuX",
"uXuXuXuX1XQ 0 > & X X X                 . . + $ 5 6 6 5 r r M r.W.(.Q.u.k.F.J.!.^.].^.{.{.'.'._.W.!.&XyXuXuXuXuXuXuXuXuXuXuXuXuX",
"uXuXuXuXuX} e , & o   X o   .           O + 1 u u u a p 8 6 Z _ l.W.!.^.!.(.!.].].].{._.'._.).S.S.'.8XuXuXuXuXuXuXuXuXuXuXuXuXuX",
"uXuXuXuXuX:XQ = & o O o .                 + : 3 5 u b C p 8 A _ :.l.!.^.(.(.].!.^.'.'.'._.Q.K.Z.Q.-XtXuXuXuXuXuXuXuXuXuXuXuXuXuX",
"uXuXuXuXuXwXR.= & o o                     . O + $ 5 p u 6 6 A h.0.z.W.!.^.^.^.^.^.W.E.Q.S.E.E.S.%XqXuXuXuXuXuXuXuXuXuXuXuXuXuXuX",
"uXuXuXuXuXuXoX0 o o X X                       X . @ : - - : Z 5.x.D.!.!.W.G.r.' E :.B.W././.E.%X7XuXuXuXuXuXuXuXuXuXuXuXuXuXuXuX",
"uXuXuXuXuXuX#XT O X X X X   X     X             o . O O @ : a L ~ ] r.] E s s S ..s.s.s.).&X4XyXuXuXuXuXuXuXuXuXuXuXuXuXuXuXuXuX",
"uXuXuXuXuXyX3XU.h o   X X                     o o o o o @ @ # - 5 t e r < ; ) `.%X$X*X5XyXyXuXuXuXuXuXuXuXuXuXuXuXuXuXuXuXuXuXuX",
"uXuXuXuXuXuXrX>XT.h & . o X X X             X o O % & . O O O - > : ; 4 T oXwXyXtXuXuXuXuXuXuXuXuXuXuXuXuXuXuXuXuXuXuXuXuXuXuXuX",
"uXuXuXuXuXuXuXrX6X`.} e O X X X X X   X o & o   X   o o o O & - > - 4 ) @XwXuXuXuXuXuXuXuXuXuXuXuXuXuXuXuXuXuXuXuXuXuXuXuXuXuXuX",
"uXuXuXuXuXuXuXuXuXrX,XT.T +     o X o   X X X X o X X X o & & @ t Q `.9XuXuXuXuXuXuXuXuXuXuXuXuXuXuXuXuXuXuXuXuXuXuXuXuXuXuXuXuX",
"uXuXuXuXuXuXuXuXuXuXuX3XoX) h - & X o       X O % o o X o * > h T.>XeXuXuXuXuXuXuXuXuXuXuXuXuXuXuXuXuXuXuXuXuXuXuXuXuXuXuXuXuXuX",
"uXuXuXuXuXuXuXuXuXuXuXuXeX>X.Xr.R d & = O X & > & % t t t Q T.3XuXuXuXuXuXuXuXuXuXuXuXuXuXuXuXuXuXuXuXuXuXuXuXuXuXuXuXuXuXuXuXuX",
"uXuXuXuXuXuXuXuXuXuXuXuXuXyXeXqX1X@X.Xr. .P.} | R.@XXX@X8XuXuXuXuXuXuXuXuXuXuXuXuXuXuXuXuXuXuXuXuXuXuXuXuXuXuXuXuXuXuXuXuXuXuXuX",
"uXuXuXuXuXuXuXuXuXuXuXuXuXuXuXuXuXuXyXuXyXqXyXuXyXyXuXuXuXuXuXuXuXuXuXuXuXuXuXuXuXuXuXuXuXuXuXuXuXuXuXuXuXuXuXuXuXuXuXuXuXuXuXuX",
"uXuXuXuXuXuXuXuXuXuXuXuXuXuXuXuXuXuXuXuXuXuXuXuXuXuXuXuXuXuXuXuXuXuXuXuXuXuXuXuXuXuXuXuXuXuXuXuXuXuXuXuXuXuXuXuXuXuXuXuXuXuXuXuX",
"uXuXuXuXuXuXuXuXuXuXuXuXuXuXuXuXuXuXuXuXuXuXuXuXuXuXuXuXuXuXuXuXuXuXuXuXuXuXuXuXuXuXuXuXuXuXuXuXuXuXuXuXuXuXuXuXuXuXuXuXuXuXuXuX",
"uXuXuXuXuXuXuXuXuXuXuXuXuXuXuXuXuXuXuXuXuXuXuXuXuXuXuXuXuXuXuXuXuXuXuXuXuXuXuXuXuXuXuXuXuXuXuXuXuXuXuXuXuXuXuXuXuXuXuXuXuXuXuXuX",
"uXuXuXuXuXuXuXuXuXuXuXuXuXuXuXuXuXuXuXuXuXuXuXuXuXuXuXuXuXuXuXuXuXuXuXuXuXuXuXuXuXuXuXuXuXuXuXuXuXuXuXuXuXuXuXuXuXuXuXuXuXuXuXuX",
"uXuXuXuXuXuXuXuXuXuXuXuXuXuXuXuXuXuXuXuXuXuXuXuXuXuXuXuXuXuXuXuXuXuXuXuXuXuXuXuXuXuXuXuXuXuXuXuXuXuXuXuXuXuXuXuXuXuXuXuXuXuXuXuX",
"uXuXuXuXuXuXuXuXuXuXuXuXuXuXuXuXuXuXuXuXuXuXuXuXuXuXuXuXuXuXuXuXuXuXuXuXuXuXuXuXuXuXuXuXuXuXuXuXuXuXuXuXuXuXuXuXuXuXuXuXuXuXuXuX",
"uXuXuXuXuXuXuXuXuXuXuXuXuXuXuXuXuXuXuXuXuXuXuXuXuXuXuXuXuXuXuXuXuXuXuXuXuXuXuXuXuXuXuXuXuXuXuXuXuXuXuXuXuXuXuXuXuXuXuXuXuXuXuXuX"
};
