/* XPM */
static char *_e5e92bb348c4ab8d6903f299a45356ewRCjrL0adEpZVNVm[] = {
/* columns rows colors chars-per-pixel */
"64 64 215 2 ",
"   c #030506",
".  c #070807",
"X  c #090907",
"o  c #030708",
"O  c #05090B",
"+  c #0B0C0B",
"@  c #110E0B",
"#  c #0E110F",
"$  c #14110D",
"%  c #1A140E",
"&  c #070E11",
"*  c #0A0F12",
"=  c #0B1113",
"-  c #0C1419",
";  c #0F181B",
":  c #131412",
">  c #191612",
",  c #1D1A14",
"<  c #131A1B",
"1  c #1C1A19",
"2  c #241C14",
"3  c #2A1E14",
"4  c #231E18",
"5  c #2E2216",
"6  c #25221C",
"7  c #2B221A",
"8  c #32251C",
"9  c #34291F",
"0  c #3C2B1E",
"q  c #1B1D20",
"w  c #162124",
"e  c #1E2324",
"r  c #1D262A",
"t  c #282A29",
"y  c #342B23",
"u  c #3A2D23",
"i  c #332C29",
"p  c #3D3126",
"a  c #3C332A",
"s  c #38352B",
"d  c #2C2E31",
"f  c #293435",
"g  c #363736",
"h  c #3B3B3D",
"j  c #432C1E",
"k  c #412D26",
"l  c #493225",
"z  c #453528",
"x  c #4B3C2C",
"c  c #583B2B",
"v  c #463D32",
"b  c #4A3D30",
"n  c #513E30",
"m  c #6A3A24",
"M  c #753C25",
"N  c #36403D",
"B  c #5A432E",
"V  c #4F4134",
"C  c #49453B",
"Z  c #524333",
"A  c #5B4534",
"S  c #5E4B37",
"D  c #5E4C3B",
"F  c #69402E",
"G  c #75432C",
"H  c #684936",
"J  c #744834",
"K  c #794D3B",
"L  c #65523E",
"P  c #76533C",
"I  c #7E523B",
"U  c #363D40",
"Y  c #3E4647",
"T  c #454748",
"R  c #4A494B",
"E  c #554E42",
"W  c #474E52",
"Q  c #4C5454",
"!  c #4D5958",
"~  c #535455",
"^  c #595859",
"/  c #675546",
"(  c #645549",
")  c #7B5544",
"_  c #7B5C47",
"`  c #755C48",
"'  c #7D624B",
"]  c #6E6255",
"[  c #7B6451",
"{  c #7D6954",
"}  c #77685A",
"|  c #615F60",
" . c #5D6466",
".. c #656A69",
"X. c #706C6C",
"o. c #6D7373",
"O. c #777778",
"+. c #83553B",
"@. c #845B45",
"#. c #875847",
"$. c #845D4A",
"%. c #8A5D50",
"&. c #8A6045",
"*. c #84644B",
"=. c #8A644C",
"-. c #8A6A4D",
";. c #946B4D",
":. c #8E704F",
">. c #876554",
",. c #846953",
"<. c #8B6C53",
"1. c #896D5B",
"2. c #936C53",
"3. c #956659",
"4. c #946A5A",
"5. c #8E725A",
"6. c #917255",
"7. c #997756",
"8. c #93745B",
"9. c #9A735C",
"0. c #957A5D",
"q. c #9A7C5E",
"w. c #9A6D63",
"e. c #867664",
"r. c #997565",
"t. c #967C63",
"y. c #9A7D63",
"u. c #9B7E6A",
"i. c #A37C67",
"p. c #A27C6B",
"a. c #A27B73",
"s. c #9B805F",
"d. c #978164",
"f. c #9B8164",
"g. c #96816A",
"h. c #9C836A",
"j. c #9D896F",
"k. c #938573",
"l. c #9B8876",
"z. c #9D8C74",
"x. c #A28366",
"c. c #A88165",
"v. c #A3856B",
"b. c #A9846B",
"n. c #A58A6D",
"m. c #A98B6E",
"M. c #A38574",
"N. c #A88670",
"B. c #A38B73",
"V. c #AA8C72",
"C. c #A58D7B",
"Z. c #AA8D7B",
"A. c #A59075",
"S. c #AB9175",
"D. c #A4927B",
"F. c #AC947B",
"G. c #AD987D",
"H. c #B09477",
"J. c #B1957B",
"K. c #B1997E",
"L. c #7B7F81",
"P. c #817F80",
"I. c #7F8282",
"U. c #878888",
"Y. c #88918F",
"T. c #8E9794",
"R. c #969998",
"E. c #A98E81",
"W. c #B38E83",
"Q. c #A49482",
"!. c #AC9583",
"~. c #AE9984",
"^. c #AB9789",
"/. c #AE9A8B",
"(. c #B19783",
"). c #B19B84",
"_. c #B6978B",
"`. c #B19D8C",
"'. c #A59D98",
"]. c #B39E91",
"[. c #B99F94",
"{. c #B3A08E",
"}. c #ACA090",
"|. c #B3A293",
" X c #B7A899",
".X c #9EA2A2",
"XX c #A2A2A2",
"oX c #ABABAC",
"OX c #B7ADA4",
"+X c #ACB2AF",
"@X c #BFB4A6",
"#X c #B7B8B8",
"$X c #C2B5AA",
"%X c #C6BDB5",
"&X c #C4C0BB",
"*X c #CBC4BD",
"=X c #D0C8BE",
"-X c #BEC3C1",
";X c #C6C5C4",
":X c #CDC8C3",
">X c #CBCCCC",
",X c #D2CCC4",
"<X c #D4CFCA",
"1X c #D5D1CD",
"2X c #D9D2CD",
"3X c #D3D4D3",
"4X c #DBD6D2",
"5X c #DBD9D5",
"6X c #DCDCDB",
"7X c #E1DEDB",
"8X c #E1E0DE",
"9X c #E5E5E4",
"0X c #E8E7E6",
"qX c #EAEAE9",
"wX c #ECECEC",
/* pixels */
"wXwXwXwXwXwXwXwXwXwXwXwXwXwXwXwXwXwXwXwXwXwXwXwXwXwXwXwXwXwXwXwXwXwXwXwXwXwXwXwXwXwXwXwXwXwXwXwXwXwXwXwXwXwXwXwXwXwXwXwXwXwXwXwX",
"wXwXwXwXwXwXwXwXwXwXwXwXwXwXwXwXwXwXwXwXwXwXwXwXwXwXwXwXwXwXwXwXwXwXwXwXwXwXwXwXwXwXwXwXwXwXwXwXwXwXwXwXwXwXwXwXwXwXwXwXwXwXwXwX",
"wXwXwXwXwXwXwXwXwXwXwXwXwXwXwXwXwXwXwXwXwXqXqXwXqXqXwXwXqXqXwXqXwXqX6X3X9XqXwXwXwXwXwXwXwXwXwXwXwXwXwXwXwXwXwXwXwXwXwXwXwXwXwXwX",
"wXwXwXwXwXwXwXwXwXwXwXwXwXwXwXwXwXwXwXwX9X:XOXoX-X5X#XU.U.XXoX#X;X-XXX| T P.>XwXwXwXwXwXwXwXwXwXwXwXwXwXwXwXwXwXwXwXwXwXwXwXwXwX",
"wXwXwXwXwXwXwXwXwXwXwXwXwXwXwXwXwXwXwX9X&XP.h : - q q q e h W T W ! U r - - W oX8XqXqXwXwXwXwXwXwXwXwXwXwXwXwXwXwXwXwXwXwXwXwXwX",
"wXwXwXwXwXwXwXwXwXwXwXwXwXwXwXwXwXwX8XoXR : O o O * - < < - * * - & & & & o - q  .#X9XqXwXwXwXwXwXwXwXwXwXwXwXwXwXwXwXwXwXwXwXwX",
"wXwXwXwXwXwXwXwXwXwXwXwXwXwXwXwXqX1X'.T @ O o o O O * * * O O O & & & O O O & - r Y o..X>X9XqXqXwXwXwXwXwXwXwXwXwXwXwXwXwXwXwXwX",
"wXwXwXwXwXwXwXwXwXwXwXwXwXwXwX0X>XP.d O o o o o O O O O o o o o O o o o O O o & = - ; r W .X9XqXwXwXwXwXwXwXwXwXwXwXwXwXwXwXwXwX",
"wXwXwXwXwXwXwXwXwXwXwXwXwXwXqX;XX.q o o o o o   o o             o o o o       o o o o & q r I.6XwXwXwXwXwXwXwXwXwXwXwXwXwXwXwXwX",
"wXwXwXwXwXwXwXwXwXwXwXwXwXwX3XU.i o O o o o     o               o o o o           o o & & & f .XqXwXwXwXwXwXwXwXwXwXwXwXwXwXwXwX",
"wXwXwXwXwXwXwXwXwXwXwXwXwX9XXXh X o o o           o             o o o o         o o O O o o & Y +XwXwXwXwXwXwXwXwXwXwXwXwXwXwXwX",
"wXwXwXwXwXwXwXwXwXwXwXwXwX:X~ + o o             o               o o o o         o o o o o o o & ! -XwXwXwXwXwXwXwXwXwXwXwXwXwXwX",
"wXwXwXwXwXwXwXwXwXwXwXwXqXU.4 o o o o                                           o o o o o o o o ; o.3XwXwXwXwXwXwXwXwXwXwXwXwXwX",
"wXwXwXwXwXwXwXwXwXwXwXwX>X~ o o o   o                                                 o o   o & - f I.6XwXwXwXwXwXwXwXwXwXwXwXwX",
"wXwXwXwXwXwXwXwXwXwXwXwXXXd o o                                                       o   o o & - w ! -XqXqXwXwXwXwXwXwXwXwXwXwX",
"wXwXwXwXwXwXwXwXwXwXwXqXX.@   o X                                               o   o o o   o O & - U T.9XwXwXwXwXwXwXwXwXwXwXwX",
"wXwXwXwXwXwXwXwXwXwXwX>X^ O   o O o             o o                 .   . X .         o o o o O & & ; ..>XqXwXwXwXwXwXwXwXwXwXwX",
"wXwXwXwXwXwXwXwXwXwXwXoXU * O   O o   o     X X o o                 .   . X . .           o o o o & - Y +XqXwXwXwXwXwXwXwXwXwXwX",
"wXwXwXwXwXwXwXwXwXwXwXR.d * o o o O o o + $ % X X X o   X X   X   X X o X % @ .           o o o o & - r T.9XwXwXwXwXwXwXwXwXwXwX",
"wXwXwXwXwXwXwXwXwXwXqXL.< O o . O O o . > 5 2 @ @ @ @ + X + X @ # $ $ X % 2 % X .           o o O & & w T.9XwXwXwXwXwXwXwXwXwXqX",
"wXwXwXwXwXwXwXwXwXwX6X| O O X O O . X $ , 8 6 % > 2 2 $ @ > > 4 > > # $ , 3 % @ . .         . . O O O w T.9XwXwXwXwXwXwXwXwXwXwX",
"wXwXwXwXwXwXwXwXwXwX>X~ O O O O O O : 5 9 y 5 4 2 3 2 2 5 7 y 5 2 $ $ $ 3 5 % $ $ . o         . O O O w R.qXwXwXwXwXwXwXwXwXwXwX",
"wXwXwXwXwXwXwXwXwXwX>XQ O O O + X + 1 a z a 6 5 y 8 3 8 z x k k 5 % % 2 0 j 5 2 $ X + $ . . . + = # O N +XwXwXwXwXwXwXwXwXwXwXwX",
"wXwXwXwXwXwXwXwXwXwX#XR + X X = $ = 1 u x u 3 7 8 9 n ` c l c H l 5 5 x L L Z p 9 9 k 0 2 > 1 < = # = W #XwXwXwXwXwXwXwXwXwXwXwX",
"wXwXwXwXwXwXwXwXwXwX>X^ = @ + : 1 > , 9 0 7 a Z E } t.a.1.[ 1.1.' / b i 3 6 y y p V Z S S S A y > # = ! -XwXwXwXwXwXwXwXwXwXwXwX",
"wXwXwXwXwXwXwXwXwXwX6XO.e : = , V v p u 6 i s s C ] k.^./._.~.~.M.` b s i s u v Z Z V S ' ' ' V 1 # # ..3XwXwXwXwXwXwXwXwXwXwXwX",
"wXwXwXwXwXwXwXwXwXwX6XU.t # : s } d.{ D v i g E ] } k.Q.`.].`.J.v.t.5.t.g.f.y.8.,.*.` ' ' ,.:.S 6 # ; Y.0XwXwXwXwXwXwXwXwXwXwXwX",
"wXwXwXwXwXwXwXwXwXwX0XR.g : 6 ( h.d.,.{ e.k.Q.F.D.A.A.Q.).).J.m.v.f.B.).).S.b.y.0.:.-.:.:.:.<./ y # g +XwXwXwXwXwXwXwXwXwXwXwXwX",
"wXwXwXwXwXwXwXwXwXwXwX#XR > s e.A.g.g.z.Q.).`.F.v.x.m.S.K.K.H.m.x.v.!.).).S.f.y.s.7.:.6.6.6.5.' s $ Q #X9XwXwXwXwXwXwXwXwXqXwXwX",
"wXwXwXwXwXwXwXwXwXwXwX3X..> C k.~.Q.~.~./.).).b.7.7.s.m.K.{.K.m.x.x.v.1.A 5 % 5 B ' :.:.6.6.s.{ z 6 Z k.,XqXwXwXwXwXwXwXwXwXwXwX",
"wXwXwXwXwXwXwXwXwXwXwXqXe.e E a.`.).`.~.v._ n y 0 H =.s.H.{.K.m.q.9.=.H p i p l z c P :.s.s.d.,.V z F I /.8XwXwXwXwXwXwXwXwXwXwX",
"wXwXwXwXwXwXwXwXwXwXwXwX+XU E l.`.`.~.0.c u k y 9 j H 7.S.{.K.m.;.9.8.e.r.p.u.9.:.-.:.:.s.s.s.s.L S I M z.5XwXwXwXwXwXwXwXwXwXwX",
"wXwXwXwXwXwXwXwXwXwXwXwX;X^ E l.`.).S.8.5.v.B.u.=.+.@.q.K.).K.b.;.;.f.g.r.8.r.q.s.s.q.s.s.s.d.d.] H I M r.,XwXwXwXwXwXwXwXwXwXwX",
"wXwXwXwXwXwXwXwXwXwXwXwX$X( ( Q.~.).K.G.F.S.c.2.&.&.7.m.K._.J.i.;.:.f.S.G.G.K.).S.c.s.s.s.s.d.j.,.P +.M 8.1XwXwXwXwXwXwXwXwXwXwX",
"wXwXwXwXwXwXwXwXwXwXwXqX_.#.} Q.`.).).~.).).F.A.C.B.J.K.{.).J.i.9.7.x.S.K.K.{.).K.m.x.s.s.s.g.z.<.G +.G u.3XwXwXwXwXwXwXwXwXwXwX",
"wXwXwXwXwXwXwXwXwXwXwX7XW.3.u.Q.{./.`.).`.`.~.~.!.(.{._.{.|.(.b.9.9.v.~.{.{.{.{.K.S.c.i.f.s.f.z.5.G m M l.4XwXwXwXwXwXwXwXwXwXwX",
"wXwXwXwXwXwXwXwXwXwXwX<XW.p.E.^.{./.{./.].]./.^.).).`.].].].(.N.9.2.u.).{.|.{.{.).H.b.f.t.t.d.z.g.K m m z.6XwXwXwXwXwXwXwXwXwXwX",
"wXwXwXwXwXwXwXwXwXwXwX4X_.Z.^.`.|.{.{.|.|.|.].]._.`.].].].`.(.V.r.2.9.Z. X X X{.).H.m.x.0.0.d.z.r.K m F ^.8XwXwXwXwXwXwXwXwXwXwX",
"wXwXwXwXwXwXwXwXwXwXwX4X[.K.!./.|.`.}.|.|.|.|.]._./.`.`.].].(.V.i.9.2.8.F.|.|.{.).H.m.x.0.t.d.l.t.@.m *.@X0XwXwXwXwXwXwXwXwXwXwX",
"wXwXwXwXwXwXwXwXwXwXwX3X[.Z.!./.}.|.|.|.|. X|./.Z.Z.!._.`.].).Z.v.i.9.@.2.S._.{.).H.V.f.y.0.d.z.u.I ) /.5XwXwXwXwXwXwXwXwXwXwXwX",
"wXwXwXwXwXwXwXwXwXwXwX5X XZ.E._.|.|.|.|.|.|.}.G.v.N.!.].`.`.(.N.i.9.2.K P g.(.).K.H.m.i.0.0.d.z.u.#.M.1XwXwXwXwXwXwXwXwXwXwXwXwX",
"wXwXwXwXwXwXwXwXwXwXwX0X$XN.Z._.].`.}.{.{./.Z.v.M.!.!.4.<.i.p.9.J c F I >.h.S.S.H.m.x.s.0.0.d.D.j.M.%XwXwXwXwXwXwXwXwXwXwXwXwXwX",
"wXwXwXwXwXwXwXwXwXwXwXwX1X].N.E./.}.`.).(.F.v.v.A.`./.E.Z.Z.u.%.) @.>.r.g.v.m.B.m.m.x.f.s.d.h.D.].:X0XwXwXwXwXwXwXwXwXwXwXwXwXwX",
"wXwXwXwXwXwXwXwXwXwXwXwXqX:X].!.}.{.`.).S.V.v.V.^.`.].`.].`.(.!.C.v.g.y.y.f.h.n.V.m.x.f.s.s.k.Q.*X0XwXwXwXwXwXwXwXwXwXwXwXwXwXwX",
"wXwXwXwXwXwXwXwXwXwXwXwXwX0X&X|.}.`.`.).F.S.S.B.~./.`.].`._.!.F.Z.v.h.u.t.t.f.h.S.S.n.s.q.d.z.}.1XwXwXwXwXwXwXwXwXwXwXwXwXwXwXwX",
"wXwXwXwXwXwXwXwXwXwXwXwXwXwX0X,X X`.|.).K.S.V.Z.C.F.~.Z.M.p.p.3.#.#.@.$.) L ' h.H.S.x.f.t.f.D.@X6XwXwXwXwXwXwXwXwXwXwXwXwXwXwXwX",
"wXwXwXwXwXwXwXwXwXwXwXwXwXwXwXwX1X X).).G.F.n.f.' H H @.#.#.%.#.@.$._ ) c l [ B.H.S.f.s.f.g.D.=XwXwXwXwXwXwXwXwXwXwXwXwXwXwXwXwX",
"wXwXwXwXwXwXwXwXwXwXwXwXwXwXwXwXqX,X|.~.G.G.n.v.w.H / g.F.!.~.!.A.C.8.' ) [ j.A.S.A.n.s.f.g. X5XwXwXwXwXwXwXwXwXwXwXwXwXwXwXwXwX",
"wXwXwXwXwXwXwXwXwXwXwXwXwXwXwXwXwX0X&XK.K.K.S.F.!.Z.w.%.3.4.4.$.) m m K *.t.B.A.A.m.f.t.t.j.%X0XwXwXwXwXwXwXwXwXwXwXwXwXwXwXwXwX",
"wXwXwXwXwXwXwXwXwXwXwXwXwXwXwXwXwXwX,X X{.G.Q.~.^./.E.a.w.w.w.3.3.3.w.4.t.j.n.n.m.n.y.0.f.{.2XwXwXwXwXwXwXwXwXwXwXwXwXwXwXwXwXwX",
"wXwXwXwXwXwXwXwXwXwXwXwXwXwXwXwXwXwX0X$XG.G.~./././.]./.E.a.p.w.w.w.u.h.M.z.v.B.j.f.0.8.g.%XqXwXwXwXwXwXwXwXwXwXwXwXwXwXwXwXwXwX",
"wXwXwXwXwXwXwXwXwXwXwXwXwXwXwXwXwXwXwX=XG.j.F./././././.`.!.Z.C.M.a.C.C.B.v.h.h.f.8.8.5.D.,XwXwXwXwXwXwXwXwXwXwXwXwXwXwXwXwXwXwX",
"wXwXwXwXwXwXwXwXwXwXwXwXwXwXwXwXwXwXwX9X@XA.G.~././././.}.`./.!.Q.E.Z.C.n.v.g.f.t.6.5.t. X9XwXwXwXwXwXwXwXwXwXwXwXwXwXwXwXwXwXwX",
"wXwXwXwXwXwXwXwXwXwXwXwXwXwXwXwXwXwXwXwX2X XG.~./.].]./././././.^.Z.Z.B.v.v.f.r.8.5.8.l.*XwXwXwXwXwXwXwXwXwXwXwXwXwXwXwXwXwXwXwX",
"wXwXwXwXwXwXwXwXwXwXwXwXwXwXwXwXwXwXwXwXqX,X{.G.^././././.^././.!.C.B.v.f.u.r.8.1.8.8.OX9XwXwXwXwXwXwXwXwXwXwXwXwXwXwXwXwXwXwXwX",
"wXwXwXwXwXwXwXwXwXwXwXwXwXwXwXwXwXwXwXwXwXwX=X{.!.^./././.]././.C.M.B.u.t.8.5.8.<.2.Q.2XwXwXwXwXwXwXwXwXwXwXwXwXwXwXwXwXwXwXwXwX",
"wXwXwXwXwXwXwXwXwXwXwXwXwXwXwXwXwXwXwXwXwXwXqX1X{.G.~.~././.^.!.C.B.g.t.8.5.<.<.<.M.,XwXwXwXwXwXwXwXwXwXwXwXwXwXwXwXwXwXwXwXwXwX",
"wXwXwXwXwXwXwXwXwXwXwXwXwXwXwXwXwXwXwXwXwXwXwXwX1X|.A.A.A.A.z.B.g.u.t.5.<.>.-.,.D.2XwXwXwXwXwXwXwXwXwXwXwXwXwXwXwXwXwXwXwXwXwXwX",
"wXwXwXwXwXwXwXwXwXwXwXwXwXwXwXwXwXwXwXwXwXwXwXwXwX8X@Xj.f.0.8.8.8.5.<.-.=.=.,. X6XwXwXwXwXwXwXwXwXwXwXwXwXwXwXwXwXwXwXwXwXwXwXwX",
"wXwXwXwXwXwXwXwXwXwXwXwXwXwXwXwXwXwXwXwXwXwXwXwXwXwXqX8X%X/.v.8.=.*.*.&.*.p.%X9XwXwXwXwXwXwXwXwXwXwXwXwXwXwXwXwXwXwXwXwXwXwXwXwX",
"wXwXwXwXwXwXwXwXwXwXwXwXwXwXwXwXwXwXwXwXwXwXwXwXwXwXwXwXwXwXwX0X9X4X,X,X5X0XwXwXwXwXwXwXwXwXwXwXwXwXwXwXwXwXwXwXwXwXwXwXwXwXwXwX",
"wXwXwXwXwXwXwXwXwXwXwXwXwXwXwXwXwXwXwXwXwXwXwXwXwXwXwXwXwXwXwXwXwXwXwXwXwXwXwXwXwXwXwXwXwXwXwXwXwXwXwXwXwXwXwXwXwXwXwXwXwXwXwXwX",
"wXwXwXwXwXwXwXwXwXwXwXwXwXwXwXwXwXwXwXwXwXwXwXwXwXwXwXwXwXwXwXwXwXwXwXwXwXwXwXwXwXwXwXwXwXwXwXwXwXwXwXwXwXwXwXwXwXwXwXwXwXwXwXwX",
"wXwXwXwXwXwXwXwXwXwXwXwXwXwXwXwXwXwXwXwXwXwXwXwXwXwXwXwXwXwXwXwXwXwXwXwXwXwXwXwXwXwXwXwXwXwXwXwXwXwXwXwXwXwXwXwXwXwXwXwXwXwXwXwX"
};
