/* XPM */
static char *_7fe55d6c16048a7b1be7e7a32c83e3aka0RR9zI3j1EciDc[] = {
/* columns rows colors chars-per-pixel */
"64 64 213 2 ",
"   c #030202",
".  c #0C0203",
"X  c #0B0B0A",
"o  c #1A0404",
"O  c #190809",
"+  c #131313",
"@  c #1B1C1A",
"#  c #270809",
"$  c #39090B",
"%  c #271509",
"&  c #2B1B1A",
"*  c #1E201F",
"=  c #161C23",
"-  c #1C2027",
";  c #242524",
":  c #252728",
">  c #2C2D2D",
",  c #342B2E",
"<  c #313131",
"1  c #4F0C0E",
"2  c #570D0E",
"3  c #651616",
"4  c #711112",
"5  c #482F2F",
"6  c #334B59",
"7  c #434442",
"8  c #484947",
"9  c #50514E",
"0  c #565655",
"q  c #575A57",
"w  c #595957",
"e  c #595B59",
"r  c #734748",
"t  c #6D5154",
"y  c #5F615F",
"u  c #7B5561",
"i  c #4D646E",
"p  c #646364",
"a  c #686A67",
"s  c #78676E",
"d  c #6E716E",
"f  c #7A7B79",
"g  c #820F0F",
"h  c #82100F",
"j  c #820F10",
"k  c #821112",
"l  c #8C1212",
"z  c #881C1D",
"x  c #901314",
"c  c #981717",
"v  c #A51617",
"b  c #AB1918",
"n  c #B11718",
"m  c #B51A1B",
"M  c #BB1A1B",
"N  c #BC201F",
"B  c #8E1F20",
"V  c #961F20",
"C  c #A01E20",
"Z  c #8A2726",
"A  c #8F2D2E",
"S  c #8E302F",
"D  c #933B3B",
"F  c #A92525",
"G  c #B02D2E",
"H  c #C11A1B",
"J  c #CE1D1D",
"K  c #D51E1E",
"L  c #E11F1F",
"P  c #D2201F",
"I  c #DB1F20",
"U  c #E21F21",
"Y  c #C62425",
"T  c #D72122",
"R  c #D83837",
"E  c #E72324",
"W  c #EB2222",
"Q  c #ED3B3C",
"!  c #A75C0E",
"~  c #A85B0B",
"^  c #A95E12",
"/  c #B3591F",
"(  c #A76013",
")  c #B35A20",
"_  c #9D6A2A",
"`  c #A96B27",
"'  c #BE6121",
"]  c #B3612F",
"[  c #B16F2E",
"{  c #A67030",
"}  c #B47536",
"|  c #C36422",
" . c #CD6B24",
".. c #974444",
"X. c #805154",
"o. c #9D5857",
"O. c #AC4A4A",
"+. c #A45A5A",
"@. c #AE5C5C",
"#. c #8D7E4F",
"$. c #917946",
"%. c #9A5965",
"&. c #8E7170",
"*. c #A66565",
"=. c #BB6767",
"-. c #A66F70",
";. c #B8787A",
":. c #CE5253",
">. c #ED4647",
",. c #EF4F51",
"<. c #EB5555",
"1. c #CA6969",
"2. c #CE6F71",
"3. c #D47677",
"4. c #EB6566",
"5. c #F16E6F",
"6. c #9C8251",
"7. c #A88756",
"8. c #B98857",
"9. c #BE8D5C",
"0. c #838A66",
"q. c #B98D62",
"w. c #BD9C7D",
"e. c #C3956B",
"r. c #6E7C88",
"t. c #C37F81",
"y. c #759699",
"u. c #5D8EA5",
"i. c #618FA6",
"p. c #6784AF",
"a. c #6291A7",
"s. c #6391A8",
"d. c #6783B0",
"f. c #6A86B1",
"g. c #6D89B3",
"h. c #738DB4",
"j. c #7D9FB1",
"k. c #7E97BF",
"l. c #7BA0B1",
"z. c #65B7BD",
"x. c #7F98C1",
"c. c #57BFCB",
"v. c #59BECC",
"b. c #79CED8",
"n. c #8A8B89",
"m. c #899096",
"M. c #989895",
"N. c #AB8787",
"B. c #A78987",
"V. c #B38889",
"C. c #AD9090",
"Z. c #A29C9A",
"A. c #B59593",
"S. c #BB9696",
"D. c #96A4AE",
"F. c #97A8B7",
"G. c #9EA0B8",
"H. c #A6A6A3",
"J. c #BBA7A7",
"K. c #A8BEB0",
"L. c #B8B7B5",
"P. c #C59F9E",
"I. c #F28889",
"U. c #ED9A9D",
"Y. c #F4999B",
"T. c #CBA887",
"R. c #C2AE9E",
"E. c #D0B49A",
"W. c #F59EA0",
"Q. c #C6ABA8",
"!. c #C3B3A2",
"~. c #CCBDAE",
"^. c #C7B9B8",
"/. c #A9C5BC",
"(. c #BFC0BF",
"). c #C9C2BD",
"_. c #8299C1",
"`. c #8A9FC4",
"'. c #8BA1C7",
"]. c #96A7C8",
"[. c #9BABCE",
"{. c #9CADD1",
"}. c #A7B7CB",
"|. c #A5BDC8",
" X c #B1BDC3",
".X c #B0BED1",
"XX c #80C6C9",
"oX c #BFC9D6",
"OX c #A9DCDD",
"+X c #8AD7E1",
"@X c #99DEE5",
"#X c #A7E6EC",
"$X c #C8C6C5",
"%X c #C6C8CA",
"&X c #CCCDCC",
"*X c #D6CBC9",
"=X c #D1D0CE",
"-X c #C4D1D6",
";X c #CED5DD",
":X c #D2D3D2",
">X c #D8D6D9",
",X c #DCDCDC",
"<X c #E1DBDB",
"1X c #DFE0DF",
"2X c #D6DBE0",
"3X c #E4E5E5",
"4X c #E9E6E6",
"5X c #E7E8E7",
"6X c #E6E7E8",
"7X c #EAEAEA",
"8X c #EFF0EE",
"9X c #F4F4F3",
"0X c #FFFFFFFF",
/* pixels */
"0X0X0X0X0X0X0X0X0X0X0X0X0X0X0X0X0X0X0X0X0X0X0X0X0X0X0X0X0X0X0X0X0X0X0X0X0X0X0X0X0X0X0X0X0X0X0X0X0X0X0X0X0X0X0X0X0X0X0X0X0X0X0X0X",
"0X0X0X0X0X0X0X0X0X0X0X0X0X0X0X0X0X0X0X0X0X0X0X0X0X0X0X0X0X0X0X0X0X0X0X0X0X0X0X0X0X0X0X0X0X0X0X0X0X0X0X0X0X0X0X0X0X0X0X0X0X0X0X0X",
"0X0X0X0X0X0X0X0X0X0X0X0X0X0X0X0X0X0X0X0X0X0X0X0X0X0X0X0X0X0X0X0X0X0X0X0X0X0X0X0X0X0X0X0X0X0X0X0X0X0X0X0X0X0X0X0X0X0X0X0X0X0X0X0X",
"0X0X0X0X0X0X0X0X0X0X0X0X0X0X0X0X0X0X0X0X0X0X0X0X0X0X0X0X0X0X0X0X0X0X0X0X0X0X0X0X0X0X0X0X0X0X0X0X0X0X0X0X0X0X0X0X0X0X0X0X0X0X0X0X",
"0X0X0X0X0X0X0X0X0X0X0X0X0X0X0X0X0X0X0X0X0X0X0X0X0X0X0X0X0X0X0X0X0X0X0X0X0X0X0X0X0X0X0X0X0X0X0X0X0X0X0X0X0X0X0X0X0X0X0X0X0X0X0X0X",
"0X0X0X0X0X0X0X0X0X0X0X0X0X0X0X0X0X0X0X0X0X0X0X0X0X0X0X0X0X0X0X0X0X0X0X0X0X0X0X0X0X0X0X0X0X0X0X0X0X0X0X0X0X0X0X0X0X0X0X0X0X0X0X0X",
"0X0X0X0X0X0X0X0X0X0X0X0X0X0X0X0X0X0X0X0X0X0X0X0X0X0X0X0X0X0X0X0X(.:X0X0X0X0X0X0X0X0X0X0X0X0X0X0X0X0X0X0X0X0X0X0X0X0X0X0X0X0X0X0X",
"0X0X0X0X0X0X0X0X0X0X0X0X0X0X0X0X0X0X0X0X0X0X0X0X0X0X0X0X0X0X0X3X7 f 7X0X0X0X0X0X0X0X0X0X0X0X0X0X0X0X0X0X0X0X0X0X0X0X0X0X0X0X0X0X",
"0X0X0X0X0X0X0X0X0X0X0X0X0X0X0X0X0X0X0X0X0X0X0X0X0X0X0X0X0X0X9X+     7 0X0X0X0X0X0X0X0X0X0X0X0X0X0X0X0X0X0X0X0X0X0X0X0X0X0X0X0X0X",
"0X0X0X0X0X0X0X0X0X0X0X0X0X0X0X0X0X0X0X0X0X0X0X0X0X0X0X0X0X0X0X3X7 f 7X0X0X0X0X0X0X0X0X0X0X0X0X0X0X0X0X0X0X0X0X0X0X0X0X0X0X0X0X0X",
"0X0X0X0X0X0X0X0X0X0X0X0X0X0X0X0X0X0X0X0X0X0X0X0X0X0X0X0X0X0X0X0X0 n.0X0X0X0X0X0X0X0X0X0X0X0X0X0X0X0X0X0X0X0X0X0X0X0X0X0X0X0X0X0X",
"0X0X0X0X0X0X0X0X0X0X0X0X0X0X0X0X0X0X0X0X0X0X0X0X0X0X0X0X0X0X0Xd X   H.0X0X0X0X0X0X0X0X0X0X0X0X0X0X0X0X0X0X0X0X0X0X0X0X0X0X0X0X0X",
"0X0X0X0X0X0X0X0X0X0X0X0X0X0X0X0X0X0X0X0X0X0X0X0X0X0X0X0XL.n.M.&.u r 0.m.n.:X0X0X0X0X0X0X0X0X0X0X0X0X0X0X0X0X0X0X0X0X0X0X0X0X0X0X",
"0X0X0X0X0X0X0X0X0X0X0X0X0X0X0X0X0X0X0X0X0X0X0X0X0X0X0X0Xp + . *.Y.W.r     M.0X0X0X0X0X0X0X0X0X0X0X0X0X0X0X0X0X0X0X0X0X0X0X0X0X0X",
"0X0X0X0X0X0X0X0X0X0X0X0X0X0X0X0X0X0X0X0X0X0X0X0X0Xe + + -.Y.U.,.E E T m m 3 + + m.0X0X0X0X0X0X0X0X0X0X0X0X0X0X0X0X0X0X0X0X0X0X0X",
"0X0X0X0X0X0X0X0X0X0X0X0X0X0X0X0X0X0X0X0X0X0X0X3XM.s r r 1.4.4.Q W W T T J x 1 2 t M.0X0X0X0X0X0X0X0X0X0X0X0X0X0X0X0X0X0X0X0X0X0X",
"0X0X0X0X0X0X0X0X0X0X0X0X0X0X0X0X0X0X0X0X0X0X0X$X. ;.Y.W.>.W W W W W W U U K m m 3 O 9X0X0X0X0X0X0X0X0X0X0X0X0X0X0X0X0X0X0X0X0X0X",
"0X0X0X0X0X0X0X0X0X0X0X0X0X0X0X0X0X0X0X0X0X0Xw & 4 z z z l x l l l l x l x j l l k 4 @ n.0X0X0X0X0X0X0X0X0X0X0X0X0X0X0X0X0X0X0X0X",
"0X0X0X0X0X0X0X0X0X0X0X0X0X0X0X0X0X0X0X0X0X0X7 # x x x x x x x x x x x x x x l x c z . f 0X0X0X0X0X0X0X0X0X0X0X0X0X0X0X0X0X0X0X0X",
"0X0X0X0X0X0X0X0X0X0X0X0X0X0X0X0X0X0X0X0X0X0X7 # v v v v b v v v v v b v v v v F b v . f 0X0X0X0X0X0X0X0X0X0X0X0X0X0X0X0X0X0X0X0X",
"0X0X0X0X0X0X0X0X0X0X0X0X0X0X0X0X0X0X0X0X0X0X4XL.o o o o o o o o # o o o o o # O o % ,X8X0X0X0X0X0X0X0X0X0X0X0X0X0X0X0X0X0X0X0X0X",
"0X0X0X0X0X0X0X0X0X0X0X0X0X0X0X0X0X0X0X0X0X0X0X,Xp * + 0 0 0 0 0 0 0 0 0 w e q   < a 9X0X0X0X0X0X0X0X0X0X0X0X0X0X0X0X0X0X0X0X0X0X",
"0X0X0X0X0X0X0X0X0X0X0X0X0X0X0X0X0X0X0X0X0X0X0X0X0X9 < 7X7X7X7X7X7X7X4X4X4X7X3XX n.0X0X0X0X0X0X0X0X0X0X0X0X0X0X0X0X0X0X0X0X0X0X0X",
"0X0X0X0X0X0X0X0X0X0X0X0X0X0X0X0X0X0X0X0X0X0X0X0X0X0 < 7Xe.} } } } } } } } E.3XX n.0X0X0X0X0X0X0X0X0X0X0X0X0X0X0X0X0X0X0X0X0X0X0X",
"0X0X0X0X0X0X0X0X0X0X0X0X0X0X0X0X0X0X0X0X0X0X0X8XL.i q 7X9.! $.$.$.$.6.6.~ T.1X< r. X0X0X0X0X0X0X0X0X0X0X0X0X0X0X0X0X0X0X0X0X0X0X",
"0X0X0X0X0X0X0X0X0X0X0X0X0X0X0X0X0X0X0X0X0X0X0X$X  i l.7X9._ c.c.v.v.+XOX~ T.5Xs.6 X 9X0X0X0X0X0X0X0X0X0X0X0X0X0X0X0X0X0X0X0X0X0X",
"0X0X0X0X0X0X0X0X0X0X0X0X0X0X0X0X0X0X0X0X&X7 7 t 3.f.l.6X8.[ @X@X@X@X@XOX( T.5Xs.u l 8 7 7 9X0X0X0X0X0X0X0X0X0X0X0X0X0X0X0X0X0X0X",
"0X0X0X0X0X0X0X0X0X0X0X0X0X0X0X0X0X7X&X&XH.5 5 r I.m.l.7X9.` /./.oXK././.! T.6Xs.%.M 1 $ $ ).%X%X9X0X0X0X0X0X0X0X0X0X0X0X0X0X0X0X",
"0X0X0X0X0X0X0X0X0X0X0X0X0X0X0X0X0XL..   5 W.W.I.E f l.7X9.~ ~ ~ ~ ~ ~ ~ ~ T.5Xa.*.E N m m O X . 3X0X0X0X0X0X0X0X0X0X0X0X0X0X0X0X",
"0X0X0X0X0X0X0X0X0X0X0X0X0X0X).9 8 s 3.t.1.>.Q R c s l.4X).!.R.R.R.R.R.R.R.*X5Xa.X.c I I T V l l 9 9 9 3X0X0X0X0X0X0X0X0X0X0X0X0X",
"0X0X0X0X0X0X0X0X0X0X0X8X:X:XM., , X.I.e.4.I K Y D r.j.6X,X:X:X^.J.J.$X=X:X1X5Xa.s D K K K Y H H 1 # # L.=X:X9X0X0X0X0X0X0X0X0X0X",
"0X0X0X0X0X0X0X0X0X0X0XM.    r U.Y.5.W W K j j ..&Xk.j.6X7X7X7X*.k h A.7X7X7X5Xa.F.$Xz h g L W W n M M #     :X0X0X0X0X0X0X0X0X0X",
"0X0X0X0X0X0X0X0X0X0Xa &.=.-.1.>.>.R v v D A.A.P.)._.F.7XP.+.+.1.2.3.=.+.+.Q.3Xi.F.&XA.A.A.F v c K I I x k k t n.0X0X0X0X0X0X0X0X",
"0X0X0X0X0X0X0X0X0X0X* r I.I.4.L T Y S S *.&X=X=X=Xh.y.*XO.A Z 1.I.I.O.l l ;.*Xr.D.&X=X=X=XD S S P I I H H H $ 8 0X0X0X0X0X0X0X0X",
"0X0X0X0X0X0X0X0X0X0X@ 4 E W H 4 h o.&X&X>X7X7X4X&X..4 k 2.Y.W.,.E W J m M c 4 l -.*X5X3X7X=X&X&XA 4 j I W W $ 8 0X0X0X0X0X0X0X0X",
"0X0X0X0X0X0X0X0X0X0XL.&.2 v O.N.N.Q.1X<X1X7XV.+.o.=.1.2.<.,.,.Y b b H K K M v v D o.@.R.7X1X1X1XS.V.N.G c 2 M.$X0X0X0X0X0X0X0X0X",
"0X0X0X0X0X0X0X0X0X0X0XH.: 4 %.=X=X>X7X7X7X<XO.Z B 3.I.Y.>.I I F Z Z M U L J M M v l h =.>X4X7X7X:X:X:XS 3 : >X0X0X0X0X0X0X0X0X0X",
"0X0X0X0X0X0X0X0X0X0X0X0X0X; p 7X4X7X7X7XQ.k 3.W.W.>.W W v 4 4 V.&X&X%.4 g N W W P m M c h <X7X7X7X7X7X< e 0X0X0X0X0X0X0X0X0X0X0X",
"0X0X0X0X0X0X0X0X0X0X0X0X0X; p 7X7X8X7X7XQ.k :.<.<.Y n n @.t.t.^.<X<XJ.w.N.O.m b H K K n h <X7X7X7X7X7X< q 0X0X0X0X0X0X0X0X0X0X0X",
"0X0X0X0X0X0X0X0X0X0X0X0X0X; p 7X7X7X7X7X~.z K L E C z z A.&X%X1X7X7X>X=X=X-.z z m L W N B <X7X7X7X7X7X< q 0X0X0X0X0X0X0X0X0X0X0X",
"0X0X0X0X0X0X0X0X0X0X0X0X0X; p 7X7X7X7X7X8X7X..l j S.%X&X1X7X7X7X7X7X7X7X7X2X&X&Xt.4 j t.7X7X7X8X7X7X7X< 0 0X0X0X0X0X0X0X0X0X0X0X",
"0X0X0X0X0X0X0X0X0X0X0X0X0X; p 7X7X7X7X7X7X7XV.-.u L.2X1X3X7X7XoX}.{.;X7X7X6X2X<XZ.t -.J.4X8X7X7X8X7X7X< 0 0X0X0X0X0X0X0X0X0X0X0X",
"0X0X0X0X0X0X0X0X0X0X0X0X0X; p 4X7X7X4X4X5X6X:X Xu.-X7X7X7X7X6X].x.r..X7X7X7X7X7X|.i.%X;X4X4X4X4X4X4X4X< 0 0X0X0X0X0X0X0X0X0X0X0X",
"0X0X0X0X0X0X0X0X0X0X0X0X0X; p 4X} ( ^ ^ ^ ^ !. Xu.-X7X7X7X2Xf.`.'.{._.h.6X7X7X7X|.p.$XV.^ ^ ^ ^ ( 9.4X< 0 0X0X0X0X0X0X0X0X0X0X0X",
"0X0X0X0X0X0X0X0X0X0X0X0X0X; p 6X[ _ 0.0.#.~ !.oXu.-X7X7XoX}.x.].{.{.`._.{.;X7X7X|.i.%Xw.~ 0.0.0.( 9.7X< 0 0X0X0X0X0X0X0X0X0X0X0X",
"0X0X0X0X0X0X0X0X0X0X0X0X0X; p 7X[ #.v.v.y.~ R.K.u.-X7X7X'.g.{.{.{.{.{.[.r..X6X6X|.i.&Xw.~ z.v.c._ 9.7X< 0 0X0X0X0X0X0X0X0X0X0X0X",
"0X0X0X0X0X0X0X0X0X0X0X0X0X; p 7X[ #.v.@XK.~ J./.u.-X;Xg.`.{.[.{.{.{.{.{.{.x.x.6X|.a.$XA.~ z.b.#X{ 9.7X< 0 0X0X0X0X0X0X0X0X0X0X0X",
"0X0X0X0X0X0X0X0X0X0X0X0X0X; p 7X[ 6.b.#XK.~ !. Xu.-X;Xf.'.].B.B.C.B.B.M.{.x.d.6X|.i.%Xe.^ XX+X#X` 9.7X< 0 0X0X0X0X0X0X0X0X0X0X0X",
"0X0X0X0X0X0X0X0X0X0X0X0X0X; p 4X[ 7.#X#X/.~ !. Xu.-X;Xf.`.G./ / ) ) ) ] [.x.g.5X|.s.%Xw.! OX#X#X` 9.7X< 0 0X0X0X0X0X0X0X0X0X0X0X",
"0X0X0X0X0X0X0X0X0X0X0X0X0X; p 4X*XS.` ` 7.).$XK.u.-X;Xp.`.G./ |  . .' ] [.k.f.3X|.s.%X$X).{ ` ` !.:X7X< 0 0X0X0X0X0X0X0X0X0X0X0X",
"0X0X0X0X0X0X0X0X0X0X0X0X0X; p 7X2X~.8.8.w.>X=XoXs.-X;Xp.`.G./ |  . .' ] [.k.f.3X|.s.%X:X:Xq.8.8.*X1X7X< 0 0X0X0X0X0X0X0X0X0X0X0X",
"0X0X0X0X0X0X0X0X0X0X0X0X0X; p 7X7X1X&X&X:X7X:X(.a.-X;Xp.`.G./ |  . .' ] [.k.f.7X|.i.%X>X7X=X&X&X3X7X7X< 0 0X0X0X0X0X0X0X0X0X0X0X",
"0X0X0X0X0X0X0X0X0X0X0X0X0X; y 7X7X7X6X6X4X7X:X Xu.-X;Xd.`.G./ |  . .' ] [._.g.3X|.i.%X>X7X7X6X7X7X7X7X< q 0X0X0X0X0X0X0X0X0X0X0X",
"0X0X0X0X0X0X0X0X0X0X0X0X0X; p 7X7X7X7X7X7X7X:X Xu.-X;Xd.`.G.) |  . .' ] [.k.g.3X|.i.%X>X7X7X4X7X7X7X7X< 0 0X0X0X0X0X0X0X0X0X0X0X",
"0X0X0X0X0X0X0X0X0X0X0X0X0X; p 6X7X7X7X7X7X8X:X Xu.-X;Xd.`.G.) |  . .' ] [.k.f.5X|.a.&X>X7X4X7X4X7X7X7X< q 0X0X0X0X0X0X0X0X0X0X0X",
"0X0X0X0X0X0X0X0X0X0X0X0X0X; + > < < < < < < > : = : > = - - % % % % % % - = = < : = : > < < < < < < < + e 0X0X0X0X0X0X0X0X0X0X0X",
"0X0X0X0X0X0X0X0X0X0X0X0X0Xd q q q q q q q q q q e q e e w w e w e e y e e w w w w w q w e q q q q w y e m.0X0X0X0X0X0X0X0X0X0X0X",
"0X0X0X0X0X0X0X0X0X0X0X0X0X0X0X0X0X0X0X0X0X0X0X0X0X0X0X0X0X0X0X0X0X0X0X0X0X0X0X0X0X0X0X0X0X0X0X0X0X0X0X0X0X0X0X0X0X0X0X0X0X0X0X0X",
"0X0X0X0X0X0X0X0X0X0X0X0X0X0X0X0X0X0X0X0X0X0X0X0X0X0X0X0X0X0X0X0X0X0X0X0X0X0X0X0X0X0X0X0X0X0X0X0X0X0X0X0X0X0X0X0X0X0X0X0X0X0X0X0X",
"0X0X0X0X0X0X0X0X0X0X0X0X0X0X0X0X0X0X0X0X0X0X0X0X0X0X0X0X0X0X0X0X0X0X0X0X0X0X0X0X0X0X0X0X0X0X0X0X0X0X0X0X0X0X0X0X0X0X0X0X0X0X0X0X",
"0X0X0X0X0X0X0X0X0X0X0X0X0X0X0X0X0X0X0X0X0X0X0X0X0X0X0X0X0X0X0X0X0X0X0X0X0X0X0X0X0X0X0X0X0X0X0X0X0X0X0X0X0X0X0X0X0X0X0X0X0X0X0X0X",
"0X0X0X0X0X0X0X0X0X0X0X0X0X0X0X0X0X0X0X0X0X0X0X0X0X0X0X0X0X0X0X0X0X0X0X0X0X0X0X0X0X0X0X0X0X0X0X0X0X0X0X0X0X0X0X0X0X0X0X0X0X0X0X0X",
"0X0X0X0X0X0X0X0X0X0X0X0X0X0X0X0X0X0X0X0X0X0X0X0X0X0X0X0X0X0X0X0X0X0X0X0X0X0X0X0X0X0X0X0X0X0X0X0X0X0X0X0X0X0X0X0X0X0X0X0X0X0X0X0X",
"0X0X0X0X0X0X0X0X0X0X0X0X0X0X0X0X0X0X0X0X0X0X0X0X0X0X0X0X0X0X0X0X0X0X0X0X0X0X0X0X0X0X0X0X0X0X0X0X0X0X0X0X0X0X0X0X0X0X0X0X0X0X0X0X"
};
