/* XPM */
static char *_c4c948dee56463cbd17c18421e48a5e3jOcJs7h2WZ65Tlz[] = {
/* columns rows colors chars-per-pixel */
"64 64 249 2 ",
"   c #FFFFFFFF",
".  c gray",
"X  c #8D8D8D",
"o  c gray87",
"O  c #6D6D6D",
"+  c black",
"@  c #B6B6B6",
"#  c gray93",
"$  c #7E7E7E",
"%  c #685747",
"&  c #583A1D",
"*  c #726A61",
"=  c gray86",
"-  c #634221",
";  c #AD7339",
":  c #322110",
">  c #979797",
",  c #6B6662",
"<  c #8E5E2F",
"1  c #795028",
"2  c #494949",
"3  c #191008",
"4  c #D0D0D0",
"5  c #5D5D5D",
"6  c #694F35",
"7  c #6E4924",
"8  c #774F27",
"9  c #7B5229",
"0  c #4E4E4E",
"q  c #5A4E42",
"w  c #785028",
"e  c #9E6934",
"r  c #80552A",
"t  c #676767",
"y  c gray14",
"u  c gray35",
"i  c gray24",
"p  c #84572B",
"a  c #905F2F",
"s  c #291B0D",
"d  c #3C2814",
"f  c #6A6A6A",
"g  c #2D2D2D",
"h  c #060606",
"j  c #5B3D1E",
"k  c #1F140A",
"l  c #84582B",
"z  c #80572E",
"x  c #010000",
"c  c #AC7339",
"v  c #191108",
"b  c #4A3118",
"n  c #946331",
"m  c #5A3C1D",
"M  c #694622",
"N  c #150E07",
"B  c #2B1C0E",
"V  c #986532",
"C  c #85592C",
"Z  c #604020",
"A  c #A76F37",
"S  c #674521",
"D  c #785027",
"F  c #A87037",
"G  c #90602F",
"H  c #010100",
"J  c #050302",
"K  c #654321",
"L  c #956331",
"P  c #4B4A49",
"I  c #F8F8F8",
"U  c #FBFBFB",
"Y  c #0D0904",
"T  c #0B0804",
"R  c #2E1F0F",
"E  c #A06A35",
"W  c #AB7238",
"Q  c #78522B",
"!  c gray8",
"~  c gray47",
"^  c gray32",
"/  c #0C0C0C",
"(  c #644322",
")  c #724C25",
"_  c #060402",
"`  c #1C1309",
"'  c #A56E36",
"]  c #080503",
"[  c #352312",
"{  c #7D5329",
"}  c #6D6B6A",
"|  c #F3F3F3",
" . c gray98",
".. c #F6F6F6",
"X. c #272524",
"o. c #040301",
"O. c #744D26",
"+. c #644320",
"@. c #362412",
"#. c #4E341A",
"$. c #634323",
"%. c #090909",
"&. c gray59",
"*. c #3B2713",
"=. c #0C0804",
"-. c #929292",
";. c #434343",
":. c #232323",
">. c #5B3D1D",
",. c #110B05",
"<. c #372412",
"1. c #9F6A34",
"2. c #82562B",
"3. c #181008",
"4. c #4D3319",
"5. c #A36C36",
"6. c #6D4924",
"7. c #888581",
"8. c gainsboro",
"9. c gray96",
"0. c #110B06",
"q. c #55391C",
"w. c gray26",
"e. c #46413D",
"r. c #593B1D",
"t. c #483017",
"y. c #1F150A",
"u. c #483018",
"i. c #9A6633",
"p. c #764F27",
"a. c #2D1E0F",
"s. c #5C3D1E",
"d. c #644221",
"f. c #94908B",
"g. c gray74",
"h. c #23170B",
"j. c #452E16",
"k. c #5A3C1E",
"l. c #382513",
"z. c #9B9896",
"x. c #ACACAC",
"c. c #E9E9E9",
"v. c gray39",
"b. c #5B544D",
"n. c #493118",
"m. c #2A1C0E",
"M. c #704B25",
"N. c #432C16",
"B. c #5F3F1F",
"V. c #6A4623",
"C. c #A36D36",
"Z. c #170F07",
"A. c #362411",
"S. c #4E3419",
"D. c #60401F",
"F. c #976432",
"G. c #5B3C1E",
"H. c #9D9D9D",
"J. c #332211",
"K. c #838383",
"L. c #645C53",
"P. c #3A2713",
"I. c #714B25",
"U. c #55381C",
"Y. c #54381C",
"T. c #271A0D",
"R. c #65482C",
"E. c #D8D8D8",
"W. c gray64",
"Q. c #5F564E",
"!. c #2B1D0E",
"~. c #5E3E1F",
"^. c #3E2914",
"/. c #352311",
"(. c #3C2813",
"). c #54381B",
"_. c #382512",
"`. c #342211",
"'. c #7F7A75",
"]. c gray10",
"[. c gray70",
"{. c gray79",
"}. c #9F9F9F",
"|. c gray88",
" X c gray76",
".X c #4C463E",
"XX c #605951",
"oX c gray67",
"OX c gray82",
"+X c #9B9B9B",
"@X c gray46",
"#X c #606060",
"$X c #C0C0C0",
"%X c #634220",
"&X c #1E140A",
"*X c gray73",
"=X c #CACACA",
"-X c gray36",
";X c gray15",
":X c #3F3F3F",
">X c LightGray",
",X c #4B4B4B",
"<X c #020202",
"1X c #664421",
"2X c #AC7239",
"3X c #4A3219",
"4X c #010101",
"5X c #DFDFDF",
"6X c #414141",
"7X c #EAEAEA",
"8X c #E1E1E1",
"9X c #2C2824",
"0X c #0E0904",
"qX c #81562A",
"wX c #140D07",
"eX c #7A7774",
"rX c #C6C6C6",
"tX c #A7A7A7",
"yX c gray66",
"uX c gray90",
"iX c #030201",
"pX c #1B1209",
"aX c #7A5129",
"sX c #DADADA",
"dX c #070707",
"fX c #B7B7B7",
"gX c #6F4A24",
"hX c #61401F",
"jX c #45423F",
"kX c gray81",
"lX c gray85",
"zX c #2F2F2F",
"xX c #111111",
"cX c #505050",
"vX c gray92",
"bX c #F9F9F9",
"nX c gray5",
"mX c #42403F",
"MX c #D5D5D5",
"NX c gray16",
"BX c gray97",
"VX c #140D06",
"CX c #55391D",
"ZX c gray83",
"AX c #100B05",
"SX c #4F3519",
"DX c gray3",
"FX c #DDDDDD",
"GX c #818181",
/* pixels */
"                                                                                                                                ",
"                                                                                                                                ",
"                                                                                                                                ",
"                                                                                                                                ",
"                                                                                                                                ",
"                                                                  . X o                                                         ",
"                                                                  O + @                                                         ",
"                                                      # $ $ $ $ $ % & * $ #                                                     ",
"                                                      = + + + + + - ; : + =                                                     ",
"                                            > O O O O , - - - - - < ; 1 - , O                                                   ",
"                                            2 + + + + 3 ; ; ; ; ; ; ; ; ; 3 +                                                   ",
"                                4 5 5 5 5 5 6 7 7 7 7 8 ; ; ; ; ; ; ; ; ; 3 +                                                   ",
"                                @ + + + + + 9 ; ; ; ; ; ; ; ; ; ; ; ; ; ; 3 +                                                   ",
"                          0 0 0 q w w w w w e ; ; ; ; ; ; ; ; ; ; ; ; ; ; r w 0 t                                               ",
"                          + + + : ; ; ; ; ; ; ; ; ; ; ; ; ; ; ; ; ; ; ; ; ; ; + y                                               ",
"                      u i p p p a ; ; ; ; ; ; ; ; ; s d ; ; ; ; ; ; ; ; ; ; ; + y                                               ",
"                      y + ; ; ; ; ; ; ; ; ; ; ; ; ; + 3 ; ; ; ; ; ; ; ; ; ; ; + y                                               ",
"                  f g h + ; ; ; ; ; ; ; ; ; ; ; ; ; + 3 ; ; ; ; ; j k l ; ; ; < z g f                                           ",
"                  2 + + x c c ; ; ; ; ; ; ; ; ; ; ; x v c c c c c b x 9 ; ; ; ; n + 2                                           ",
"                  2 + m M N B ; ; ; ; ; ; ; ; ; ; ; V C N N N N N Z V A ; ; ; ; n + 2                                           ",
"                  2 + S D + 3 ; ; ; ; ; ; ; ; ; ; ; F G + H J J J K ; ; ; ; ; ; L J P I U                                       ",
"                  2 + S D + 3 ; ; ; ; ; ; ; ; ; ; ; Y T + R E E E A ; ; ; ; ; ; W E Q ! ~                                       ",
"                  ^ / ( ) _ ` ' A ; ; ; ; ; A ' ' ' ] ] ] [ ' F ; ; ; ; ; ; ; ; ; ; { ] } |  .                                  ",
"                  I ..X.o.O.+._ @.; ; ; ; ; @._ _ _ A A A w _ #.; ; ; ; ; ; ; ; ; ; W A $.%.&.                                  ",
"                      y + D S + : ; ; ; ; ; *.=.=.=.; ; ; 9 + b ; ; ; ; ; ; ; ; ; ; ; ; - + -.                                  ",
"                      y + D S + : ; ; ; ; ; ; ; ; ; ; ; ; 9 + b ; ; ; ; ; ; ; ; ; ; ; ; - + -.                                  ",
"                      ;.:.S >.,.<.L 1.; ; ; ; ; ; ; ; ; ; 2.3.4.L 5.; ; ; ; ; ; ; ; ; ; 6.3.7.8.9.                              ",
"                          + 0.D q.+ b ; ; ; ; ; ; ; ; ; ; ; ; - + - ; ; ; ; ; ; ; ; ; ; ; ; b + @                               ",
"                          + 0.D q.+ b ; ; ; ; ; ; ; ; ; ; ; ; - + - ; ; ; ; ; ; ; ; ; ; ; ; b + @                               ",
"                          + 0.D q.+ b ; ; ; ; ; ; ; ; ; ; ; ; - + - ; ; ; ; ; ; ; ; ; ; ; ; b + @                               ",
"                          w.e.r.t.y.u.r i.; ; ; ; ; ; ; ; ; ; p.a.s.r E ; ; ; ; ; ; ; ; ; ; d.a.f.g...                          ",
"                            = + h.D j.+ - ; ; ; ; ; ; ; ; ; ; ; ; b + 9 ; ; ; ; ; ; ; ; ; ; ; ; : + =                           ",
"                            = + h.D j.+ - ; ; ; ; ; ; ; ; ; ; ; ; b + 9 ; ; ; ; ; ; ; ; ; ; ; ; k.l.z.x.                        ",
"                            = + h.D j.+ - ; ; ; ; ; ; ; ; ; ; ; ; b + 9 ; ; ; ; ; ; ; ; ; ; ; ; ; ; 3 +                         ",
"                            c.v.b.n.m.+ - ; ; ; ; ; ; ; ; ; ; ; ; M.N.B.V.C.; ; ; ; ; ; ; ; ; ; ; ; 3 +                         ",
"                                @ + + + - ; ; ; ; ; ; ; ; ; ; ; ; ; ; : + n ; ; ; ; ; ; ; ; ; ; ; ; 3 +                         ",
"                                @ + Z.A.S.D.F.; ; ; ; ; ; ; ; ; ; ; ; : + n ; ; ; ; ; ; ; ; ; ; ; ; G.4.X H.                    ",
"                                @ + J.D J.+ 9 ; ; ; ; ; ; ; ; ; ; ; ; : + n ; ; ; ; ; ; ; ; ; ; ; ; ; ; + y                     ",
"                                = K.L.P.v + 9 ; ; ; ; ; ; ; ; ; ; ; ; I.r.U.Y.; ; ; ; ; ; ; ; ; ; ; ; ; + y                     ",
"                                    -.+ + + 9 ; ; ; ; ; ; ; ; ; ; ; ; ; ; 3 + ; ; ; ; ; ; ; ; ; ; ; ; ; + y                     ",
"                                    -.+ T.j.u.b 1.; ; ; ; ; ; ; ; ; ; ; ; 7 - ; ; ; ; ; ; ; ; ; ; ; ; ; - R.O >                 ",
"                                    -.+ j.D h.+ n ; ; ; ; ; ; ; ; ; ; ; ; ; ; ; ; ; ; ; ; ; ; ; ; ; ; ; ; n + 2                 ",
"                                    E.W.Q.!.=.+ n ; ; ; ; ; ; ; ; ; ; ; ; ; ; ; ; ; ; ; ; ; ; ; ~.^.^.^.^./.+ 2                 ",
"                                        O + + + n ; ; ; ; ; ; ; ; ; ; ; ; ; ; ; ; ; ; ; ; ; ; ; : + + + + + + 2                 ",
"                                        O + (.)._.J.; ; ; ; ; ; ; ; ; ; ; ; ; ; ; ; ; ; 1 J.J.`.'.H.H.H.+ ].[.{.                ",
"                                        O + q.D 0.+ ; ; ; ; ; ; ; ; ; ; ; ; ; ; ; ; ; ; - + + + }.|.|.|.+ y                     ",
"                                        8. X.X` o.+ ; ; ; ; ; ; ; ; ; ; ; ; ; s s s s s XXoXoXoXOX|.|.|.oX+Xi @X                ",
"                                            2 + + + ; ; ; ; ; ; ; ; ; ; ; ; ; + + + + + #X|.|.|.|.|.|.|.|.$X+ 2                 ",
"                                            2 + q.%X&X: ; ; ; ; ; G.&X&X&X&X&X*X*X*X*X*X=X|.|.|.-X;X;X;X;X:X>X|.                ",
"                                            ,X<X1X8 + 3 ; ; 2X2X2X3X4X4X4X4X4X|.|.|.|.5X5X5X5X5X6X<X<X<X<X;X                    ",
"                                            7X8X9X0X+ 3 ; qXwXwXwXeXrXrXrXrXrX|.|.|.tX].].].].].yX8X8X8X8XuX                    ",
"                                                y + iXpXF aXh h h K.|.|.|.= sXsXsXsXH.dXdXdXdXdXfX                              ",
"                                                y + gXhXY jXkXkXkXlX|.|.|.zXxXxXxXxXcXvXvXvXvXvXbX                              ",
"                                                zXnX) %X_ mXMXMXMXMXMXMXMXNXnXnXnXnX^                                           ",
"                                                I BXo.VXO.CXdXdXdXdXdXdXdXZXBXBXBXBXbX                                          ",
"                                                    + AXgXSX+ DX! ! ! ! ! FX                                                    ",
"                                                    + + + + + O                                                                 ",
"                                                    :.:.:.:.:.GX                                                                ",
"                                                                                                                                ",
"                                                                                                                                ",
"                                                                                                                                ",
"                                                                                                                                ",
"                                                                                                                                ",
"                                                                                                                                "
};
