/* XPM */
static char *result[] = {
/* columns rows colors chars-per-pixel */
"64 64 214 2 ",
"   c #030606",
".  c #070907",
"X  c #080907",
"o  c #030709",
"O  c #05090B",
"+  c #0B0C0B",
"@  c #120F0B",
"#  c #0C100E",
"$  c #14110E",
"%  c #1C160F",
"&  c #060D11",
"*  c #090E12",
"=  c #0C1213",
"-  c #0E1619",
";  c #0F1A1E",
":  c #121413",
">  c #1B1611",
",  c #171815",
"<  c #1D1A15",
"1  c #13191D",
"2  c #1B1B1C",
"3  c #231B14",
"4  c #271E17",
"5  c #19201F",
"6  c #2F2316",
"7  c #24231B",
"8  c #2D231B",
"9  c #32251C",
"0  c #35291F",
"q  c #141D21",
"w  c #1E1F20",
"e  c #1A2324",
"r  c #1F2B2A",
"t  c #2D2620",
"y  c #252A2B",
"u  c #2C2928",
"i  c #342B22",
"p  c #3B2D22",
"a  c #3E3126",
"s  c #3A332A",
"d  c #2C3436",
"f  c #363737",
"g  c #67341F",
"h  c #422E23",
"j  c #423325",
"k  c #42352A",
"l  c #4B3528",
"z  c #4B3B2C",
"x  c #563D2D",
"c  c #483E34",
"v  c #5B3F30",
"b  c #6A3A26",
"n  c #773A24",
"m  c #38403D",
"M  c #5E432E",
"N  c #4A4236",
"B  c #534434",
"V  c #5B4839",
"C  c #77422B",
"Z  c #674937",
"A  c #634C3B",
"S  c #744B36",
"D  c #7A4C3B",
"F  c #68523C",
"G  c #78563C",
"H  c #423D40",
"J  c #3B4344",
"K  c #43484A",
"L  c #524D47",
"P  c #5E5144",
"I  c #4C5356",
"U  c #575859",
"Y  c #555C5B",
"T  c #665647",
"R  c #6A5443",
"E  c #6A534C",
"W  c #7C5543",
"Q  c #735A45",
"!  c #7B5B45",
"~  c #755A49",
"^  c #77624B",
"/  c #6F6556",
"(  c #786756",
")  c #5F6668",
"_  c #676669",
"`  c #746E68",
"'  c #76746D",
"]  c #6C7372",
"[  c #824D35",
"{  c #84563E",
"}  c #865A47",
"|  c #825C44",
" . c #8D5F53",
".. c #89644D",
"X. c #88694C",
"o. c #91694D",
"O. c #846553",
"+. c #8B6553",
"@. c #856953",
"#. c #8B6C54",
"$. c #896E59",
"%. c #936656",
"&. c #946C54",
"*. c #95695C",
"=. c #8F7056",
"-. c #8D725B",
";. c #927355",
":. c #987354",
">. c #93745B",
",. c #9A745D",
"<. c #967B5D",
"1. c #997C5E",
"2. c #A2775A",
"3. c #8C6E62",
"4. c #9B6C63",
"5. c #897864",
"6. c #977563",
"7. c #9B7664",
"8. c #967B62",
"9. c #9B7D62",
"0. c #977C69",
"q. c #9C7D6A",
"w. c #867E7A",
"e. c #A27C68",
"r. c #A67C71",
"t. c #9C805F",
"y. c #978166",
"u. c #9B8163",
"i. c #96826B",
"p. c #9C846A",
"a. c #9D896F",
"s. c #958477",
"d. c #9C8673",
"f. c #9D8B73",
"g. c #9D8D7A",
"h. c #A28366",
"j. c #A3856B",
"k. c #A9846A",
"l. c #A4896E",
"z. c #A98C6E",
"x. c #A38672",
"c. c #A98574",
"v. c #A48B73",
"b. c #AA8E73",
"n. c #A8867B",
"m. c #A48C7A",
"M. c #AA8E7B",
"N. c #A69075",
"B. c #AC9275",
"V. c #A5927C",
"C. c #AC947B",
"Z. c #AE997E",
"A. c #B19377",
"S. c #B1957B",
"D. c #B1997D",
"F. c #7D8283",
"G. c #878888",
"H. c #8D9091",
"J. c #969899",
"K. c #AC8D80",
"L. c #AC9583",
"P. c #A89684",
"I. c #AE9983",
"U. c #AF9B8B",
"Y. c #B09585",
"T. c #B29B84",
"R. c #B29D8C",
"E. c #B19E90",
"W. c #AEA08E",
"Q. c #B3A08D",
"!. c #A4A29F",
"~. c #B3A293",
"^. c #B9A595",
"/. c #B6A499",
"(. c #B6A99A",
"). c #BAAB9A",
"_. c #9DA6A2",
"`. c #A8AAA9",
"'. c #B3B6B5",
"]. c #BAB7B7",
"[. c #BBBCBC",
"{. c #C3A49B",
"}. c #C4B4A3",
"|. c #C3B3A9",
" X c #C6BAAB",
".X c #CABBAE",
"XX c #C6BDB7",
"oX c #B9C0BC",
"OX c #CDC0B6",
"+X c #CCC5BB",
"@X c #D1C5B9",
"#X c #BFBEC0",
"$X c #BFC1C0",
"%X c #CDCDCC",
"&X c #D4CEC7",
"*X c #DAD2CC",
"=X c #CFD2D2",
"-X c #D3D2D1",
";X c #D7D8D7",
":X c #DDD9D2",
">X c #DBDCDB",
",X c #E1D5CE",
"<X c #E4DCD6",
"1X c #E7E2DD",
"2X c #E4E4E3",
"3X c #E9E6E1",
"4X c #EDE9E5",
"5X c #ECEBEA",
"6X c #F1EEEB",
"7X c #F4F2EF",
"8X c #F5F4F4",
"9X c #F7F8F7",
"0X c #F9F8F7",
"qX c #FFFFFFFF",
/* pixels */
"qXqXqXqXqXqXqXqXqXqXqXqXqXqXqXqXqXqXqXqXqXqXqXqXqXqXqXqXqXqXqXqXqXqXqXqXqXqXqXqXqXqXqXqXqXqXqXqXqXqXqXqXqXqXqXqXqXqXqXqXqXqXqXqX",
"qXqXqXqXqXqXqXqXqXqXqXqXqXqXqXqXqXqXqXqXqXqXqXqXqXqXqXqXqXqXqXqXqXqXqXqXqXqXqXqXqXqXqXqXqXqXqXqXqXqXqXqXqXqXqXqXqXqXqXqXqXqXqXqX",
"qXqXqXqXqXqXqXqXqXqXqXqXqXqXqXqXqXqXqXqXqXqXqXqXqXqXqXqXqXqXqXqXqXqXqXqXqXqXqXqXqXqXqXqXqXqXqXqXqXqXqXqXqXqXqXqXqXqXqXqXqXqXqXqX",
"qXqXqXqXqXqXqXqXqXqXqXqXqXqXqXqXqXqXqXqXqXqXqXqXqXqXqXqXqXqXqXqXqXqXqXqXqXqXqXqXqXqXqXqXqXqXqXqXqXqXqXqXqXqXqXqXqXqXqXqXqXqXqXqX",
"qXqXqXqXqXqXqXqXqXqXqXqXqXqXqXqXqXqXqXqXqX9X9X9X8X9XqXqXqXqXqXqXqXqXqXqXqXqXqXqXqXqXqXqXqXqXqXqXqXqXqXqXqXqXqXqXqXqXqXqXqXqXqXqX",
"qXqXqXqXqXqXqXqXqXqXqXqXqXqXqXqXqX9X5X2X'.'.'._._.[.=X5X8XqXqXqXqXqXqXqXqXqXqXqXqXqXqXqXqXqXqXqXqXqXqXqXqXqXqXqXqXqXqXqXqXqXqXqX",
"qXqXqXqXqXqXqXqXqXqXqXqXqXqXqX9X5X$XJ.I J J r d d e J F.$X9XqXqXqXqXqXqXqXqXqXqXqXqXqXqXqXqXqXqXqXqXqXqXqXqXqXqXqXqXqXqXqXqXqXqX",
"qXqXqXqXqXqXqXqXqXqXqXqXqX8X%X`.) J q q q ; * = & & - - r ] `.2XqXqXqXqXqXqXqXqXqXqXqXqXqXqXqXqXqXqXqXqXqXqXqXqXqXqXqXqXqXqXqXqX",
"qXqXqXqXqXqXqXqXqXqXqX8X2X] J ; = & O & - & & & & & & O O 5 m ] oX9XqXqX0X8XqXqXqXqXqXqXqXqXqXqXqXqXqXqXqXqXqXqXqXqXqXqXqXqXqXqX",
"qXqXqXqXqXqXqXqXqXqX5X'.Y e = O o o O & & & o o o & O O O + # # d H.;X;X).^.). X:XqXqXqXqXqXqXqXqXqXqXqXqXqXqXqXqXqXqXqXqXqXqXqX",
"qXqXqXqXqXqXqXqXqXqX$XI e - & o o o o o o o o o o o O + - = # = : r Y ' X.C n [ 6.W.+X1XqXqXqXqXqXqXqXqXqXqXqXqXqXqXqXqXqXqXqXqX",
"qXqXqXqXqXqXqXqX9X2X] e * * & o o o o   o o o o   o o + : , , : : $ , i M [ [ [ n C @.m.+X4XqXqXqXqXqXqXqXqXqXqXqXqXqXqXqXqXqXqX",
"qXqXqXqXqXqXqXqX=XF.d & o O & o   o o o             o o < i s i i 9 < 7 s F G { { C b b | (.5XqXqXqXqXqXqXqXqXqXqXqXqXqXqXqXqXqX",
"qXqXqXqXqXqXqX;X) f q O o o o o o o o o         o   o . 7 B Q ^ Q R T V B z V G C g g b C @.+XqXqXqXqXqXqXqXqXqXqXqXqXqXqXqXqXqX",
"qXqXqXqXqX9X=X) ; ; & o o o o                       . # 7 Q X.#.=.-.<.$.<.y.-.( W G D C S D x.1XqXqXqXqXqXqXqXqXqXqXqXqXqXqXqXqX",
"qXqXqXqX9X_.I ; & & O o     o                     . @ 7 l Q X.X.=.>.<.t.y.y.i.g.P.s.0.*.+.W | ^.6XqXqXqXqXqXqXqXqXqXqXqXqXqXqXqX",
"qXqXqXqX>XK ; & O o o   o     o     o             . % z V F ^ X.;.;.;.t.t.u.u.u.i.a.g.g.g.8.>.f.<X9XqXqXqXqXqXqXqXqXqXqXqXqXqXqX",
"qXqXqX8X`.f - & & o o   o     o o     o o     X X X % z B B ^ X.;.;.;.t.t.u.t.t.t.y.y.i.p.g.P.P. X5XqXqXqXqXqXqXqXqXqXqXqXqXqXqX",
"qXqXqX6X].I ; & O o         o         o o   X @ @ @ 7 k B F ^ #.;.=.o.t.t.t.t.t.u.<.9.<.0.p.a.g.P.(.:X9XqXqXqXqXqXqXqXqXqXqXqXqX",
"qXqXqXqX#XU q & o o     o           o O @ @ @ @ $ 3 p a B ! ;.;.;.^ ^ ;.t.t.t.1.u.<.<.9.<.<.u.y.f.V.(.*X9XqXqXqXqXqXqXqXqXqXqXqX",
"qXqXqX7X`.K * & o o o                 @ % 3 3 % 3 9 l i V ;.1.1.! M G ;.t.h.h.h.u.9.9.8.1.1.1.9.y.i.f.W.&X8XqXqXqXqXqXqXqXqXqXqX",
"qXqXqX=X] y & O o   o                 X @ % 6 6 0 N s i R 1.9.#.j l X.t.k.z.z.z.z.z.j.k.u.t.1.9.u.t.y.i.f.OX5XqXqXqXqXqXqXqXqXqX",
"qXqXqX'.U q & o o                       X @ % 6 l A t a @.j.h.A 6 A :.t.A.D.A.S.A.B.B.z.h.u.u.t.9.9.9.u.y.V.OX9XqXqXqXqXqXqXqXqX",
"qXqX5XG.d * o o                     X X X @ @ 3 a A : N i.B.v.a 8 ^ t.z.D.Q.T.T.D.D.S.A.z.z.h.h.u.u.9.u.t.y.f.).3XqXqXqXqXqXqXqX",
"qX0X'.U w = O o o     o               @ : $ @ @ 8 k t P v.R.v.p 8 i.,.C.T.Q.Q.Q.Q.R.T.S.A.z.z.b.z.h.h.u.<.8.8.i.(.1XqXqXqXqXqXqX",
"qX0XF.y 2 : & o                         $ : > 3 8 l c ( N.R.p.V R 0.8.C.T.Q.~.^.~.Q.R.D.A.z.b.B.D.B.z.j.u.8.;.>.0./.8XqXqXqXqXqX",
"qX8XH.q 1 * O o                       @ < 3 3 4 p ~ ~ -.l.I.j.G ~ 8.x.Z.T.Q.^.~./.R.T.S.B.l.l.l.D.B.B.B.l.9.>.&.-.0.).6XqXqXqXqX",
"qX2XF.- = & O o                     X X > 8 h x R 6.q.q.h.j.j.,.=.q.v.C.T.R.^.^.L.v.x.v.z.j.u.0.a.B.N.N.N.p.1.>.;.-.8.OX0XqXqXqX",
"qX#XH - & O o                       X @ > p h A O.x.C.j.h.h.2.1.:.,.9.h.B.C.T.c.>.G W 8.p.u.8.! ^ a.N.a.l.a.p.8.>.-.#.V.4XqXqXqX",
"6XG.o & O O o o                   X X @ 4 h l Z 0.U.Y.b.l.k.h.:.o.o.o.,.8.9.>.&...W S -.i.0.6.v B $.a.N.v.p.p.9.>.=.=.6.@XqXqXqX",
"-X' = O O o o o   o o             X X @ 4 j z Z 0.R.R.C.B.S.b.k.2.:.&.:.&.&.&.*.,.&.W +.9.9.-.Z v W <.a.l.p.p.9.6.>.#.#.R.7XqXqX",
"-X' w o o o o                     X % 3 3 h R $.m.E.R.T.T.R.R.T.A.k.k.e.2.,.9.e.e.G S O.q.q.+.! ~ G #.i.l.v.j.p.8.>.#.#.6.<XqXqX",
"4X!.$ o   o o o             X   X + > 4 3 9 ^ m.U.T.Q.D.D.Q.Q.Q.T.D.S.A.A.c.k.c.h.} b 6.p.q.| +.+.W  .0.v.v.l.j.9.6.#.#.#.|.qXqX",
"8X#XH o o o o o               X X @ 3 3 4 i E s.g.g.B.B.B.B.A.Z.T.R.R.R.T.Y.Y.A.c.%.! q.c.7.D -.8.D  .q.m.m.v.j.i.>.#.#...~.9XqX",
"qX2Xw.w       o             X @ @ @ > 4 i p T / 5.a.z.z.t.t.1.z.D.R.R.E.R.R.R.T.A.e.7.n.C.*.} p.4.} %.q.C.M.m.x.j.8.>.#...^.8XqX",
"qX0X`.f O X                 X $ > > < 3 9 0 P c / f.z.t.o.G | ;.z.T.R.R.E.R.{.R.M.j.M.L.M.%. .j.} } *.q.n.C.m.v.x.u.8.O...^.9XqX",
"qX0X%XU o o o o             X $ 8 i i 8 7 a N f ` N.h.:.b h S ..k.Y.E.E.R.E.E.K.i.x.R.R.L.%.7.U.} 4.4.x.K.P.P.n.m.p.8.#.q.OXqXqX",
"qXqX1XG.w o o o               + > 8 i i 8 i s c ` Z.z.^ 9 p | } c.K.R.E.E.Y.R.K.4.x.R.E.c.%.0.x.%.4.r.n.P.U.U.m.m.d.>.#.I.<XqXqX",
"qXqX8X].L : o o o           o X # 8 p z a 8 u f i.T.D.^ i V o.&.c.I.T.E.R.K.K.Y.n.U.E.E.e.%.j.6.4.r.r.K.U.U.U.U.L.v.<.o..X9XqXqX",
"qXqXqX2X!.f O o X   o o o   o o + < p z z i 8 N g.I.Q.A h 3.9.h.C.T.Y.T.Y.M.n.Y.U.E.R.U.e.O.n. .4.K.U.E.E.U.U.U.P.p.>.m.<XqXqXqX",
"qXqXqXqX<XF.w o o o o & X o O X X + < 8 9 i c T i.I.C.~ l v.z.B.T.T.T.E.U.M.j.c.U.R.U.L.$.Z O.3.n.R.E.W.U.P.U.U.C.p.;..X8XqXqXqX",
"qXqXqXqX9X=X_ X o   o o o o O * O + # , 7 j T ^ i.L.I.O.F p.C.D.R.R.E.E.E.L.c.p.b.U.R.m.R M 3.K.U.E.U.U.U.U.U.U.V.u.9.7XqXqXqXqX",
"qXqXqXqXqX0X-X_ 2 O o o o o o O + O # = 8 F 8.( i.P.T.p...j.Z.U.R.E.E./.(.R.C.h.l.C.C.j.! 6.K.U.U.U.U.U.W.U.U.I.v.N.}.qXqXqXqXqX",
"qXqXqXqXqXqXqX2XG.u o X O O o O O + # < s ^ p.p.a.I.U.Z.l.A.I.R.R.E.~.(.(.~.I.v.l.v.v.j.9.x.P.U.U.U.U.E.U.U.U.V.a.OX4XqXqXqXqXqX",
"qXqXqXqXqXqXqXqX2XJ.K = & O O . o O + # < N y.V.V.I.W.Q.T.I.T.U.R.E.~.~./.~.R.B.b.b.z.l.v.N.C.U.U.U.U.U.U.I.I.Z. X8XqXqXqXqXqXqX",
"qXqXqXqXqXqXqXqXqXqX;XF.d # O O O + + # , 7 N i.V.W.T.W.T.T.R.R.Q.U.W.~.W.~.R.Z.C.C.Z.C.C.C.P.L.L.U.U.L.I.U.).@X7XqXqXqXqXqXqXqX",
"qXqXqXqXqXqXqXqXqXqXqX5X[._ y = + # # , : , 5 m / s.P.U.U.R.R.E.~.~.W.~.~.R.R.T.D.D.D.I.Z.Z.I.Z.N.C.C.L.R.@X4X9XqXqXqXqXqXqXqXqX",
"qXqXqXqXqXqXqXqXqXqXqXqXqX2XJ.Y 5 : , : : , , < 7 s L ( g.U.U.E.~.U.~.E.~.W.R.W.Q.T.T.Z.I.I.Z.C.a.I.)..X1XqXqXqXqXqXqXqXqXqXqXqX",
"qXqXqXqXqXqXqXqXqXqXqXqXqXqXqXqX-XH._ ` U K u f c 2 u c V ( s.U.E.E.E.E.W.E.E.E.Q.Q.T.Q.^.^.}.}.@X:X4XqXqXqXqXqXqXqXqXqXqXqXqXqX",
"qXqXqXqXqXqXqXqXqXqXqXqXqXqXqXqXqXqXqX5X-X&X;X#X#X2X#Xr.} *.q.K.L.L.T.Y.U.U.E.E.~.).OX*X6X7X4XqX0XqXqXqXqXqXqXqXqXqXqXqXqXqXqXqX",
"qXqXqXqXqXqXqXqXqXqXqXqXqXqXqXqXqXqXqXqXqXqXqXqXqXqX9X2X{.r.c.M.Y.Y.M.Y.M.M.L./.XX2X7XqXqXqXqXqXqXqXqXqXqXqXqXqXqXqXqXqXqXqXqXqX",
"qXqXqXqXqXqXqXqXqXqXqXqXqXqXqXqXqXqXqXqXqXqXqXqXqXqXqXqX0X,X{.r.K.K.L.c.c.Y.(.&X8XqXqXqXqXqXqXqXqXqXqXqXqXqXqXqXqXqXqXqXqXqXqXqX",
"qXqXqXqXqXqXqXqXqXqXqXqXqXqXqXqXqXqXqXqXqXqXqXqXqXqXqXqXqXqXqX0X*X|.E..XXX*X5X0XqXqXqXqXqXqXqXqXqXqXqXqXqXqXqXqXqXqXqXqXqXqXqXqX",
"qXqXqXqXqXqXqXqXqXqXqXqXqXqXqXqXqXqXqXqXqXqXqXqXqXqXqXqXqXqXqXqX0X8X0X7X0XqXqXqXqXqXqXqXqXqXqXqXqXqXqXqXqXqXqXqXqXqXqXqXqXqXqXqX",
"qXqXqXqXqXqXqXqXqXqXqXqXqXqXqXqXqXqXqXqXqXqXqXqXqXqXqXqXqXqXqXqXqXqXqXqXqXqXqXqXqXqXqXqXqXqXqXqXqXqXqXqXqXqXqXqXqXqXqXqXqXqXqXqX",
"qXqXqXqXqXqXqXqXqXqXqXqXqXqXqXqXqXqXqXqXqXqXqXqXqXqXqXqXqXqXqXqXqXqXqXqXqXqXqXqXqXqXqXqXqXqXqXqXqXqXqXqXqXqXqXqXqXqXqXqXqXqXqXqX",
"qXqXqXqXqXqXqXqXqXqXqXqXqXqXqXqXqXqXqXqXqXqXqXqXqXqXqXqXqXqXqXqXqXqXqXqXqXqXqXqXqXqXqXqXqXqXqXqXqXqXqXqXqXqXqXqXqXqXqXqXqXqXqXqX",
"qXqXqXqXqXqXqXqXqXqXqXqXqXqXqXqXqXqXqXqXqXqXqXqXqXqXqXqXqXqXqXqXqXqXqXqXqXqXqXqXqXqXqXqXqXqXqXqXqXqXqXqXqXqXqXqXqXqXqXqXqXqXqXqX",
"qXqXqXqXqXqXqXqXqXqXqXqXqXqXqXqXqXqXqXqXqXqXqXqXqXqXqXqXqXqXqXqXqXqXqXqXqXqXqXqXqXqXqXqXqXqXqXqXqXqXqXqXqXqXqXqXqXqXqXqXqXqXqXqX",
"qXqXqXqXqXqXqXqXqXqXqXqXqXqXqXqXqXqXqXqXqXqXqXqXqXqXqXqXqXqXqXqXqXqXqXqXqXqXqXqXqXqXqXqXqXqXqXqXqXqXqXqXqXqXqXqXqXqXqXqXqXqXqXqX",
"qXqXqXqXqXqXqXqXqXqXqXqXqXqXqXqXqXqXqXqXqXqXqXqXqXqXqXqXqXqXqXqXqXqXqXqXqXqXqXqXqXqXqXqXqXqXqXqXqXqXqXqXqXqXqXqXqXqXqXqXqXqXqXqX",
"qXqXqXqXqXqXqXqXqXqXqXqXqXqXqXqXqXqXqXqXqXqXqXqXqXqXqXqXqXqXqXqXqXqXqXqXqXqXqXqXqXqXqXqXqXqXqXqXqXqXqXqXqXqXqXqXqXqXqXqXqXqXqXqX",
"qXqXqXqXqXqXqXqXqXqXqXqXqXqXqXqXqXqXqXqXqXqXqXqXqXqXqXqXqXqXqXqXqXqXqXqXqXqXqXqXqXqXqXqXqXqXqXqXqXqXqXqXqXqXqXqXqXqXqXqXqXqXqXqX",
"qXqXqXqXqXqXqXqXqXqXqXqXqXqXqXqXqXqXqXqXqXqXqXqXqXqXqXqXqXqXqXqXqXqXqXqXqXqXqXqXqXqXqXqXqXqXqXqXqXqXqXqXqXqXqXqXqXqXqXqXqXqXqXqX"
};
