/* XPM */
static char *eebf874a93d94d33b0d7aa876f745bd3hxpmg1UYGeumJAWo[] = {
/* columns rows colors chars-per-pixel */
"64 64 42 1 ",
"  c None",
". c #485067",
"X c #4C546D",
"o c #4F586F",
"O c #505A6F",
"+ c #4E5770",
"@ c #4F5871",
"# c #535B73",
"$ c #565F78",
"% c #595F78",
"& c #57627A",
"* c #5C667D",
"= c #5E687F",
"- c #5C6780",
"; c #5E6981",
": c #626C83",
"> c #647187",
", c #647289",
"< c #6A758C",
"1 c #6D798F",
"2 c #70788F",
"3 c #6D7790",
"4 c #6E7991",
"5 c #717792",
"6 c #727B92",
"7 c #777E98",
"8 c #738096",
"9 c #768299",
"0 c #7B859C",
"q c #7F889F",
"w c #7F8BA3",
"e c #828DA5",
"r c #8692A9",
"t c #8B96AE",
"y c #8C9AAF",
"u c #8C96B0",
"i c #8E9BB2",
"p c #919CB4",
"a c #939FB8",
"s c #93A0B6",
"d c #95A1B9",
"f c #98A4BC",
/* pixels */
"                                                                ",
"                                                                ",
"                                                                ",
"                                                                ",
"                                                                ",
"                                                                ",
"                         .#$#&99q09000w#                        ",
"                         $:>*,ippdpsspp.                        ",
"                         $;;-,uapppipupX                        ",
"                         $;;->uuiipipupX                        ",
"                         $-;-,tupipypuuX                        ",
"                         #---,tayypppupX                        ",
"                         $---,uayppppup.                        ",
"                         #-:-,uupyuppup.                        ",
"                         $:--,uappuppppX                        ",
"                         #%:-;uapypupupX                        ",
"                         $-;-;iipuappup+                        ",
"                         @---<uupupuuaa@                        ",
"                         -;;-,uipupupauX                        ",
"                         @;;-<rappppupu#                        ",
"           .XXO#<88881<18wwwwwuuapuuuipe6661812872433#          ",
"           =>=;,yyyiiiisiiiiaaaapuiaiiapiyytyyyypuiii:          ",
"           *==*8yyiyiiiiidaaauuaippapipypyppiyiipppyp>          ",
"           *=**8siiiiiiyaiaiafiapaiutipppppiiyyyyypyp,          ",
"           **==8siyiypipsdidaiaiuaiariatpsysyiiyuipii>          ",
"           =::*1iyyyypppppppaiaaupuauaiipssyiiiisaiii<          ",
"           *::*6siyypyipaispaaiiapppiiuipiiiiiiiiappa<          ",
"           *:==6yyyyytippiddaaaaauupiiuapppissssiiuup>          ",
"           %::=2isppppppipdaipiiawaippppppyyppyppapap>          ",
"           .O##*886622233errwraaaiaiipp979776666<5575$          ",
"                         @&--<tuaaiiiuu-                        ",
"                         #;>-,iaawiiiiuX                        ",
"                         @;&;,iiawffwffO                        ",
"                         @;;;8iiwfwffwwO                        ",
"                         ;;;;,iiffwwwsf&                        ",
"                         &;;&,sfswffffw&                        ",
"                         O==-8wwwssfsss&                        ",
"                         &=;-;wafswwswsO                        ",
"                         O;;;8wfswfsssiO                        ",
"                         O;=;8fwsfwsiwiO                        ",
"                         #=-;,aawswsiwfO                        ",
"                         @==;,wifsssiysO                        ",
"                         &=*:,iisyyyiywO                        ",
"                         O==:,iiyyysiisO                        ",
"                         &==&8iiyyyysysO                        ",
"                         O==;8wiiysyyysO                        ",
"                         &;;;8iiiyiysysO                        ",
"                         &&&;;iiiiyyyysO                        ",
"                         #=*=,iiyyysyiyO                        ",
"                         #=*=,iiysyysiiO                        ",
"                         #===,yiysyyyyyO                        ",
"                         #=*=>yyysysysyO                        ",
"                         #==:>yyysyyyyiO                        ",
"                         #===>yyyyyssyiO                        ",
"                         #:=:>uyyyyysysO                        ",
"                         #==:>yyysysysy&                        ",
"                         %==*<ypysptppp.                        ",
"                         X%*%=eryyytter%                        ",
"                                                                ",
"                                                                ",
"                                                                ",
"                                                                ",
"                                                                ",
"                                                                "
};
