/* XPM */
static char *_0dfdd6741394a8ffe670e823d7597edzVlxvf1xc6i4K2MJ[] = {
/* columns rows colors chars-per-pixel */
"64 64 159 2 ",
"   c #FFFFFFFF",
".  c #796754",
"X  c #7F5941",
"o  c #8E593F",
"O  c #766F5E",
"+  c #7E5B44",
"@  c #757161",
"#  c #7E5C46",
"$  c #82533A",
"%  c #7B6450",
"&  c #7E5D46",
"*  c #835137",
"=  c #786A58",
"-  c #7B624E",
";  c #796753",
":  c #776C5B",
">  c #7B624D",
",  c #7F5B43",
"<  c #796855",
"1  c #786B59",
"2  c #7F5A43",
"3  c #825339",
"4  c #786957",
"5  c #7C604B",
"6  c #835035",
"7  c #766E5D",
"8  c #757060",
"9  c #766E5E",
"0  c #766F5F",
"q  c #7C604A",
"w  c #7F5942",
"e  c #7C614C",
"r  c #844E33",
"t  c #776B59",
"y  c #7D5E48",
"u  c #844D32",
"i  c #844D31",
"p  c #80563E",
"a  c #825238",
"s  c #7A6652",
"d  c #7D5F49",
"f  c #81553C",
"g  c #7A6450",
"h  c #7C624C",
"j  c #796856",
"k  c #776D5C",
"l  c #81563D",
"z  c #81563E",
"x  c #80573F",
"c  c #7B634E",
"v  c #80573E",
"b  c #7A6551",
"n  c #854C31",
"m  c #7E5C45",
"M  c #75705F",
"N  c #786A57",
"B  c #76705F",
"V  c #776B5A",
"C  c #844F34",
"Z  c #757160",
"A  c #796956",
"S  c #834F35",
"D  c #844E32",
"F  c #824C32",
"G  c #754C3D",
"H  c #76564F",
"J  c #A88C73",
"K  c #A98E74",
"L  c #A77852",
"P  c #A4602E",
"I  c #864D30",
"U  c #7F4B31",
"Y  c #6C4839",
"T  c #5B4A4B",
"R  c #764445",
"E  c #B9AC9F",
"W  c #A8B0A2",
"Q  c #D4E3CD",
"!  c #DEEED6",
"~  c #DAC99E",
"^  c #D4934D",
"/  c #D27D2C",
"(  c #D17C2C",
")  c #A05D2F",
"_  c #884E30",
"`  c #764733",
"'  c #513E40",
"]  c #5A5654",
"[  c #756F60",
"{  c #733B3E",
"}  c #453B3F",
"|  c #A2AA9D",
" . c #D4E2CC",
".. c #DACBA2",
"X. c #D48F47",
"o. c #9E5C2F",
"O. c #894E30",
"+. c #7E4331",
"@. c #6C383C",
"#. c #706C5F",
"$. c #44373C",
"%. c #B3BBAB",
"&. c #95562F",
"*. c #744834",
"=. c #484041",
"-. c #514D50",
";. c #736F60",
":. c #6F353A",
">. c #C1BAAB",
",. c #804231",
"<. c #6B2F37",
"1. c #4E4A4E",
"2. c #4F4B4F",
"3. c #747060",
"4. c #514D4F",
"5. c #363039",
"6. c #B0BBAC",
"7. c #7A4A36",
"8. c #524E50",
"9. c #70353A",
"0. c #9FA89C",
"q. c #7D817D",
"w. c #7B6F61",
"e. c #774724",
"r. c #8B512E",
"t. c #5C3528",
"y. c #75432D",
"u. c #844C31",
"i. c #7D4934",
"p. c #713338",
"a. c #4C4543",
"s. c #6F3439",
"d. c #776766",
"f. c #82857F",
"g. c #7E827D",
"h. c #797D79",
"j. c #776A5C",
"k. c #734A2C",
"l. c #734524",
"z. c #874F2E",
"x. c #5B3428",
"c. c #4F2D26",
"v. c #522F27",
"b. c #72412D",
"n. c #854B30",
"m. c #7F4430",
"M. c #4D312C",
"N. c #542C29",
"B. c #563A35",
"V. c #573E38",
"C. c #563931",
"Z. c #553126",
"A. c #5A3428",
"S. c #4D2C26",
"D. c #6C3D2B",
"F. c #80492F",
"G. c #844C30",
"H. c #74422D",
"J. c white",
/* pixels */
"                                      . X                                                                                     o ",
"                                      . O +                                                                                   o ",
"                                      . @ #                                                                                   o ",
"                                      $ . #                                                                                   o ",
"                                        % #                                                                                   o ",
"                                    & * % #                                                                                   o ",
"                                    = - = #                                                                                   o ",
"                                    = ; : % $                                                                                 o ",
"                                    > , < 1 2                                                                                 o ",
"                                  3 $ 4 @ 5 6                                                                                 o ",
"                                  7 7 8 9 0 q                                                                                 o ",
"                                  7 3 . w e q                                                                                 o ",
"                                  7 @ @ @ @ q                                                                                 o ",
"                                  r t @ @ y u                                                                                 o ",
"                              i = 1 p a s 7 1 d                                                                               o ",
"                                f f g < 7 h f a                                                                               o ",
"                                  - O d j #                                                                                   o ",
"                                  , k l z d x                                                                                 o ",
"                                  # 7 c a v l                                                                                 o ",
"                                  7 b k X                                                                                     o ",
"                              n v O m > f                                                                                     o ",
"                              u M N B l                                                                                       o ",
"                              u V C = l                                                                                       o ",
"                                  u N f                                                                                       o ",
"                                  7 a                                                                                         o ",
"                                  7 a                                                                                         o ",
"                              u 1 Z a                                                                                         o ",
"                            C A @ x u                                                                                         o ",
"                            S @ @ C                                                                                           o ",
"                            S @ @ C                                                                                           o ",
"                            S 8 d D                                                                                           o ",
"                          F G H J K K K K K K K K K K K K K K K K K L P P P P P P P P P P P P P P P P P P I                   o ",
"                        U Y T R E W Q ! ! ! ! ! ! ! ! ! ! ! ! ! ! ! ~ ^ / / / / / / / / / / / / / / / / ( ) _                 o ",
"                        ` ' ] [ { } |  .! ! ! ! ! ! ! ! ! ! ! ! ! ! ! ..X./ / / / / / / / / / / / / / / / / o.O.              o ",
"                        +.@.#.@ @ @ $.%.! ! ! ! ! ! ! ! ! ! ! ! ! ! ! ! ../ / / / / / / / / / / / / / / / / / &.              o ",
"                        *.=.-.;.@ ;.:.>.! ! ! ! ! ! ! ! ! ! ! ! ! ! ! ! ../ / / / / / / / / / / / / / / / / / &.              o ",
"                        ,.<.1.2.3.4.5.6.! ! ! ! ! ! ! ! ! ! ! ! ! ! ! ! ../ / / / / / / / / / / / / / / / / / &.              o ",
"                          7.8.3.@ 3.9.>.0.q.q.q.q.q.q.q.q.q.q.q.q.q.q.q.w.e.e.e.e.e.e.e.e.e.e.e.e.e.e.e.e.e.r.t.y.            o ",
"                          u.i.p.a.s.d.f.g.h.h.h.h.h.h.h.h.h.h.h.h.h.h.j.k.l.l.l.l.l.l.l.l.l.l.l.l.l.l.l.l.z.x.c.v.b.          o ",
"                            n.m.M.N.B.V.V.V.V.V.V.V.V.V.V.V.V.V.V.V.V.C.Z.Z.Z.Z.Z.Z.Z.Z.Z.Z.Z.Z.Z.Z.Z.Z.Z.A.c.S.D.F.          o ",
"                              G.H.H.H.H.H.H.H.H.H.H.H.H.H.H.H.H.H.H.H.H.H.H.H.H.H.H.H.H.H.H.H.H.H.H.H.H.H.H.H.H.F.            o ",
"                                                                                                                              o ",
"                                                                                                                              o ",
"                                                                                                                              o ",
"                                                                                                                              o ",
"                                                                                                                              o ",
"                                                                                                                              o ",
"                                                                                                                              o ",
"                                                                                                                              o ",
"                                                                                                                              o ",
"                                                                                                                              o ",
"                                                                                                                              o ",
"                                                                                                                              o ",
"                                                                                                                              o ",
"                                                                                                                              o ",
"                                                                                                                              o ",
"                                                                                                                              o ",
"                                                                                                                              o ",
"                                                                                                                              o ",
"                                                                                                                              o ",
"                                                                                                                              o ",
"                                                                                                                              o ",
"                                                                                                                              o ",
"                                                                                                                              o "
};
