/* XPM */
static char *d540b3520e684bec9ff117ae57865d14leoXCQ4BoIrBM6Rv[] = {
/* columns rows colors chars-per-pixel */
"64 64 99 2 ",
"   c #4D2E1C",
".  c #512E1C",
"X  c #4D301D",
"o  c #52311E",
"O  c #553421",
"+  c #593623",
"@  c #5C3924",
"#  c #5A3D2A",
"$  c #633C26",
"%  c #683E27",
"&  c #663E29",
"*  c #683F28",
"=  c #664027",
"-  c #694027",
";  c #66402A",
":  c #6A4129",
">  c #74472D",
",  c #74492F",
"<  c #794B2F",
"1  c #674430",
"2  c #694531",
"3  c #6B4936",
"4  c #6A4B38",
"5  c #764A31",
"6  c #7C4E33",
"7  c #7F5033",
"8  c #7C5134",
"9  c #7E5234",
"0  c #7E5036",
"q  c #7F5036",
"w  c #7D6A5E",
"e  c #7C6A62",
"r  c #804F33",
"t  c #804F35",
"y  c #824F34",
"u  c #824F35",
"i  c #805033",
"p  c #825032",
"a  c #805034",
"s  c #835234",
"d  c #815137",
"f  c #815236",
"g  c #855134",
"h  c #855235",
"j  c #855337",
"k  c #865437",
"l  c #895637",
"z  c #8E5837",
"x  c #855339",
"c  c #885538",
"v  c #895739",
"b  c #8A5738",
"n  c #8B5639",
"m  c #8B5839",
"M  c #8B583A",
"N  c #8C5938",
"B  c #8E5A39",
"V  c #8C583A",
"C  c #8C593B",
"Z  c #8F5B3B",
"A  c #905939",
"S  c #90593A",
"D  c #915C3B",
"F  c #935B3C",
"G  c #935D3C",
"H  c #945C3C",
"J  c #945D3E",
"K  c #995F3E",
"L  c #8D5D40",
"P  c #8E5E42",
"I  c #935F42",
"U  c #8D6044",
"Y  c #8E6145",
"T  c #8E634A",
"R  c #916145",
"E  c #9B6343",
"W  c #92644A",
"Q  c #93654C",
"!  c #946A51",
"~  c #A36744",
"^  c #A46849",
"/  c #AA6F4A",
"(  c #AF734E",
")  c #B3734D",
"_  c #AC7453",
"`  c #B27452",
"'  c #B67857",
"]  c #816E62",
"[  c #827066",
"{  c #85746C",
"}  c #89766D",
"|  c #8C796F",
" . c #857870",
".. c #948177",
"X. c #9C887D",
"o. c #958780",
"O. c #9C8A82",
"+. c #A08F83",
"@. c #A48E81",
/* pixels */
"O & $ & ; - $ & & ; & : ; +   O O O O   - ; & & ; $ ; ; & ; &   O O & & : $ & +   + $ ; & ; ; ; $ & +   O O O $ ; $ ; & ; & + X ",
"i 6 $ 0 7 0 $ 6 7 0 r S i G o 0 r 7 6 o G 6 u a 0 0 a i 0 7 0 X C a a a 0 : 6 0 o m a 0 6 6 7 i $ 5 a O k k 7 a 0 ; , 0 a 0 7 + ",
"0 0 $ 0 7 5 $ 0 0 a 7 g 7 D + 7 r u i $ G u 0 0 0 a 0 a 7 0 0 o S i i a 6 7 0 0 O v g 0 6 & 6 i = 5 0 $ m g 0 i 0 - 5 a a 7 0 @ ",
"0 5 = 0 7 0 $ 7 a 0 0 S 7 G   0 6 r i $ G 6 0 i a 0 a 0 0 7 7 $ D i i i 0 7 0 7 @ Z a a u & l J - < 0 O a i i 0 a ; 5 0 0 0 0 - ",
"7 6 = 5 0 6 $ 0 i 0 a i 7 C o 0 a 0 0 $ D i i 0 7 a i 0 i 7 7 $ F i a 5 6 a a 0 o m g 0 i - < C - 5 i + , i i i 0 & 6 a 5 6 6 & ",
"5 7 6 $ 0 6 $ a a i i a i 6 $ 6 a a 0 $ F i 7 i i 0 0 7 0 a 0 $ m a i $ 5 a 0 a o l g 6 a i 0 7 : 6 6 ; < i 0 i i & 5 6 - 6 7 + ",
"$ 7 6 $ 0 6 & i J i i S 6 a $ 6 a 5 6 $ J 6 7 0 0 0 i i i i 7 $ r 6 a & 6 7 7 0 & z a < 7 0 0 7 a 6 6 & v a a J g : 6 6 & , a + ",
"$ 0 6 - 0 i 0 i J i 0 0 a G $ 6 5 3 0 $ G i i 7 i 7 7 0 7 0 0 $ S g a = 5 i 0 a & C 6 3 0 0 a i 6 3 0 = n g a S v 0 u a : 6 6 @ ",
"$ i 0 i i u i i Z 0 i a i D @ 6 ; @.L $ F u 0 i i 7 7 i 0 7 7 $ D i i & 6 7 7 7 $ v = [ L a 0 0 - ..Q $ v g r C 6 a a a a i 0 - ",
"$ 6 i 0 i J r i 7 i a J i G   5 5 / 5 $ S u i i 0 i 0 0 7 7 0 $ C i 7 & 6 5 6 7 O ; 5 v 6 6 5 6 6 ^ 0 O g g 7 i 0 a S g a i 0 - ",
"$ 0 i 7 i J i i 7 7 7 S 0 Z   - ; * - X J r i 0 i 7 0 i 0 i i $ 6 7 0 a 0 & 5 7 . @ * - - - : - - - +   a g i i i 0 D g a q 0 - ",
"$ 0 i i i K i i 0 i a g 7 Z o Z J D C $ G r a a i 0 7 i 0 7 6 $ r i 0 7 7 & 7 7 O ^ K I J S J S G Z Z @ 5 q 0 a a i S k 0 q a - ",
"& u 7 7 g ) D i i i r J i i $ 6 5 2 0 $ G i a 0 0 0 i 7 0 i 0 $ C a i i i & 7 7 $ z a 5 a a i 7 6 2 6 & v g a 0 a S G g a 7 0 ; ",
"0 0 0 0 i i S 7 0 i i J i G $ 6 - } L $ G i 0 a i 7 i 0 0 0 0 & F a r r 6 & 5 0 * z 6 2 0 a 0 7 ; ] W ; v g a 0 a C g 0 7 a 7 + ",
"a a 7 , i a 0 i 7 5 a S r F $ 6 7 C < $ G 0 5 a a 0 7 a 6 u 6 $ S a u J i $ 6 7 & C * ..W a q 0 6 C a & v g 6 6 u 7 a a 5 6 7 + ",
"a a a 2 5 i r i k 2 5 r r F $ 6 7 i i & D 6 ; k 0 a a 5 ; 0 6 $ S a u J i & 5 i $ v g S g a a q i 0 0 - v a 2 a a r a 6 2 6 i + ",
"0 a U } & 7 7 g ` } $ 0 i J $ 6 i 6 6 $ S $ } ` g i 6 & } L 0 & S g a S a & 5 0 o v g i 7 7 7 i a 7 i & n > w _ m 0 i - w T v - ",
"0 7 i J 6 i 7 6 i D i i 6 D $ 6 i r u $ J r S i 6 6 i i S a r & S i 0 7 7 & 6 7 o m g i a i 0 0 0 i 7 & l g C g 7 0 i 6 S a 6 ; ",
"5 5 6 5 6 < 5 6 5 6 6 5 5 C o 6 i 7 6 $ C < 6 6 6 6 6 6 5 6 5 @ S i i 7 7 & 6 0 O l J K g 6 a a i 0 7 o 6 6 6 5 5 6 5 6 6 5 5 + ",
"o o & & % & & & & & & o & o   6 0 i 6   - % % * % & & $ : * * o C i i 0 i 7 u 0 % v a S a 0 7 i 7 7 a O o $ & & - $ % & & & +   ",
"a D S D D S i J G F G J J ` . 6 0 i 6   ) J J G D G F F C D S & S i < 7 a a 6 6 % C g r 7 0 & 5 a 7 7 o ~ E I D G g C D F Z G @ ",
"0 8 0 + 6 i i 6 0 ; 5 G r G $ a i 0 6 . D 5 ; r i i r 6 + 6 r $ D 7 O 5 a 5 1 6 $ n g u 0 7 & 5 0 a 0 $ m a : 6 6 u r 6 # 5 0 ; ",
"a a R O.$ 6 a i L } o r i F $ 6 i i 6 $ G o  .L i 0 0 ; O.U 0 $ C =  .U a & { U & v r a i 0 & 6 i r a = v @ e W g 0 7 ; | ! a ; ",
"0 a a C 0 i 0 7 6 F 0 r r F $ 6 i 0 6 $ G 6 J a 0 7 7 0 S 0 6 X 5 6 C 7 6 6 C 6 . m g a 0 6 & 5 a 6 0 = v g C a 0 a 0 0 F g a + ",
"6 0 i 6 6 a i a 0 a 7 7 i G $ 6 7 0 7 & F r 7 7 u 7 7 r 6 i u o o $ & & $ $ & o   v u a a & $ 5 0 * 5 = m g a i 0 i 0 i a i i + ",
"& 6 a a 7 G a 6 i 0 i 0 a D $ 0 7 7 6 $ G i 0 i 7 0 i 0 i 0 0 $ ) J F G u 6 C G O n u 6 u * 5 i 0 - 5 $ x g a i 7 i m g a 0 7 + ",
"& 6 0 6 i G 6 $ i 0 0 i 7 C   0 7 i 7 $ F 0 0 7 0 7 0 i 7 a 6 & F a 6 a a a 6 6 & v g q u 0 0 0 0 - 5 O , 7 i a & 5 C g 6 7 0 ; ",
"& 7 5 & 7 i < $ u F u 7 7 7   6 7 i i $ G i i i i i 0 7 7 7 0 $ C 6 : 6 a 5 1 6 & Z a a 7 0 i 7 7 & 5 O 5 7 S a - 5 r u - < 0 - ",
"$ $ 6 $ 6 0 , ; 7 6 0 i i D $ 6 i a r & S i a 0 7 0 i 7 0 i 7 $ G & { R a & X.W * n g a i 0 i 0 7 = 5 = 5 i a a & 6 a a ; 5 0 ; ",
"5 $ 0 $ 7 0 8 $ 0 7 7 i r G $ 0 i 0 r $ J i 7 i 0 i 0 i a 7 7 $ m a C i a 0 ) k o n g 6 0 a 7 7 7 = 5 & l g a 0 & 6 0 0 - 5 6 + ",
"6 & 6 $ 0 7 7 $ 0 7 0 0 i D   6 7 7 7 $ G i 7 0 i 7 0 0 0 0 7 $ a u i i i 7 0 6 o v g 0 i 7 0 i r 6 a O k i 7 6 % 6 a a - 5 a + ",
"6 $ 5 $ 0 7 6 7 7 i i a i F $ 0 0 i 6 $ F r 0 7 7 u 7 7 i 7 0 $ C 7 i i & 5 6 7 & C a 7 i 0 i 0 a 7 u = v g i 6 6 6 6 a - 5 a + ",
"0 6 & 0 i 6 $ 0 a r r F 6 R $ 6 a a 6 $ J r a 0 a 0 a i 7 0 0 $ S i 6 0 & $ 5 a & n g u q 0 i 0 7 7 a = l g i 7 i - , 6 u u 0 - ",
"7 5 $ 0 7 6 $ 0 a 6 r G 6 G $ 6 a a 6 $ S u 0 a 0 a 0 6 0 7 0 $ F g u 6 6 & 5 0 & v a u 6 0 i 0 & < i & l k 0 i a ; 6 0 i i 0 ; ",
"0 5 $ 6 6 6 $ 0 6 6 6 6 6 C X 7 6 q a   C a 6 6 6 a 6 6 6 0 6 X m 0 6 6 6 6 i 0 o v g 0 a $ 5 a - 5 i & C i 0 7 u - 5 a i 0 7 + ",
"$ & @ $ $ $ @ $ $ & $ $ $ .   X     @   . $ $ & $ $ $ $ $ $           $ $ $ $ .   v a a u & C J - 5 a o g g i i 6 ; 5 0 0 i 0 - ",
"6 6 & 5 a 6 $ 6 6 6 a 6 6 S   5 6 6 6 $ C a 0 6 6 6 6 a 6 6 0   C i 0 5 6 6 a 6 . n x a 7 & < F : 5 u o , 0 7 0 u & 5 a 6 6 6 - ",
"6 r 6 & i 0 $ 6 6 a a a i 6 $ 0 q 0 6 $ F r 0 0 a a 0 a 0 7 0 o C a a & 6 0 0 0 o n g u 0 7 6 i % 6 r = , i 0 i a & 6 6 - 6 u + ",
"& 0 6 $ 7 5 & i D r a I 0 6 $ 0 0 6 6 $ G i 7 i i 0 a 0 0 7 0 $ 6 6 a $ 6 a a 0 $ n g 6 7 r 0 a 0 7 6 & C k 0 S a - 6 6 ; 5 6 + ",
"$ i 5 $ 7 i 6 i J u 6 u 6 J $ 0 5 $ 7 $ G i 0 0 7 a 0 a 7 7 7 & J a a & 5 7 7 0 & C 6 & 6 u i i r & 5 - n g i S g a 0 0 - 5 a + ",
"$ 7 r 6 a 0 r i J u 7 7 7 F @ 0 $ +.U $ G a 0 a 0 i 7 7 0 i 0 $ F i a & 6 a a 0 ; m - [ R a a 0 * ..Q % n i i C d a i i 6 a a ; ",
"$ 7 0 7 i J 6 r a a i F r G   6 0 ' a @ G a 0 7 a 7 0 i i 0 0 $ S a 6 $ 5 i a 0 o 5 6 L a r u 6 6 _ m o x g i i q a C g i a a - ",
"# i 7 i i S i i 6 i r J r G   $ $ * $   G a i 0 0 i i 0 7 7 0 $ 6 0 a 6 0 $ 5 7 O   $ $ $ $ $ $ & $ .   g v 7 0 a 0 S k a a a - ",
"& 6 i 0 i G i i i i r r 6 F   C G C S $ G a 7 i i 0 7 7 0 i 7 $ 6 a a a 0 $ 7 0 . ^ I G G D D D D S I + 5 6 i 0 q a S k 0 a a ; ",
"& a a a g ) G i i 0 i G 6 r $ a a ; 6 $ G 6 a a a 0 i i 7 7 6 $ J r a a 0 & 7 7 $ C g 0 0 i a a i ; 5 = v g 0 i i C J g a 0 0 - ",
"6 i u i i i G i u 6 i G r F $ 6 $ } C $ F 0 u 0 7 0 7 0 0 i i $ F u r r 6 & 5 0 & v u $ 5 a 7 7 & ] Q - C g r i 0 D g a u 0 u + ",
"a 7 i 6 i i i i r u r F r F $ 6 6 R i $ D 6 0 7 a a i 6 7 i 0 & C i u J i $ < 7 & C * ..Q a a 0 6 C g ; v g a a a a a 0 7 i 6 + ",
"a 7 5 & a i i i 6 & 6 u r F $ 6 7 7 6 & J 7 $ 6 6 7 i 6 & 6 6 $ F r u C i $ 6 i & n u I k a 0 i a 7 0 ; v g - 5 6 i i 6 - , 0 + ",
"0 a L { $ 6 7 g ' { $ 0 i F $ 6 i 7 0 $ S & } ` i 0 7 $ { U i $ S i i D a $ 6 0 o v g i u 7 7 i 0 7 i & v > e _ v u 7 - e T 6 ; ",
"a 7 a R 6 u 7 i g L 6 r i G $ 0 i i 0 & S 6 I g i 7 7 6 R a i & S g a i 0 $ 5 6 O v a i 7 i 0 0 0 i 6 ; v u Z x a 6 a 6 S v a ; ",
"u 6 a a 6 u 6 u 0 7 0 6 7 F X 6 i i 6 $ G i r 6 6 6 a a a 6 a $ S i 7 i 0 ; 6 0 . v J G 0 i i 7 7 7 6 o u g 6 q u 6 6 6 a 7 a @ ",
"    $ & $ $ $ & $ $ $ . $ . . 6 i 6 6   $ $ $ $ & $ $ $ $ $ $   S i 6 0 7 0 a a & n g S g i 0 7 7 i i +   $ & $ & $ & $ $ @ O   ",
"6 C D D C D 6 F C J D S S )   0 i 7 6 $ ` J Z G F C F F F C C $ S g 7 a 0 0 r a & n g i i 0 & 6 0 i r o E E F F G a C J C D D @ ",
"i a 6 o 6 a a a i = i J i J $ 6 0 i 7 $ D 0 ; 6 a a g a o 6 i $ D i o 5 i i & 5 $ n g i 0 7 & < 7 i 6 & C g : 6 a 0 a a + , a ; ",
"i 0 U X.$ d q a U [ o i i F $ 6 i 0 6 $ F o { L a a a ; o.R a $ G = [ U a & [ R * C g 0 a 7 & 6 i i 0 = l @ w T a a a :  .! k - ",
"a a a R 6 6 a a i R 5 i i S $ 6 i 0 6 & G 5 R g a a 6 5 W a 7 $ 5 6 T a a 6 U a o C a a 6 6 & 6 0 i i & l a Z d a a 6 5 L v 0 @ ",
"i 7 7 0 7 0 i 0 0 i 7 0 i F $ 6 7 i 6 $ D i 7 i u 0 0 a i 7 0   . $ & & $ $ & .   v 6 a u ; @ 5 6 & 6 & C i i i 0 a i 0 i 0 i + ",
"& 0 i u i S r i a a i 0 i F $ 6 i 0 6 & D r u i 7 7 i 7 i 0 7 $ / G C J 6 6 m C O m g 6 6 & 6 6 r $ 6 ; m g 0 7 a 0 S 6 i i 7 + ",
"$ 7 7 i i J i ; 0 0 i a 7 F o 6 7 7 6 $ J i 0 0 7 0 0 i 0 i u $ F a g a 0 a u a $ n 0 u a 6 6 a 7 & , O , 0 i i - , S v 0 7 0 ; ",
"$ 0 6 % 0 i 5 $ i D r 7 7 r   6 i i r $ F i 7 i 0 7 7 i 0 7 6 $ C a & 6 u 0 - 5 $ C g a a 0 7 7 i $ 6 O , u C k - 6 a a : < 7 = ",
"@ - 7 $ 7 0 6 $ 0 7 7 0 7 C $ 6 0 i 7 $ G i 7 7 i i 7 a 7 a 0 $ C - [ U 0 $ ..W * C u a 0 i i 0 7 = 5 & 5 0 g 7 * , a a - 5 6 - ",
"5 & 5 $ 0 0 6 $ i u 0 0 7 G $ 6 i 0 7 $ G a 7 0 7 0 i 0 0 0 0 & G 6 R a u < ' m o v g u i 0 7 0 7 = 5 = x a 7 0 * 6 0 a - 6 6 @ ",
"6 & 6 $ 0 6 6 $ 0 0 0 6 u F   a 0 a 5   G 0 0 7 7 0 0 0 6 0 0 $ 7 7 a 0 0 7 k 7 o v a i 0 7 7 6 i < 0 O k g i 0 ; 5 u 6 ; 5 6 + ",
"O @ $ $ $ X O X & & & $ o * @ ; $ & $   O O o o o $ & $ O O X X X o $ & o X O X @ = ; o o o $ & & & = @ & & o o @ $ & & @ $ $ O "
};
