/* XPM */
static char *result[] = {
/* columns rows colors chars-per-pixel */
"64 64 216 2 ",
"   c #030606",
".  c #060807",
"X  c #080907",
"o  c #030709",
"O  c #05090B",
"+  c #0B0C0B",
"@  c #110F0B",
"#  c #0D110F",
"$  c #14110E",
"%  c #1A140E",
"&  c #070D11",
"*  c #090E11",
"=  c #0B1214",
"-  c #0C1518",
";  c #0F181A",
":  c #131413",
">  c #1B1611",
",  c #171814",
"<  c #1B1915",
"1  c #111619",
"2  c #131A1C",
"3  c #1C1C1D",
"4  c #231B14",
"5  c #291E15",
"6  c #261F19",
"7  c #2A2013",
"8  c #25221C",
"9  c #2B231B",
"0  c #332517",
"q  c #31241C",
"w  c #35291F",
"e  c #161D22",
"r  c #1D2423",
"t  c #1D2629",
"y  c #272928",
"u  c #342A21",
"i  c #3A2D23",
"p  c #3C3126",
"a  c #36312A",
"s  c #3D3229",
"d  c #272D31",
"f  c #293435",
"g  c #3A3936",
"h  c #40291C",
"j  c #6E351E",
"k  c #412E22",
"l  c #433325",
"z  c #483528",
"x  c #4B3B2C",
"c  c #543A2B",
"v  c #493E33",
"b  c #583F32",
"n  c #6C3B26",
"m  c #743D29",
"M  c #3C423F",
"N  c #4E402F",
"B  c #5A412D",
"V  c #4C453B",
"C  c #534233",
"Z  c #5C4433",
"A  c #584639",
"S  c #5D4B3D",
"D  c #72432C",
"F  c #7C4028",
"G  c #674734",
"H  c #634D3A",
"J  c #6B4C3B",
"K  c #794A36",
"L  c #744C3B",
"P  c #67523D",
"I  c #7C533C",
"U  c #7A583E",
"Y  c #3D3E40",
"T  c #3D4444",
"R  c #454949",
"E  c #574D48",
"W  c #5D5648",
"Q  c #575757",
"!  c #665645",
"~  c #6C5246",
"^  c #6B5544",
"/  c #7D5442",
"(  c #785B48",
")  c #7C5F4C",
"_  c #5A615B",
"`  c #75634F",
"'  c #7B624A",
"]  c #7A6958",
"[  c #565D60",
"{  c #5E6564",
"}  c #666768",
"|  c #6F7677",
" . c #757677",
".. c #814C35",
"X. c #87573D",
"o. c #844F40",
"O. c #865B48",
"+. c #8B5D51",
"@. c #866649",
"#. c #85644C",
"$. c #8A644D",
"%. c #85694D",
"&. c #916A4B",
"*. c #8E704F",
"=. c #8E6251",
"-. c #856955",
";. c #866857",
":. c #8B6C54",
">. c #8C6D5A",
",. c #936D55",
"<. c #956759",
"1. c #946C59",
"2. c #88725B",
"3. c #8E725B",
"4. c #927355",
"5. c #9A7152",
"6. c #93745B",
"7. c #9A745B",
"8. c #967B5D",
"9. c #997B5E",
"0. c #A1775D",
"q. c #9B6C63",
"w. c #8A7965",
"e. c #967461",
"r. c #9C7363",
"t. c #957C62",
"y. c #9A7D63",
"u. c #957B6B",
"i. c #9C7E6A",
"p. c #817D7E",
"a. c #A27D65",
"s. c #A57E6A",
"d. c #A77E73",
"f. c #9B805F",
"g. c #8E806F",
"h. c #9B8163",
"j. c #9C836B",
"k. c #9A866B",
"l. c #9A8673",
"z. c #9E8B75",
"x. c #9E8F79",
"c. c #A18365",
"v. c #A2856B",
"b. c #A9856C",
"n. c #A3896E",
"m. c #A98B6E",
"M. c #A28573",
"N. c #A98674",
"B. c #A48B73",
"V. c #AA8D74",
"C. c #A68C7B",
"Z. c #A98D7B",
"A. c #B0877A",
"S. c #A69075",
"D. c #AB9174",
"F. c #A4917B",
"G. c #AB937C",
"H. c #AE997E",
"J. c #B1947A",
"K. c #B1997E",
"L. c #7C8182",
"P. c #898B8B",
"I. c #8C8A8C",
"U. c #8F8F90",
"Y. c #959998",
"T. c #AB8D81",
"R. c #A69584",
"E. c #AD9483",
"W. c #AD9983",
"Q. c #AD9688",
"!. c #AE9B8B",
"~. c #B19683",
"^. c #B29B85",
"/. c #B29D8C",
"(. c #B29E90",
"). c #B5A18E",
"_. c #B3A292",
"`. c #B7A697",
"'. c #BAAB9D",
"]. c #A5A9A8",
"[. c #B3AEAA",
"{. c #BEB4A7",
"}. c #BBBBBA",
"|. c #C2ACA1",
" X c #C5B7AA",
".X c #C5B9AB",
"XX c #C8BEB5",
"oX c #CBC0B6",
"OX c #D1C3BA",
"+X c #D3C9BD",
"@X c #BFC4C1",
"#X c #C3C3C5",
"$X c #CCCCCB",
"%X c #D4CBC2",
"&X c #D0CDCD",
"*X c #C9D0CC",
"=X c #D2D1CF",
"-X c #D9D4CA",
";X c #D8D9D7",
":X c #E4D6D2",
">X c #E3DAD4",
",X c #E2DFDA",
"<X c #E5E1DD",
"1X c #E4E4E3",
"2X c #E8E6E4",
"3X c #ECE9E6",
"4X c #EBECEC",
"5X c #F1EEEB",
"6X c #EEF0EF",
"7X c #F1F0EE",
"8X c #EFF0F0",
"9X c #F5F4F3",
"0X c #F8F7F6",
"qX c #F9F8F7",
"wX c #F7F9F8",
"eX c #FFFFFFFF",
/* pixels */
"eXeXeXeXeXeXeXeXeXeXeXeXeXeXeXeXeXeXeXeXeXeXeXeXeXeXeXeXeXeXeXeXeXeXeXeXeXeXqXqXwXqXeXeXeXeXeXeXeXeXeXeXeXeXeXeXeXeXeXeXeXeXeXeX",
"eXeXeXeXeXeXeXeXeXeXeXeXeXeXeXeXeXeXeXeXeXeXeXeXeXeXeXeXeXeXqX8X1X;X=X=X&X&X$X}.XX;XqXeXeXeXeXeXeXeXeXeXeXeXeXeXeXeXeXeXeXeXeXeX",
"eXeXeXeXeXeXeXeXeXeXeXeXeXeXeXeXeXeXeXeXeXeXeXeXeXeXeXeXeX4X&X].p.} _ Q Q R g E Q I.@XeXeXeXeXeXeXeXeXeXeXeXeXeXeXeXeXeXeXeXeXeX",
"eXeXeXeXeXeXeXeXeXeXeXeXeXeXeXeXeXeXeXeXeXeXeXeXeXeXeX3X&X .E g 3 + X @ * o o o : * } =X9XeXeXeXeXeXeXeXeXeXeXeXeXeXeXeXeXeXeXeX",
"eXeXeXeXeXeXeXeXeXeXeXeXeXeXeXeXeXeXeXeXeXeXeXeXeX9X4X .g 1 . o o o o o X O o o o O - { ].@XwXeXeXeXeXeXeXeXeXeXeXeXeXeXeXeXeXeX",
"eXeXeXeXeXeXeXeXeXeXeXeXeXeXeXeXeXeXeXeXeXeXeXeXeX[.Q : o O . o o o o   O O o o o * * 1 d T ].9XeXeXeXeXeXeXeXeXeXeXeXeXeXeXeXeX",
"eXeXeXeXeXeXeXeXeXeXeXeXeXeXeXeXeXeXeXeXeXeXeXwXP.Y o o o o o o       o   o o o o * + 1 1 e Q ].1XeXeXeXeXeXeXeXeXeXeXeXeXeXeXeX",
"eXeXeXeXeXeXeXeXeXeXeXeXeXeXeXeXeXeXeXeXeXeX,XI.1 & o   . o o o         o     o o o O * 1 2 y { Y.;XeXeXeXeXeXeXeXeXeXeXeXeXeXeX",
"eXeXeXeXeXeXeXeXeXeXeXeXeXeXeXeXeXeXeXeXeX=XP.- + O o o O .       o           . o o o O & & & d Y Y.$X,X3XeXeXeXeXeXeXeXeXeXeXeX",
"eXeXeXeXeXeXeXeXeXeXeXeXeXeXeXeXeXeXeXeX1XQ y + O o o O O                     . o o o . o o O * e Y | I.Y.;XeXeXeXeXeXeXeXeXeXeX",
"eXeXeXeXeXeXeXeXeXeXeXeXeXeXeXeXeXeXeXwX} e O O O O . O . o                         o o o   o O & - t d d P.wXeXeXeXeXeXeXeXeXeX",
"eXeXeXeXeXeXeXeXeXeXeXeXeXeXeXeXeXeXqXU.r O O O O O O O o                               o o o o & & & * - d *XwXeXeXeXeXeXeXeXeX",
"eXeXeXeXeXeXeXeXeXeXeXeXeXeXeXeXeXeX#X3 # + O O O * O X o o                                 o o o O & O & ; P.eXeXeXeXeXeXeXeXeX",
"eXeXeXeXeXeXeXeXeXeXeXeXeXeXeXeXeX9X .8 # + O + O O X o X X + + . . o o                         o o o O & & [ 1XeXeXeXeXeXeXeXeX",
"eXeXeXeXeXeXeXeXeXeXeXeXeXeXeXeXeX}.Q # # + + + + X # # $ % 4 < @ X . o                           o o o O - d Y.qXeXeXeXeXeXeXeX",
"eXeXeXeXeXeXeXeXeXeXeXeXeXeXeXeX2XP.= , , # : : # # 8 w w 9 u 4 @ X . .                           o o o O = t | 1XeXeXeXeXeXeXeX",
"eXeXeXeXeXeXeXeXeXeXeXeXeXeXeXeX2XR : : < < p 8 , 4 i x u u q , @ @ X                               o   O O ; Y Y.8XeXeXeXeXeXeX",
"eXeXeXeXeXeXeXeXeXeXeXeXeXeXeXeXY.y , y v W ` S q 9 z x a u 4 4 % % @                               o   o o & = { }.9XeXeXeXeXeX",
"eXeXeXeXeXeXeXeXeXeXeXeXeXeXeX1X .$ y W w.n.k.` N i i w 9 8 8 7 4 4 4 + X X o                     o     o o o & t | 4XeXeXeXeXeX",
"eXeXeXeXeXeXeXeXeXeXeXeXeXeXeX3Xg 9 ! x.H.z.3.-.S p 8 u p w w w 5 5 4 @ @ +                     o     o o o O & ; R ;XwXeXeXeXeX",
"eXeXeXeXeXeXeXeXeXeXeXeXeXeX9XI.y V x.W.R.x.g.2.` V a a v V l a 5 5 5 4 > @ + +   X     X               o o & & - t Y.eXeXeXeXeX",
"eXeXeXeXeXeXeXeXeXeXeXeXeX:X`.A M g.Q./.^.W.G.F.x.l._ V g V ] ! ~ c z i q : 4 : . X .     X       o     o   o o O 2 U.wXeXeXeXeX",
"eXeXeXeXeXeXeXeXeXeXeXeX:XA.+.S ] W./.^././.W.W.^.!.Q.g.] E ] l.u.( c z k q 6 : < @ X . X X .           o o   o O - U.eXeXeXeXeX",
"eXeXeXeXeXeXeXeXeXeXeX9Xd.d.>.] W.).^.^.G.B.h.j.F.^.W.F.z.w.g.R.Q.;.G b c k 4 > @ @ X @ % @ .     o o o o o o o O ; P.wXeXeXeXeX",
"eXeXeXeXeXeXeXeXeXeXqX|.M.N.u.Q.!.).W.K.v.@.c b Z 2.c.c.m.D.S.W.(.C.u.-.J k 4 % @ @ % 4 4 @             o o o o O * L.6XeXeXeXeX",
"eXeXeXeXeXeXeXeXeX9XOXT.E.E.Q.(.(.!.).H.D.h.t.! i w G 4.f.D.J.^.).(.Q.j.] z 5 % % 4 7 7 4 X X       o o o o o o O ; } wXeXeXeXeX",
"eXeXeXeXeXeXeXeXeX<XT.~.G.!._._.).!.W.^.W.H.V.v.^ 7 h ( 0.m.J.)./.^.E.E.u.^ k k i p 0 5 % X X         o o o O & - e | 6XeXeXeXeX",
"eXeXeXeXeXeXeXeXeXXX~.T.G.!.(.(.(.).W.).^.E.V.7.&.K z J 5.m.K.^.H.V.V.n.3.~ s i P Z l 4 @ @ X X         o o O & - t | 6XeXeXeXeX",
"eXeXeXeXeXeXeXeX9X XN.E.Q./.(.(.(.(._.(.!.^.Z.c.$.X.I @.8.D.^.^.H.b.v.h.t.` v 9 8 C x 5 % @ .           o O O & - d | 6XeXeXeXeX",
"eXeXeXeXeXeXeXeX8X'.A.T./.(._.(._._._._._.W.^.G.n.4.,.9.m.^.).^.D.b.c.v.B.z.3.E a < a a 4 +   .         o O O O & f ].wXeXeXeXeX",
"eXeXeXeXeXeXeXeX9X XT.T.(._._._._._._._.(.W.W.E.G.Z.V.G.K.^.).J.c.0.c.V.^.^.E.n.( N p p l 6 > + o o     o O & & ; T @XeXeXeXeXeX",
"eXeXeXeXeXeXeXeXqXXXQ.!.(.!._.(._._.'._.(.!.^./././.^.^.).K.J.b.5.8.9.y.v.^.H.V.h.-.H v x c z > o     o o O & & e | ;XeXeXeXeXeX",
"eXeXeXeXeXeXeXeXwX*X(./.(.).).)._._.`.(./././.(.(./././.^.J.b.5.&.8.>.Z H A w.a.c.7.*.P N S C 7 $ X o + O O & & t Y.6XeXeXeXeXeX",
"eXeXeXeXeXeXeXeXeX<X'._./.!.W.^./.^.Q.E.A.T.Q.(.).(.(./.~.m.0.&.&.9.e.-.b 9 > J 9.8.,.@.P H P Z u < + * * o & ; _ ;XwXeXeXeXeXeX",
"eXeXeXeXeXeXeXeXeX7X{./.^.^.K.D.V.B.M.v.N.V.E.!.(.(.(./.J.s.1.,.9.n.j.8.i.E u q H 8.4.*.' ' ' ' S a , - + O ; f @XwXeXeXeXeXeXeX",
"eXeXeXeXeXeXeXeXeX7X{.).^.H.D.D.B.c.c.V.Z.T.!././.(./.J.b.0.7.7.n.D.F.j.7.r.) z B %.4.*.*.%.*.-.P 9 , # * - f ].6XeXeXeXeXeXeXeX",
"eXeXeXeXeXeXeXeXeXqX|.).^.K.G.V.V.B.H.Q./.E.T.Q.).).~.A.a.,.,.v.H.K.^.K.V.9.7.O.B U *.*.4.4.*.-.A 8 # # # T ].wXeXeXeXeXeXeXeXeX",
"eXeXeXeXeXeXeXeXeX7X.XH.H.H.D.B.V.E./././.M.q.j.~./.J.d.a.,.1.V.^.).^.K.^.D.h.4.%.%.*.f.6.4.3.( p : : # M Y.eXeXeXeXeXeXeXeXeXeX",
"eXeXeXeXeXeXeXeXeX3X).).E.G.m.v.v.C.!.(.(.Q.M.v.N.A.A.b.a.1.1.W.`._.).).^.H.m.f.8.4.8.8.8.8.:.S 8 # = M ].6XeXeXeXeXeXeXeXeXeXeX",
"eXeXeXeXeXeXeXeXeX>X).H.H.G.n.y.#.t.E././.(./.Z.0.7.1.7.a.4.,.E.`.`._.).K.J.m.c.f.f.f.h.f.8.` a , r R *X6XeXeXeXeXeXeXeXeXeXeXeX",
"eXeXeXeXeXeXeXeXeX+XK.H.H.F.G.l.) w >.M.E.(.(.T.s.O.G n -.+.O.B._.`.`./.K.D.m.c.9.f.f.f.h.8.S 8 < _ }.eXeXeXeXeXeXeXeXeXeXeXeXeX",
"eXeXeXeXeXeXeXeXqXoXn.G.W.Q.Q.Q.>.J O.1.<.M.E.E.Z.y.( L / K J n./.).(.^.K.m.b.c.f.f.f.h.k.2.a x B 2.&XeXeXeXeXeXeXeXeXeXeXeXeXeX",
"eXeXeXeXeXeXeXeXeX.XB.S.Q.Q.Q.Q.T.;.l.i.<.1.7.N.B.M.y.>.:.#.>.B.^.(.^.K.J.b.c.y.f.f.h.k.z.P G I ..@.-XqXeXeXeXeXeXeXeXeXeXeXeXeX",
"eXeXeXeXeXeXeXeX0X.XG.H.Q././.!.Q.q.+.M.C.r.+.o.1.s.i.y.y.i.z.D.^.^.K.J.D.b.y.y.t.f.k.x.-.J I X.j h.,XeXeXeXeXeXeXeXeXeXeXeXeXeX",
"eXeXeXeXeXeXeXeXeX XH.E.!.!.Q.!.Q.d.q.<.s.E.8.>.K $.y.u.h.k.n.D.J.J.J.D.b.c.t.8.8.k.z.k.~ D X.F ..'.eXeXeXeXeXeXeXeXeXeXeXeXeXeX",
"eXeXeXeXeXeXeXeXqX+XW.!.(.!.(.(.(.T.d.q.+.#.B.y.>.O./ >.t.h.k.m.m.J.m.m.c.9.8.8.h.k.C.;.m D ..m M.<XeXeXeXeXeXeXeXeXeXeXeXeXeXeX",
"eXeXeXeXeXeXeXeXeX-X!.Q.Q.!.!.!.(.Q.d.q.q.o.K :.-.-.J c ' h.h.m.m.m.b.c.9.9.8.h.k.x.t./ j n n i.+XeXeXeXeXeXeXeXeXeXeXeXeXeXeXeX",
"eXeXeXeXeXeXeXeXeX,X).R.!.(./.!.(.Q.Z.d.q.<.+./ / J G x ! 8.n.D.D.b.c.9.9.9.t.k.z.k.+.n n n 1.XXeXeXeXeXeXeXeXeXeXeXeXeXeXeXeXeX",
"eXeXeXeXeXeXeXeXeX9X'.^.!.!.!.Q.!.!.Q.C.M.r.7.=.+.+.-.w.k.S.H.H.m.c.h.8.8.t.k.z.z.>.K D D #.{.9XeXeXeXeXeXeXeXeXeXeXeXeXeXeXeXeX",
"eXeXeXeXeXeXeXeXeXeX.XS.G.!.!.!.!.!.!.R.C.C.M.j.i.u.k.B.D.D.H.m.v.h.t.8.h.h.z.R.e.o.U O.u.oX3XeXeXeXeXeXeXeXeXeXeXeXeXeXeXeXeXeX",
"eXeXeXeXeXeXeXeXeXqX-XD.F.R.(.!.Q./.Q.E.Z.Z.C.B.n.n.B.B.D.D.D.v.h.y.h.h.k.z.R.R.C.i.`.%X;X9XeXeXeXeXeXeXeXeXeXeXeXeXeXeXeXeXeXeX",
"eXeXeXeXeXeXeXeXeXeX0X'.k.S.H.!.Q.R.T.C.C.Z.B.B.z.z.n.n.S.D.v.h.9.h.h.k.x.!..X;X>X3X9XqXeXeXeXeXeXeXeXeXeXeXeXeXeXeXeXeXeXeXeXeX",
"eXeXeXeXeXeXeXeXeXeXeX%XS.h.n.F.G.C.C.B.B.M.n.v.j.j.j.B.n.c.h.t.h.h.k.F.'.+XwXeXeXeXeXeXeXeXeXeXeXeXeXeXeXeXeXeXeXeXeXeXeXeXeXeX",
"eXeXeXeXeXeXeXeXeXeXeXeX.X8.8.h.l.M.l.v.j.c.j.h.j.h.h.y.9.8.8.8.h.k.(.{.7XqXeXeXeXeXeXeXeXeXeXeXeXeXeXeXeXeXeXeXeXeXeXeXeXeXeXeX",
"eXeXeXeXeXeXeXeXeXeXeXeXqXOX8.,.8.t.i.t.y.9.y.y.9.9.8.6.6.6.8.k.F._.,X6XeXeXeXeXeXeXeXeXeXeXeXeXeXeXeXeXeXeXeXeXeXeXeXeXeXeXeXeX",
"eXeXeXeXeXeXeXeXeXeXeXeXeX5XOXl.:.:.3.6.>.6.6.6.6.6.>.6.3.8.l.!.;X4XeXeXeXeXeXeXeXeXeXeXeXeXeXeXeXeXeXeXeXeXeXeXeXeXeXeXeXeXeXeX",
"eXeXeXeXeXeXeXeXeXeXeXeXeXeX5XoXC.#.$.:.:.:.:.:.>.>.3.e.h.l.oX2XeXeXeXeXeXeXeXeXeXeXeXeXeXeXeXeXeXeXeXeXeXeXeXeXeXeXeXeXeXeXeXeX",
"eXeXeXeXeXeXeXeXeXeXeXeXeXeXeXqXOXE.3.@.#.-.:.:.:.6.y.j..X>XqXeXeXeXeXeXeXeXeXeXeXeXeXeXeXeXeXeXeXeXeXeXeXeXeXeXeXeXeXeXeXeXeXeX",
"eXeXeXeXeXeXeXeXeXeXeXeXeXeXeXeXeX>XXX/.M.B.Q.Z.).|.%X<XqXeXeXeXeXeXeXeXeXeXeXeXeXeXeXeXeXeXeXeXeXeXeXeXeXeXeXeXeXeXeXeXeXeXeXeX",
"eXeXeXeXeXeXeXeXeXeXeXeXeXeXeXeXeXeXqXqX3X0X5X0X9XwXeXeXeXeXeXeXeXeXeXeXeXeXeXeXeXeXeXeXeXeXeXeXeXeXeXeXeXeXeXeXeXeXeXeXeXeXeXeX",
"eXeXeXeXeXeXeXeXeXeXeXeXeXeXeXeXeXeXeXeXeXeXeXeXeXeXeXeXeXeXeXeXeXeXeXeXeXeXeXeXeXeXeXeXeXeXeXeXeXeXeXeXeXeXeXeXeXeXeXeXeXeXeXeX",
"eXeXeXeXeXeXeXeXeXeXeXeXeXeXeXeXeXeXeXeXeXeXeXeXeXeXeXeXeXeXeXeXeXeXeXeXeXeXeXeXeXeXeXeXeXeXeXeXeXeXeXeXeXeXeXeXeXeXeXeXeXeXeXeX",
"eXeXeXeXeXeXeXeXeXeXeXeXeXeXeXeXeXeXeXeXeXeXeXeXeXeXeXeXeXeXeXeXeXeXeXeXeXeXeXeXeXeXeXeXeXeXeXeXeXeXeXeXeXeXeXeXeXeXeXeXeXeXeXeX",
"eXeXeXeXeXeXeXeXeXeXeXeXeXeXeXeXeXeXeXeXeXeXeXeXeXeXeXeXeXeXeXeXeXeXeXeXeXeXeXeXeXeXeXeXeXeXeXeXeXeXeXeXeXeXeXeXeXeXeXeXeXeXeXeX"
};
