/* XPM */
static char *result[] = {
/* columns rows colors chars-per-pixel */
"64 64 220 2 ",
"   c #030506",
".  c #060807",
"X  c #030708",
"o  c #05090B",
"O  c #0A0C0B",
"+  c #110E0B",
"@  c #0D110E",
"#  c #14110D",
"$  c #19120C",
"%  c #070D11",
"&  c #090F12",
"*  c #0B1114",
"=  c #0E1619",
"-  c #0E191D",
";  c #131513",
":  c #1B1611",
">  c #1B1A15",
",  c #151B1D",
"<  c #191B1D",
"1  c #241C13",
"2  c #2A1E15",
"3  c #261F18",
"4  c #2B2016",
"5  c #25231C",
"6  c #2C231B",
"7  c #32271D",
"8  c #36281C",
"9  c #211F22",
"0  c #1C2528",
"q  c #262728",
"w  c #242C2E",
"e  c #342C23",
"r  c #3A2D24",
"t  c #3D3226",
"y  c #35332B",
"u  c #3D342A",
"i  c #272C32",
"p  c #2C3433",
"a  c #2B3637",
"s  c #393433",
"d  c #32393C",
"f  c #3A3B3C",
"g  c #6D321C",
"h  c #423226",
"j  c #43352A",
"k  c #483629",
"l  c #4C3B2C",
"z  c #553827",
"x  c #523B2C",
"c  c #463D35",
"v  c #533D32",
"b  c #6C3A25",
"n  c #763C26",
"m  c #4C4337",
"M  c #594535",
"N  c #584637",
"B  c #55493B",
"V  c #58503F",
"C  c #6E422C",
"Z  c #74422C",
"A  c #634534",
"S  c #694633",
"D  c #684C38",
"F  c #774C38",
"G  c #66513D",
"H  c #79543B",
"J  c #393F43",
"K  c #3A4445",
"L  c #4A494A",
"P  c #524D48",
"I  c #535252",
"U  c #515451",
"Y  c #595A5C",
"T  c #614E41",
"R  c #6A5747",
"E  c #7C5542",
"W  c #785B47",
"Q  c #735D4A",
"!  c #5F665E",
"~  c #796047",
"^  c #7D624A",
"/  c #6B6253",
"(  c #7B6151",
")  c #796957",
"_  c #5B6466",
"`  c #6A6767",
"'  c #6C706D",
"]  c #6E7676",
"[  c #767979",
"{  c #814B34",
"}  c #83543B",
"|  c #825245",
" . c #825C44",
".. c #855E4C",
"X. c #8B5D4C",
"o. c #85654A",
"O. c #85634D",
"+. c #8A654D",
"@. c #8A6B4D",
"#. c #92694B",
"$. c #846652",
"%. c #8C6451",
"&. c #846956",
"*. c #8B6C53",
"=. c #8D6E59",
"-. c #936B54",
";. c #946658",
":. c #936C5B",
">. c #8F7156",
",. c #86735D",
"<. c #8E725B",
"1. c #927355",
"2. c #9B7557",
"3. c #93745B",
"4. c #99735C",
"5. c #957A5D",
"6. c #997C5E",
"7. c #A4785B",
"8. c #9C6C62",
"9. c #887664",
"0. c #947560",
"q. c #967C62",
"w. c #9A7D63",
"e. c #9A7A67",
"r. c #9A7D69",
"t. c #827F7D",
"y. c #A27D63",
"u. c #A2766A",
"i. c #A47D73",
"p. c #9B805F",
"a. c #8F816F",
"s. c #9B8164",
"d. c #968369",
"f. c #9D836A",
"g. c #9A886E",
"h. c #998674",
"j. c #9D8B74",
"k. c #9F907A",
"l. c #A28366",
"z. c #A3856B",
"x. c #AA856B",
"c. c #A3886D",
"v. c #AA8C6E",
"b. c #A48473",
"n. c #A58B73",
"m. c #A98C73",
"M. c #A08379",
"N. c #A48D7A",
"B. c #AB8E7B",
"V. c #B18F77",
"C. c #A69176",
"Z. c #AB9174",
"A. c #A5917B",
"S. c #AB937C",
"D. c #AE987D",
"F. c #B1967B",
"G. c #B2987E",
"H. c #837F80",
"J. c #7F8385",
"K. c #868989",
"L. c #8B938F",
"P. c #8E9392",
"I. c #959796",
"U. c #9B9B9B",
"Y. c #AC8E81",
"T. c #A59481",
"R. c #AC9483",
"E. c #A79985",
"W. c #AE9984",
"Q. c #AE9789",
"!. c #AE9B8B",
"~. c #B19585",
"^. c #B29B84",
"/. c #B29D8C",
"(. c #BD998F",
"). c #A09E9D",
"_. c #B29E90",
"`. c #B4A18E",
"'. c #B3A292",
"]. c #B8A99A",
"[. c #9DA2A3",
"{. c #A5A8A7",
"}. c #BCAEA3",
"|. c #BEB3A5",
" X c #B6B6B4",
".X c #C7ABA4",
"XX c #C4B5A5",
"oX c #C6B6AC",
"OX c #C4B9AD",
"+X c #C7BCB6",
"@X c #CBC1B4",
"#X c #CFC4BF",
"$X c #D2C6BB",
"%X c #D0C9BE",
"&X c #BEC3C2",
"*X c #C9C7C4",
"=X c #D3CBC3",
"-X c #DCD4CE",
";X c #CFD2D0",
":X c #D4D4D3",
">X c #DCD8D3",
",X c #DADBDB",
"<X c #E5D7D3",
"1X c #E2DAD4",
"2X c #E3DFDA",
"3X c #E8E2DB",
"4X c #E0DFE0",
"5X c #DEE1E0",
"6X c #E4E4E4",
"7X c #EAE7E3",
"8X c #ECE9E6",
"9X c #E7E9E9",
"0X c #ECECEA",
"qX c #F0EFEC",
"wX c #F4F1EE",
"eX c #F5F4F3",
"rX c #F8F7F5",
"tX c #F9F8F7",
"yX c #F7F8F8",
"uX c #FFFFFFFF",
/* pixels */
"uXuXuXuXuXuXuXuXuXuXuXuXuXuXuXuXuXuXuXuXuXuXuXuXuXuXuXuXuXuXuXuXuXuXuXuXuXuXuXuXuXuXuXuXuXuXuXuXuXuXuXuXuXuXuXuXuXuXuXuXuXuXuXuX",
"uXuXuXuXuXuXuXuXuXuXuXuXuXuXuXuXuXuXuXuXuXuXuXuXuXuXuXuXuXuXuXuXuXuXuXuXuXuXuXuXuXuXuXuXuXuXuXuXuXuXuXuXuXuXuXuXuXuXuXuXuXuXuXuX",
"uXuXuXuXuXuXuXuXuXuXuXuXuXuXuXuXuXuXuXuXuXuXuXuXuXuXuXuXuXuXuXuXuXuXuXuXuXuXuXuXuXuXuXuXuXuXuXuXuXuXuXuXuXuXuXuXuXuXuXuXuXuXuXuX",
"uXuXuXuXuXuXuXuXuXuXuXuXuXuXuXuXuXuXuXuXuXuXuXuXuXuXuXuXuXuXuXuXuXuXuXuXuXuXuXuXuXuXuXuXuXuXuXuXuXuXuXuXuXuXuXuXuXuXuXuXuXuXuXuX",
"uXuXuXuXuXuXuXuXuXuXuXuXuXuXuXuXuXuXuXuXuXuXuXuXuXuXuXuXuXuXuXuXuXuXuXuXuXuXuXuXuXuXuXuXuXuXuXuXuXuXuXuXuXuXuXuXuXuXuXuXuXuXuXuX",
"uXuXuXuXuXuXuXuXuXuXuXuXuXuXuXuXuXuXuXuXuXuXuXuXuXuXuXuXuXuXuXuXuXuXuXuXuXuXuXuXuXuXuXuXuXuXuXuXuXuXuXuXuXuXuXuXuXuXuXuXuXuXuXuX",
"uXuXuXuXuXuXuXuXuXuXuXuXuXuXuXuXuXuXuXuXuXuXuXuXuXuXuXuXuXuXuXuXuXuXuXuXuXuXuXuXuXuXuXuXuXuXuXuXuXuXuXuXuXuXuXuXuXuXuXuXuXuXuXuX",
"uXuXuXuXuXuXuXuXuXuXuXuXuXuXuXuXuXuXuXuXuXuXuXuXuXuXuXuXuXuXuXuXuXuXuXuXuXuXuXuXuXuXuXuXuXuXuXuXuXuXuXuXuXuXuXuXuXuXuXuXuXuXuXuX",
"uXuXuXuXuXuXuXuXuXuXuXuXuXuXuXuXuXuXuXuXuXuXuXuXuXuXuXuXuXuXuXuXuXuXuXuXuXuXuXuXuXuXuXuXuXuXuXuXuXuXuXuXuXuXuXuXuXuXuXuXuXuXuXuX",
"uXuXuXuXuXuXuXuXuXuXuXuXuXuXuXuXuXuXuXuXuXuXuXuXuXuXuXtXtXuXtXtXuXuXuXuXuXuXuXuXuXuXuXuXuXuXuXuXuXuXuXuXuXuXuXuXuXuXuXuXuXuXuXuX",
"uXuXuXuXuXuXuXuXuXuXuXuXuXuXuXuXuXuXuXuXuXuXuXuXtXtX8X-X#XoX+X<XrXuXuXuXuXuXuXuXuXuXuXuXuXuXuXuXuXuXuXuXuXuXuXuXuXuXuXuXuXuXuXuX",
"uXuXuXuXuXuXuXuXuXuXuXuXuXuXuXuXuXuXuXuXuXuXuXtX7X=X}.Q.b.B.Y.Y.~..X<XuXuXuXuXuXuXuXuXuXuXuXuXuXuXuXuXuXuXuXuXuXuXuXuXuXuXuXuXuX",
"uXuXuXuXuXuXuXuXuXuXuXuXuXuXuXuXuXuXuXuXuXuXyX-X}.Q.Y.B.S.S.R.~.Y.i.u.(.<XtXuXuXuXuXuXuXuXuXuXuXuXuXuXuXuXuXuXuXuXuXuXuXuXuXuXuX",
"uXuXuXuXuXuXuXuXuXuXuXuXuXuXuXuXuXrXrXrX7X>XOX]._._.Q.Q.W.E.R.S.R.b.u.;.M.=XeX>X:XeX4X4XeXuXuXuXuXuXuXuXuXuXuXuXuXuXuXuXuXuXuXuX",
"uXuXuXuXuXuXuXuXuXuXuXuXuXuX8X3X@X$XXXXX].'.'.'._.'./._._._._._./.N.) P M c p I I c Y ' t.K.{.4XtXuXuXuXuXuXuXuXuXuXuXuXuXuXuXuX",
"uXuXuXuXuXuXuXuXuXuXuXeX1X@X].C.C.D.D.D.`.^.^.^.!.`.!.'._._._.'._./.!.h./ m y q : ; < ; ; q < < Y {.9XuXuXuXuXuXuXuXuXuXuXuXuXuX",
"uXuXuXuXuXuXuXuXuXtX2XXX`.W.A.C.C.W.W.W.D.D.^.D.^.^.`.'.'.'._._._./././.W.E.a./ m 6 > ; ; @ @ O < 0 Y  X6XuXuXuXuXuXuXuXuXuXuXuX",
"uXuXuXuXuXuXuXuXwX@X`.W.W.W.W.R.R.W.S.S.D.D.D.D.D.^.!.'.'.'._._./.`.W.^.!.!.W.T.g.U e ; @ @ o o X o o d H.4XuXuXuXuXuXuXuXuXuXuX",
"uXuXuXuXuXuXtX1XXXW.R.!.!.!.!.!.W.R.N.n.v.m.Z.Z.S.R._._.'.'._._.!.`.~.^.^./.W.W.D.a.V 5 @ @ O o o o o O & i P.,XuXuXuXuXuXuXuXuX",
"uXuXuXuXuXuX2XD.C.T.!.!.!.!.!.!.Q.W.B.z.s.n.m.m.c.S.'.].].'.'.!.W.W.D.Z.S./.!.A.g.g.) m 5 @ O O o X o o % O q [ 4XuXuXuXuXuXuXuX",
"uXuXuXuXuX7X'.f.A.!.!.!._.!.!.!.Q.Q.b.-.w.m.A.n.z.m.!.].'.'.'./.`.^.D.1.s.~.W.j.,.<.) m > @ @ o o o   X X   o O L &XeXuXuXuXuXuX",
"uXuXuXuXtXXXf.c.W.!.!.!.!.!._._.Q.Y.Q z q.R.W.S.z.b.B./.'.'././.W.D.Z.$.S S.^.A.,.~ N 7 > @ . . O % o   X       . L *XtXuXuXuXuX",
"uXuXuXuX8Xs.p.C.Q.!.Q.!._.!._.Y.i.&.R M B.!./.!.B.z.m.Q._./.^./.~.Z.v.~ x f.^.k.) V u 4 5 > # o o o o o o o o   . ; ! :XtXuXuXuX",
"uXuXuXwX+X>.s.A.!.!.!.!.!._.Y.i.;.e.=.=.Y._././.R.m.b.W.~./.~.W.m.w.f.B m d.^.D./ u 8 u k t 6 O     o   o o X o X X 9 K.:XtXuXuX",
"uXuXuX1XS.=.s.N.Q.!.!.!.Q.R.i.u.X.N.:.8.~._./.R.R.~.Y.Q._./.~.S.r.#.:.6 h Z.`.W.P e 3 r k j e : .               X X X s ).8XuXuX",
"uXuXuXoX3.3.f.N.N.Q.!.!.Y.i.u.8.8.N.%.8././.Q.;.b.Q.Q./.(./.~.m.3.} D 4 x c.W.k.L e r 6 r e 6 1 +               X X X ; Y :XuXuX",
"uXuX8XW.*.<.r.N.M.R.!.R.N.u.8.;.b.n.:.u././.Y.e.b._.Q._._._./.m.-.} z k H p.n.a.P u c 6 5 e 8 7 : O       X     X X X . f {.wXuX",
"uXuX=Xf.+.<.q.c.n.N.R.N.M.;.8.F m.:.%.b.R.R.B.m.R._./.(./././.S.3.o.A } 2.p.C.9.P B j 7 2 > 1 5 : +             X X X . 3 H.4XuX",
"uXuX$X:.+.<.q.r.b.m.B.B.b.:.X.E C.=.| B.~.z.2.m.~._./._.(./.`.G.C.p.1.2.s.v.C.a.Y ) r r 2 1 + + + O .           X X . X X I :XtX",
"uXuX1XO.$.*.3.q.f.n.N.B.b.:.| %.q.O.X.b.n.:.X.i.V.~.~././.`.(.^.D.Z.v.v.Z.Z.C.h.r.,.j 6 3 1 $ O . .             X . X X o 9 I.wX",
"uXuX-Xe.@.*.3.e.s.z.n.n.j.:.E W <.E :.z.e.E F 0.b.x.m.m.F.~.G.^.`.`.G.`.`.W.W.W.T.9.l 2 3 1 + O . .               X X X X & ` >X",
"uXuXeXS.*.*.=.q.s.c.z.n.f.0.| E *.F r.f.0.F S 0.x.y.u.y.y.x.x.V.G.`.`.`.D.^._._.i.&.v 3 1 1 + . . .   .             X X X o I  X",
"uXuXuX$X@.=.=.3.s.f.f.c.g.q.o.A D W e.e.3.E ..7.w.:.#.-.2.2.2.7.x.v.F.S.F.^./.S.$.k x 6 $ O .                       o X o . f  X",
"uXuXuX2Xb.=.>.3.w.s.g.c.n.j.5.N z o.q.r.0. .F +.-.%.4.5.-.-.#.#.2.p.v.v.v.S.Q.N.Q z h e $ + .     .             o o o o o o L *X",
"uXuXuXeX].3.=.=.3.s.g.c.n.C.C.,.N 0.q.f.r.^ D +.w.m.S.m.z.w.5.-.2.2.l.l.z.m.W.e.W z h 3 ; O . .                   X o O & & K.6X",
"uXuXuXuX-Xr.3.<.:.q.f.c.v.C.Z.c.<.e.f.c.n.f.e.m._.'.`.^.S.m.f.5.2.6.z.l.l.r.h.&.v z e : O . . X                   o o % ; p ;XuX",
"uXuXuXuXrX@Xf.3.>.3.5.c.C.Z.Z.D.C.c.c.v.Z.F.^.`.].].'./.D.S.e.9.D q.W.m.e.&.( N 8 2 2 3 : .                       o % * , I :XuX",
"uXuXuXuXuXrXoXj.3.3.5.w.l.v.Z.D.Z.Z.v.v.F.`.`.`.(.'.`.^.W.n.5.&.v *.^.W.q.B M r 2 : : ; +                         o * , < I :XuX",
"uXuXuXuXuXuX7X}.q.q.5.q.s.f.f.v.Z.v.v.Z.F.G.^.`.`.`.`.^.D.l.s.T r ( ^.W.,.j e r $ + + : + .                       o * , i [ yXuX",
"uXuXuXuXuXuXuXrX XA.q.5.s.6.s.s.l.c.c.v.Z.F.F.`.(.^.`.^.~.6.e.j 1 ,.S.m.R q u l 1 $ O + O .                       X o 0 Y  XtXuX",
"uXuXuXuXuXuXuXuXeX=XW.d.s.s.q.s.p.l.s.z.v.Z.V.F.F.F.D.F.v.6.@.r 2 w.x.z.B > B M 8 1 $ . . .             X X X X X o % J K.4XuXuX",
"uXuXuXuXuXuXuXuXuXeX%XA.g.d.p.p.6.p.w.s.l.v.v.v.v.Z.v.v.l.1.D h M y.s.*.l 5 N l 4 2 1 # .   .           X X X X o o = J {.uXuXuX",
"uXuXuXuXuXuXuXuXuXuXuX>X'.j.d.s.p.p.5.6.w.w.l.y.l.l.g.p.6.@.z D *.6.5.W l y h 6 1 1 1 1 + .         X X     X X o % w ] ;XuXuXuX",
"uXuXuXuXuXuXuXuXuXuXuXtX-X].A.k.d.5.5.5.6.5.6.w.p.p.p.p.2.@.H @.1.1.*.G h h 4 $ # # $ # O .         X       X X % & J I.6XuXuXuX",
"uXuXuXuXuXuXuXuXuXuXuXuXtX7X|.E.k.j.d.d.q.5.6.w.p.p.p.p.p.1.@.1.>.*.~ M t t $ $ O . . . . .                 X X % = i U.9XuXuXuX",
"uXuXuXuXuXuXuXuXuXuXuXuXuXuX0X+X!.A.N.h.d.q.s.q.p.p.p.p.p.5.1.>.*.^ G m m 7 O . O . . .                 X X X X o & q ] 2XuXuXuX",
"uXuXuXuXuXuXuXuXuXuXuXuXuXuXuX8X_.q.r.j.k.j.g.d.d.d.p.p.p.1.1.>.*.^ G D M 4 O                   X       X X X % o % w U.0XuXuXuX",
"uXuXuXuXuXuXuXuXuXuXuXuXuXuXuXuX$X*.| =.0.r.j.A.j.g.d.p.p.p.5.>.*.$.~ G 8 $ O                     X     X o o o % 0 I 9XuXuXuXuX",
"uXuXuXuXuXuXuXuXuXuXuXuXuXuXuXuXwX'.E Z F | ....,.9.g.q.<.5.5.>.=.@.~ m : o X           X X   X       X X o = - a J.9XuXuXuXuXuX",
"uXuXuXuXuXuXuXuXuXuXuXuXuXuXuXuXuX>Xf.S b g g n F D N T R Q Q Q o.o.G t + X X         X   X X X   X X X X * 0 a [.9XuXuXuXuXuXuX",
"uXuXuXuXuXuXuXuXuXuXuXuXuXuXuXuXuXyXOXo.C b b F } H D l 6 5 e j j l j q O X X     X     X X X X X o o X o - L [.yXuXuXuXuXuXuXuX",
"uXuXuXuXuXuXuXuXuXuXuXuXuXuXuXuXuXuXeX=XN.$.n Z { } } S e > ; ; ; > > ; O o X X X     X X   X X   o % % - K [.0XuXuXuXuXuXuXuXuX",
"uXuXuXuXuXuXuXuXuXuXuXuXuXuXuXuXuXuXuXyX2X@X!.3.{ g n H Q / p @ * * * ; & o o X X X o o X X X X X o * = w L.6XuXuXuXuXuXuXuXuXuX",
"uXuXuXuXuXuXuXuXuXuXuXuXuXuXuXuXuXuXuXuXuXuXyX-X.X^.A.R. X*XI.p @ O * O o % o o X X o % % o X X X % - i ] :XuXuXuXuXuXuXuXuXuXuX",
"uXuXuXuXuXuXuXuXuXuXuXuXuXuXuXuXuXuXuXuXuXuXuXuXuXtX7X0XtXuXyX;X[ K , O o o % % % % % % = % % % % i L P.,XyXuXuXuXuXuXuXuXuXuXuX",
"uXuXuXuXuXuXuXuXuXuXuXuXuXuXuXuXuXuXuXuXuXuXuXuXuXuXuXuXuXuXuXuX5X[.' p - % % % % % * - - - - w ] [.,XeXuXuXuXuXuXuXuXuXuXuXuXuX",
"uXuXuXuXuXuXuXuXuXuXuXuXuXuXuXuXuXuXuXuXuXuXuXuXuXuXuXuXuXuXuXuXtXuXuX&X] a - 0 0 0 p d K _ J.*X0XuXuXuXuXuXuXuXuXuXuXuXuXuXuXuX",
"uXuXuXuXuXuXuXuXuXuXuXuXuXuXuXuXuXuXuXuXuXuXuXuXuXuXuXuXuXuXuXuXuXuXuXtX9X,X{.L.J.L.I.P.&X,XeXuXuXuXuXuXuXuXuXuXuXuXuXuXuXuXuXuX",
"uXuXuXuXuXuXuXuXuXuXuXuXuXuXuXuXuXuXuXuXuXuXuXuXuXuXuXuXuXuXuXuXuXuXuXuXuXuXeX0XeXqXeXuXyXuXuXuXuXuXuXuXuXuXuXuXuXuXuXuXuXuXuXuX",
"uXuXuXuXuXuXuXuXuXuXuXuXuXuXuXuXuXuXuXuXuXuXuXuXuXuXuXuXuXuXuXuXuXuXuXuXuXuXuXuXuXuXuXuXuXuXuXuXuXuXuXuXuXuXuXuXuXuXuXuXuXuXuXuX",
"uXuXuXuXuXuXuXuXuXuXuXuXuXuXuXuXuXuXuXuXuXuXuXuXuXuXuXuXuXuXuXuXuXuXuXuXuXuXuXuXuXuXuXuXuXuXuXuXuXuXuXuXuXuXuXuXuXuXuXuXuXuXuXuX",
"uXuXuXuXuXuXuXuXuXuXuXuXuXuXuXuXuXuXuXuXuXuXuXuXuXuXuXuXuXuXuXuXuXuXuXuXuXuXuXuXuXuXuXuXuXuXuXuXuXuXuXuXuXuXuXuXuXuXuXuXuXuXuXuX",
"uXuXuXuXuXuXuXuXuXuXuXuXuXuXuXuXuXuXuXuXuXuXuXuXuXuXuXuXuXuXuXuXuXuXuXuXuXuXuXuXuXuXuXuXuXuXuXuXuXuXuXuXuXuXuXuXuXuXuXuXuXuXuXuX",
"uXuXuXuXuXuXuXuXuXuXuXuXuXuXuXuXuXuXuXuXuXuXuXuXuXuXuXuXuXuXuXuXuXuXuXuXuXuXuXuXuXuXuXuXuXuXuXuXuXuXuXuXuXuXuXuXuXuXuXuXuXuXuXuX"
};
