/* XPM */
static char *result[] = {
/* columns rows colors chars-per-pixel */
"64 64 221 2 ",
"   c #030606",
".  c #060807",
"X  c #030708",
"o  c #05090B",
"O  c #0B0C0B",
"+  c #110E0C",
"@  c #0E110F",
"#  c #15110D",
"$  c #1A140E",
"%  c #070E11",
"&  c #090E12",
"*  c #0C1213",
"=  c #0D161A",
"-  c #0F1A1F",
";  c #131513",
":  c #1B1611",
">  c #1D1915",
",  c #111618",
"<  c #131B1D",
"1  c #181B18",
"2  c #231B14",
"3  c #271E17",
"4  c #2C2116",
"5  c #23211B",
"6  c #2C231B",
"7  c #32241B",
"8  c #35291F",
"9  c #3C2A1E",
"0  c #151E21",
"q  c #201F21",
"w  c #1B2122",
"e  c #1D252A",
"r  c #292928",
"t  c #342C23",
"y  c #3A2D23",
"u  c #332B28",
"i  c #26312D",
"p  c #3E3126",
"a  c #37352A",
"s  c #3D342B",
"d  c #282D30",
"f  c #2C3334",
"g  c #2A3637",
"h  c #373837",
"j  c #6F2B15",
"k  c #433425",
"l  c #42352A",
"z  c #463628",
"x  c #4C3B2C",
"c  c #513425",
"v  c #543A2B",
"b  c #443C33",
"n  c #573E31",
"m  c #6B3924",
"M  c #743E28",
"N  c #4A4136",
"B  c #554434",
"V  c #5C4333",
"C  c #5B4639",
"Z  c #59493B",
"A  c #7A452E",
"S  c #694835",
"D  c #764B36",
"F  c #794D3A",
"G  c #68513A",
"H  c #78523C",
"J  c #333E40",
"K  c #3E4543",
"L  c #494849",
"P  c #5A5244",
"I  c #53514F",
"U  c #485252",
"Y  c #7D4F41",
"T  c #695342",
"R  c #6C5944",
"E  c #755541",
"W  c #7B5442",
"Q  c #745B45",
"!  c #7B5C45",
"~  c #755E4C",
"^  c #655D54",
"/  c #775E51",
"(  c #55605D",
")  c #72604E",
"_  c #7E644C",
"`  c #756756",
"'  c #7E6453",
"]  c #676A6C",
"[  c #69746F",
"{  c #6C7674",
"}  c #757471",
"|  c #84523B",
" . c #845545",
".. c #865B46",
"X. c #84654E",
"o. c #8A644D",
"O. c #88694A",
"+. c #916749",
"@. c #8B6552",
"#. c #846854",
"$. c #8C6C54",
"%. c #8D6D5A",
"&. c #916653",
"*. c #936C53",
"=. c #956B59",
"-. c #97695B",
";. c #8F7055",
":. c #84725C",
">. c #8D715A",
",. c #927255",
"<. c #93745B",
"1. c #9B765B",
"2. c #967B5D",
"3. c #9A7C5E",
"4. c #A4785B",
"5. c #9D6B62",
"6. c #897866",
"7. c #947562",
"8. c #9A7663",
"9. c #967B62",
"0. c #9B7D63",
"q. c #9B756B",
"w. c #957C6A",
"e. c #9B7E6A",
"r. c #807D7C",
"t. c #A57A68",
"y. c #A27D6D",
"u. c #A47B71",
"i. c #9D805F",
"p. c #8D806D",
"a. c #978064",
"s. c #9B8164",
"d. c #9C836B",
"f. c #99866C",
"g. c #948576",
"h. c #9D8671",
"j. c #9C8A73",
"k. c #9C8B7A",
"l. c #9E947F",
"z. c #A28366",
"x. c #A3856B",
"c. c #AA866F",
"v. c #A4896D",
"b. c #AA8A6D",
"n. c #A58572",
"m. c #A88777",
"M. c #A48B72",
"N. c #AA8D72",
"B. c #A58C7A",
"V. c #AA8D7B",
"C. c #A69175",
"Z. c #AC9275",
"A. c #A4927C",
"S. c #AB937C",
"D. c #AF987E",
"F. c #B09477",
"G. c #B0947B",
"H. c #B0997D",
"J. c #7D8783",
"K. c #858B8A",
"L. c #8B8A88",
"P. c #8D9193",
"I. c #979899",
"U. c #AC8F81",
"Y. c #A59683",
"T. c #AC9583",
"R. c #AE9984",
"E. c #AD9788",
"W. c #AE9B8B",
"Q. c #B19683",
"!. c #B29B84",
"~. c #B3978C",
"^. c #B29D8C",
"/. c #B29E90",
"(. c #9EA09F",
"). c #B3A18E",
"_. c #AEA292",
"`. c #B4A293",
"'. c #B8A795",
"]. c #B6A699",
"[. c #BCAC9B",
"{. c #9EA6A3",
"}. c #A7A8A7",
"|. c #BDADA1",
" X c #BFB2A7",
".X c #AEB3B3",
"XX c #B3B5B4",
"oX c #B9BAB8",
"OX c #BCBDBD",
"+X c #C09D93",
"@X c #C4B4A5",
"#X c #C5B6AA",
"$X c #C7B8AC",
"%X c #C7BDB8",
"&X c #C9C1B8",
"*X c #CEC5BA",
"=X c #D1C8BC",
"-X c #BFC2C3",
";X c #C2C3C4",
":X c #C9C8C6",
">X c #CDCBCB",
",X c #D5CDC5",
"<X c #CDD1CF",
"1X c #DCD3CB",
"2X c #DED9D3",
"3X c #D8D8D7",
"4X c #E2DCD9",
"5X c #DDE0DD",
"6X c #E7E1DD",
"7X c #EAE4DF",
"8X c #E4E4E3",
"9X c #EBE7E3",
"0X c #E5E9E6",
"qX c #ECE9E5",
"wX c #ECECEC",
"eX c #F1EFEC",
"rX c #F3F1EE",
"tX c #F5F4F3",
"yX c #F8F7F6",
"uX c #F9F8F7",
"iX c #FFFFFFFF",
/* pixels */
"iXiXiXiXiXiXiXiXiXiXiXiXiXiXiXiXiXiXiXiXiXiXiXiXiXiXiXiXiXiXiXiXiXiXiXiXiXiXiXiXiXiXiXiXiXiXiXiXiXiXiXiXiXiXiXiXiXiXiXiXiXiXiXiX",
"iXiXiXiXiXiXiXiXiXiXiXiXiXiXiXiXiXiXiXiXiXiXiXiXiXiXiXiXiXiXiXiXiXiXiXiXiXiXiXiXiXiXiXiXiXiXiXiXiXiXiXiXiXiXiXiXiXiXiXiXiXiXiXiX",
"iXiXiXiXiXiXiXiXiXiXiXiXiXiXiXiXiXiXiXiXiXiXiXiXiXiXiXiXiXiXiXiXiXiXiXiXiXiXiXiXiXiXiXiXiXiXiXiXiXiXiXiXiXiXiXiXiXiXiXiXiXiXiXiX",
"iXiXiXiXiXiXiXiXiXiXiXiXiXiXiXiXiXiXiXiXiXiXiXiXiXiXiXiXiXiXiXiXiXiXiXiXiXiXiXiXyXyXuXyXiXiXiXiXiXiXiXiXiXiXiXiXiXiXiXiXiXiXiXiX",
"iXiXiXiXiXiXiXiXiXiXiXiXiXiXiXiXiXiXiXiXiXiXiXiXiXiXiXiXiXiXiXiXiXiXiXiXiX8X=X$X@X|.~.`.`.1X1XiXiXiXiXiXiXiXiXiXiXiXiXiXiXiXiXiX",
"iXiXiXiXiXiXiXiXiXiXiXiXiXiXiXiXiXiXiXiXiXiXiXiXiXiXiXiXiXiXiXiXiXiXuX1X|.S.<.*.$.$.$.O.o.$.S.%XtXiXiXiXiXiXiXiXiXiXiXiXiXiXiXiX",
"iXiXiXiXiXiXiXiXiXiXiXiXiXiXiXiXiXiXiXiXiXiXiXiXiXiXiXiXiXiXiXiXiX2X Xj.9.<.<.%.$.$.$.$.@.X.o.h.#X9XiXiXiXiXiXiXiXiXiXiXiXiXiXiX",
"iXiXiXiXiXiXiXiXiXiXiXiXiXiXiXiXiXiXiXiXiXiXiXiXiXiXiXiXiXiXiXqX*XW.w.<.>.>.=.>.>.<.%.>.>.<.$.$.e.@X9XiXiXiXiXiXiXiXiXiXiXiXiXiX",
"iXiXiXiXiXiXiXiXiXiXiXiXiXiXiXiXiXiXiXiXiXiXiXiXiXiXiXiXiXeX,X'.f.w.2.>.<.<.2.9.9.3.7.2.9.9.9.<.;.$.@XtXiXiXiXiXiXiXiXiXiXiXiXiX",
"iXiXiXiXiXiXiXiXiXiXiXiXiXiXiXiXiXiXiXiXiXiXiXiXiXiXiXuX2X Xj.f.9.2.2.2.9.a.e.s.e.z.e.d.d.n.h.d.s.2.1.[.iXiXiXiXiXiXiXiXiXiXiXiX",
"iXiXiXiXiXiXiXiXiXiXiXiXiXiXiXiXiXiXiXiXiXiXiXiXiXiX7X=XY.j.f.3.i.s.2.s.v.v.d.d.x.x.x.v.M.B.B.B.C.f.s.d.@XrXiXiXiXiXiXiXiXiXiXiX",
"iXiXiXiXiXiXiXiXiXiXiXiXiXiXiXiXiXiXiXiXiXiXuXqX0X2X_.W.j.f.0.s.0.z.v.C.N.f.x.f.n.M.M.N.B.B.B.T.W.T.C.f.R.9XuXiXiXiXiXiXiXiXiXiX",
"iXiXiXiXiXiXiXiXiXiXiXiXiXiXiXiXiXiXuXuX4X:X@XT.B._.Y.j.a.0.9.0.s.v.C.C.C.v.M.v.M.M.B.V.U.T.E.^.W.W.R.A.C.@XtXiXiXiXiXiXiXiXiXiX",
"iXiXiXiXiXiXiXiXiXiXiXiXiXiXiXiXiXiX2X[.e...D $.h.A.j.9.i.9.s.s.v.Z.D.Z.C.C.d.d.d.j.B.U.Y.E._.W.W.W.W.R.A.'.rXiXiXiXiXiXiXiXiXiX",
"iXiXiXiXiXiXiXiXiXiXiXiXiXiXiXiXiX2XY.D M A  .7.A.f.9.2.2.i.z.z.Z.F.Z.Z.f.2.#.@.&.5.q.q.B.T.W.^.W.W./.W.T.^.1XiXiXiXiXiXiXiXiXiX",
"iXiXiXiXiXiXiXiXiXiXiXiXiXiXiXiX9X_.F m m H <.A.j.f.9.2.i.s.z.b.F.Z.f._ G Z S H Y o.-.-.q.m.E.W.W.W.W.W.T.R.*XiXiXiXiXiXiXiXiXiX",
"iXiXiXiXiXiXiXiXiXiXiXiXiXiXiXuX[...m m m @.h.j.9.9.3.3.0.z.b.b.N.v.s.#.v n Q X.#.Y  .5.5.u.U./.W.W./.W.W.S.$XuXiXiXiXiXiXiXiXiX",
"iXiXiXiXiXiXiXiXiXiXiXiXiXiXiX#X@.A A m H e.k.f.2.9.9.s.z.b.N.b.b.v.a.w.<.W W %.7.M... .5.q.U.~./.W.W.W.W.R.[.yXiXiXiXiXiXiXiXiX",
"iXiXiXiXiXiXiXiXiXiXiXiXiXiX2Xd.j | F A #.A.f.9.3.3.0.x.N.F.F.F.Z.b.x.9.e.8.@.F #.e.M.n.@.5.u.U.`.W.W.W.R.D.'.9XiXiXiXiXiXiXiXiX",
"iXiXiXiXiXiXiXiXiXiXiXiXiXyX XA A | H H j.j.a.9.0.3.z.b.Z.G.!.!.H.M.d.d.9.e.x.=.|  .7.m.B.@.-.m.W.W.W.W.!.F.).qXiXiXiXiXiXiXiXiX",
"iXiXiXiXiXiXiXiXiXiXiXiXiXrXA.A F H B :.j.f.i.i.s.z.z.N.F.!.^.^.S.d.$.<.%.7.n.n.n.-.-.&.q.C.%.q.E.W.E.E.T.C.H.qXiXiXiXiXiXiXiXiX",
"iXiXiXiXiXiXiXiXiXiXiXiXiX0Xl.H V x T a.a.a.i.i.i.z.b.Z.H.^.).~.T.X.D F W W 7.M.Q.V.m.-.=.@.~ / T.E.E.R.S.j.'.qXiXiXiXiXiXiXiXiX",
"iXiXiXiXiXiXiXiXiXiXiXiXiXrXL.N 5 y :.i.a.a.i.i.i.z.N.G.!.'.'.'.T.$.W o.F S D 8.V.E.~.E.y.7.v S e.V.S.T.T.D.'.tXiXiXiXiXiXiXiXiX",
"iXiXiXiXiXiXiXiXiXiXiXiXeXI.K ; > Z :.a.i.i.i.i.4.c.F.H.!.'.'.'./.8.&.0.<.*.@.*.n.~.^./._.U.f.E <.h.B.S.R.D.&XtXiXiXiXiXiXiXiXiX",
"iXiXiXiXiXiXiXiXiXiXiX<XK.1 * ; l ) 2.2.i.i.,.i.i.i.F.H.).).).'.^.e.&.0.t.c.c.N.n.M.E.~./.^.T.v.s.x.C.D.D.).*XiXiXiXiXiXiXiXiXiX",
"iXiXiXiXiXiXiXiXiXiX3X[ 1 * @ 5 Z ;.2.,.2.,.O.O.,.i.Z.).!.!.).).!.0.*.1.x.N.Q.Q.n.e.8.E.^.^.E.S.b.C.S.D.!.!.6XiXiXiXiXiXiXiXiXiX",
"iXiXiXiXiXiXiXiXiXtX[ r O * ; p Q $.;.;.,.,.O.S ! >.2.v.D.R.!.!.N.0.&.4.c.G.~./.~.B.V.Q.W.E.S.M.C.Z.D.H.R.).4XiXiXiXiXiXiXiXiXiX",
"iXiXiXiXiXiXiXiX0X{ i o @ ; 1 N _ $.$.$.;.,.+.G c H 3.3.0.S.S.C.d.*.=.t.V.^./.^.^.~.E.U.V.M.x.M.Z.Z.D.H.).'.6XiXiXiXiXiXiXiXiXiX",
"iXiXiXiXiXiXiX0XJ.w o % * ; 5 B Q O._ _ O.>.,._ 9 9 Z w.7.w.M.s.*.1.4.c.Q./.^./.~.E.V.v.x.x.v.v.Z.Z.H.!.^.].2XiXiXiXiXiXiXiXiXiX",
"iXiXiXiXiXiXwX.X0 % o o % @ 1 6 B R G G _ ;.1.3.Q : 6 s ' 7.a.1.+.-.4.F.^./.^.~.`.~.T.V.V.S.T.R.R.!.!.)./.`.*XuXiXiXiXiXiXiXiXiX",
"iXiXiXiXiXuX5XU = % o o o X X @ 2 z G B Z _ ,.i.s.2.B v v X.<.*.+.4.b.+X+X^./././.^.~.W.~.`._.].).W.R.)._./. XtXiXiXiXiXiXiXiXiX",
"iXiXiXiXiXyX{.g = % % X . . . . @ 8 B x B Z _ i.b.Z.D.w.7.8.2.*.4.b.H.).!.^.^.^.^.E.~.W.`.].].`.`.)._.)./.E.[.wXiXiXiXiXiXiXiXiX",
"iXiXiXiXiX0XJ.0 = o o X X     X O 2 4 k p p N R a.C.^.R.D.z.t.3.b.H.).H.F.Z.D.S.T.!.!.^.`.`.`.`._.`._.^.~.V.W.0XiXiXiXiXiXiXiXiX",
"iXiXiXiXiX0X( - % X X X X X       . O $ y p 5 t Z :.M.A.M.z.z.b.H.).).F.b.2.<.d.V.R.!.~.`.`.`.`.`.`.`.W.~.m.~.2XiXiXiXiXiXiXiXiX",
"iXiXiXiXiX.XK - % X X X X           . $ 2 p B 4 5 b ~ 9.s.z.x.N.!.+XH.b.,.| ....t.N.!.^.W.)./._.^./._.W.U.m.U.8XiXiXiXiXiXiXiXiX",
"iXiXiXiXuX.XJ - % % X X X         . O # : 8 B G k r B #.s.v.b.S.!.!.F.i.O.c S +.&.v.S.!.^.^.W.).`.`./.E.U.U.+X7XiXiXiXiXiXiXiXiX",
"iXiXiXiXiX}.g = % % X X     X     . O O $ 4 k c z k C #.B.T.T.!.!.H.F.i.O.v 4 S e.M.Z.!.!.W.^.^.^.`./.V.Q.U.#XiXiXiXiXiXiXiXiXiX",
"iXiXiXiXuX.Xe % % X X X X         . . # 2 4 4 2 $ 3 y / w.T.~.^.).H.Z.z.,.G 4 8 C 2.d.Z.D.!.!._.W.`.E.T.E.~.7XiXiXiXiXiXiXiXiXiX",
"iXiXiXiXiXOXd o X X X X X X         O $ 3 2 $ + + 2 7 n ' e.k./.!.A.C.M.i.i.>.C B 7 H i.Z.!.!.).W.k.n.V.u.4XyXiXiXiXiXiXiXiXiXiX",
"iXiXiXiXiX;Xg X X X X X X   X X     + $ $ + O O $ : 7 v C S ' U.E.k.f.f.C.S.R.S.9.>.:.C.!.!.W.W.k.` u.t.$XiXiXiXiXiXiXiXiXiXiXiX",
"iXiXiXiXiX3Xd o X X X X           . . + . . + $ : : 7 k z c n e.B.6.^ ` 6.W.W.R.R.R.^.R.!.^.W.Y.P Y t.+XiXiXiXiXiXiXiXiXiXiXiXiX",
"iXiXiXiXiX:XK % o X   X       X             o + O 2 2 3 k z n E ) 6.P h L ^ g.A.T.T.W.R.^.^.D.^ N %.$XrXiXiXiXiXiXiXiXiXiXiXiXiX",
"iXiXiXiXiX3Xg % & % o X X                   .   . # . 2 2 3 7 3 y k B b u a b ` 6.a.j.T.).Y.` a h 1XtXiXiXiXiXiXiXiXiXiXiXiXiXiX",
"iXiXiXiXiXtX[ - & % o X X     X                   . . # + $ 2 3 7 y t b a 6 t Z ) ' f.C.A.p.b 1 I.uXiXiXiXiXiXiXiXiXiXiXiXiXiXiX",
"iXiXiXiXiXuXI.i * o X X   X                           . O $ 2 2 3 7 2 3 t 7 y z R w.j.j.p.N 5 h OXiXiXiXiXiXiXiXiXiXiXiXiXiXiXiX",
"iXiXiXiXiXiX<X{ 0 % X X X                               . + $ $ > 2 3 t l x t 6 B ` :.Z a 5 > L 5XiXiXiXiXiXiXiXiXiXiXiXiXiXiXiX",
"iXiXiXiXiXiXiXOXK 0 % X X                                 . + + # 2 u t z k 6 > : s a > 1 ; 5 I.yXiXiXiXiXiXiXiXiXiXiXiXiXiXiXiX",
"iXiXiXiXiXiXiXtXP.g = o X                               . . O . # t 7 t y t ; @ # > @ ; 1 ; L :XiXiXiXiXiXiXiXiXiXiXiXiXiXiXiXiX",
"iXiXiXiXiXiXiXiX-XJ - % X X     X X X X                   . o + : 4 2 : : ; O O & O & @ ; 1 L.8XiXiXiXiXiXiXiXiXiXiXiXiXiXiXiXiX",
"iXiXiXiXiXiXiXiXuXK.= % % X X X X X X X                     . . O + O . . o O o O O O @ & L oXiXiXiXiXiXiXiXiXiXiXiXiXiXiXiXiXiX",
"iXiXiXiXiXiXiXiXiXoXe % o o o X X X X X                               . . o o O o o o O ; ] iXiXiXiXiXiXiXiXiXiXiXiXiXiXiXiXiXiX",
"iXiXiXiXiXiXiXiXiXwX] = % % % o X X X X                                 o o % o o o O * d 6XuXiXiXiXiXiXiXiXiXiXiXiXiXiXiXiXiXiX",
"iXiXiXiXiXiXiXiXiXiXI.d e 0 0 % o X X X             o                   X o X X . o O d XXiXiXiXiXiXiXiXiXiXiXiXiXiXiXiXiXiXiXiX",
"iXiXiXiXiXiXiXiXiXiX0X}.] ] U e % o X X                               o X X X X o o h L.iXiXiXiXiXiXiXiXiXiXiXiXiXiXiXiXiXiXiXiX",
"iXiXiXiXiXiXiXiXiXiXiX7X3X>X(.U r % & % O X o         X               O O X X % % U I.iXiXiXiXiXiXiXiXiXiXiXiXiXiXiXiXiXiXiXiXiX",
"iXiXiXiXiXiXiXiXiXiXiXiXuXuX5X}.] f 1 , & % o o X                     o X X o & h ;XwXiXiXiXiXiXiXiXiXiXiXiXiXiXiXiXiXiXiXiXiXiX",
"iXiXiXiXiXiXiXiXiXiXiXiXiXiXiXwX.X] r < , & o o X       X X X X   X X     X < K :XtXiXiXiXiXiXiXiXiXiXiXiXiXiXiXiXiXiXiXiXiXiXiX",
"iXiXiXiXiXiXiXiXiXiXiXiXiXiXiXiXiXXXI f < * & o o X o X X   X X   o     % + } ;XiXiXiXiXiXiXiXiXiXiXiXiXiXiXiXiXiXiXiXiXiXiXiXiX",
"iXiXiXiXiXiXiXiXiXiXiXiXiXiXiXiXiXuXOXP.] , % X X           X X X X O O L I.eXiXiXiXiXiXiXiXiXiXiXiXiXiXiXiXiXiXiXiXiXiXiXiXiXiX",
"iXiXiXiXiXiXiXiXiXiXiXiXiXiXiXiXiXiXiXtX3XK., % o o o X o X % & ; d I L.>XiXiXiXiXiXiXiXiXiXiXiXiXiXiXiXiXiXiXiXiXiXiXiXiXiXiXiX",
"iXiXiXiXiXiXiXiXiXiXiXiXiXiXiXiXiXiXiXiXiX>XL.I J q u J K L b ^ r.}.>XuXiXiXiXiXiXiXiXiXiXiXiXiXiXiXiXiXiXiXiXiXiXiXiXiXiXiXiXiX",
"iXiXiXiXiXiXiXiXiXiXiXiXiXiXiXiXiXiXiXiXiXiX4XoX}. X}.;X-X%X:X>X4XyXiXiXiXiXiXiXiXiXiXiXiXiXiXiXiXiXiXiXiXiXiXiXiXiXiXiXiXiXiXiX",
"iXiXiXiXiXiXiXiXiXiXiXiXiXiXiXiXiXiXiXiXiXiXyXtXqXyXiXuXiXtXuXiXiXiXiXiXiXiXiXiXiXiXiXiXiXiXiXiXiXiXiXiXiXiXiXiXiXiXiXiXiXiXiXiX",
"iXiXiXiXiXiXiXiXiXiXiXiXiXiXiXiXiXiXiXiXiXiXiXiXiXiXiXiXiXiXiXiXiXiXiXiXiXiXiXiXiXiXiXiXiXiXiXiXiXiXiXiXiXiXiXiXiXiXiXiXiXiXiXiX"
};
