/* XPM */
static char *result[] = {
/* columns rows colors chars-per-pixel */
"64 64 215 2 ",
"   c #030506",
".  c #070807",
"X  c #030709",
"o  c #05090B",
"O  c #0B0C0B",
"+  c #110E0B",
"@  c #0D110F",
"#  c #13110E",
"$  c #1A150E",
"%  c #070D11",
"&  c #080E11",
"*  c #0C1214",
"=  c #0D1619",
"-  c #0F191C",
";  c #131413",
":  c #1B1611",
">  c #1D1914",
",  c #121718",
"<  c #131B1D",
"1  c #1D1C19",
"2  c #231B13",
"3  c #2A1E16",
"4  c #251F19",
"5  c #2B2014",
"6  c #24221B",
"7  c #2C231B",
"8  c #32261C",
"9  c #33281F",
"0  c #3B291E",
"q  c #1E1E21",
"w  c #1A2224",
"e  c #192526",
"r  c #2A2625",
"t  c #242A2E",
"y  c #342C23",
"u  c #3A2D22",
"i  c #302D2F",
"p  c #3E3226",
"a  c #37352C",
"s  c #3D342A",
"d  c #262C31",
"f  c #312D31",
"g  c #2D3434",
"h  c #2D3939",
"j  c #353432",
"k  c #343C3C",
"l  c #68331F",
"z  c #433225",
"x  c #4A3527",
"c  c #44342A",
"v  c #4B3B2C",
"b  c #573E2E",
"n  c #4A3D32",
"m  c #5E3F30",
"M  c #693925",
"N  c #763B24",
"B  c #4C4337",
"V  c #534332",
"C  c #5C4533",
"Z  c #55473A",
"A  c #584539",
"S  c #5B4B3A",
"D  c #6E412A",
"F  c #75432C",
"G  c #674936",
"H  c #634C3B",
"J  c #794A36",
"K  c #754D3B",
"L  c #68533D",
"P  c #78543B",
"I  c #343F41",
"U  c #423F41",
"Y  c #374245",
"T  c #3B4245",
"R  c #484D4C",
"E  c #514D4B",
"W  c #49514D",
"Q  c #595344",
"!  c #474D51",
"~  c #4B5655",
"^  c #58585A",
"/  c #744D42",
"(  c #6C5441",
")  c #665748",
"_  c #755C46",
"`  c #795A48",
"'  c #665E58",
"]  c #75624F",
"[  c #7B624C",
"{  c #6E6755",
"}  c #7A6455",
"|  c #7E6A54",
" . c #5C5F60",
".. c #5C6062",
"X. c #66696A",
"o. c #7D7265",
"O. c #6D6F70",
"+. c #6A7471",
"@. c #834B33",
"#. c #83583E",
"$. c #815C45",
"%. c #875948",
"&. c #826345",
"*. c #84664D",
"=. c #8C644D",
"-. c #86684C",
";. c #8B6A4D",
":. c #93694C",
">. c #836553",
",. c #8B6353",
"<. c #846953",
"1. c #8C6C54",
"2. c #8E6F58",
"3. c #936C54",
"4. c #96685A",
"5. c #946B5B",
"6. c #8E725B",
"7. c #927355",
"8. c #977455",
"9. c #93745B",
"0. c #9A735C",
"q. c #967A5D",
"w. c #997C5E",
"e. c #A3785B",
"r. c #887967",
"t. c #937562",
"y. c #9D7464",
"u. c #957B62",
"i. c #9A7D63",
"p. c #977A69",
"a. c #9B7C6A",
"s. c #957670",
"d. c #A37869",
"f. c #79827E",
"g. c #9C805F",
"h. c #978065",
"j. c #9C8164",
"k. c #96826A",
"l. c #9C836B",
"z. c #9E886F",
"x. c #9C8674",
"c. c #9D8B73",
"v. c #9D8A78",
"b. c #A28466",
"n. c #A3856B",
"m. c #A9846C",
"M. c #A4896D",
"N. c #A98A6D",
"B. c #A48672",
"V. c #A48B73",
"C. c #AA8D73",
"Z. c #A58D7A",
"A. c #AA8D7C",
"S. c #A59175",
"D. c #AA9175",
"F. c #A4927B",
"G. c #AC947C",
"H. c #AE997E",
"J. c #B1957A",
"K. c #B1987E",
"L. c #817F81",
"P. c #878887",
"I. c #8E9092",
"U. c #959897",
"Y. c #AA8D80",
"T. c #B08A80",
"R. c #A69482",
"E. c #AD9583",
"W. c #AA9887",
"Q. c #AE9984",
"!. c #AE9A8B",
"~. c #B19482",
"^. c #B29B85",
"/. c #B29D8C",
"(. c #A39E9E",
"). c #B29E90",
"_. c #B3A08D",
"`. c #AAA394",
"'. c #B3A192",
"]. c #B9A595",
"[. c #B6A599",
"{. c #B9A898",
"}. c #9EA5A4",
"|. c #A4A4A5",
" X c #A7A8A7",
".X c #BDB2A5",
"XX c #B9B9B8",
"oX c #C1AF9F",
"OX c #CAB6AC",
"+X c #C7B8A9",
"@X c #C6BDB7",
"#X c #BEC0BF",
"$X c #CDC2B7",
"%X c #D3C6BB",
"&X c #C5C5C5",
"*X c #CBCCCC",
"=X c #D5CDC7",
"-X c #D7D1C9",
";X c #D3D4D4",
":X c #DCD7D2",
">X c #DDDEDD",
",X c #E2DAD5",
"<X c #E3DED9",
"1X c #E8E2DC",
"2X c #E3E4E3",
"3X c #E9E6E3",
"4X c #E5E9E7",
"5X c #EDE9E4",
"6X c #EBECEB",
"7X c #F1EEEB",
"8X c #F4F1EE",
"9X c #EFF0F0",
"0X c #F5F5F3",
"qX c #F8F8F7",
"wX c #FFFFFFFF",
/* pixels */
"wXwXwXwXwXwXwXwXwXwXwXwXwXwXwXwXwXwXwXwXwXwXwXwXwXwXwXwXwXwXwXwXwXwXwXwXwXwXwXwXwXwXwXwXwXwXwXwXwXwXwXwXwXwXwXwXwXwXwXwXwXwXwXwX",
"wXwXwXwXwXwXwXwXwXwXwXwXwXwXwXwXwXwXwXwXwXwXwXwXwXwXwXwXwXwXwXwXwXwXwXwXwXwXwXwXwXwXwXwXwXwXwXwXwXwXwXwXwXwXwXwXwXwXwXwXwXwXwXwX",
"wXwXwXwXwXwXwXwXwXwXwXwXwXwXwXwXwXwXwXwXwXwXwXwXwXwXwXwXwXwXwXwXwXwXwXwXwXwXwXwXwXwXwXwXwXwXwXwXwXwXwXwXwXwXwXwXwXwXwXwXwXwXwXwX",
"wXwXwXwXwXwXwXwXwXwXwXwXwXwXwXwXwXwXwXwXwXwXwXwXwXwXwXwXwXwXwXwXwXwXwXwXwXwXwXwXwXwXwXwXwXwXwXwXwXwXwXwXwXwXwXwXwXwXwXwXwXwXwXwX",
"wXwXwXwXwXwXwXwXwXwXwXwXwXwXwXwXwXwXwXwXwXwXwXwXwXwXwXwXwXwXwXwXwXwXwXwXwXwXwXwXwXwXwXwXwXwXwXwXwXwXwXwXwXwXwXwXwXwXwXwXwXwXwXwX",
"wXwXwXwXwXwXwXwXwXwXwXwXwXwXwXwXwXwXwXwXwXwXwXwXwXwXwXwXwXwXwXwXwXwXwXwXwXwXwXwXwXwXwXwXwXwXwXwXwXwXwXwXwXwXwXwXwXwXwXwXwXwXwXwX",
"wXwXwXwXwXwXwXwXwXwXwXwXwXwXwXwXwXwXwXwXwXwXwXwXwXwXwXwXwXwXwXwXwXwXwXwXwXwXwXwXwXwXwXqXwXwXwXwXwXwXwXwXwXwXwXwXwXwXwXwXwXwXwXwX",
"wXwXwXwXwXwXwXwXwXwXwXwXwXwXwXwXwXwXwXwXwXwXwXwXwXwXwXwXwXwXwXwXwXwXwXwX2X&X&X*X XI.U.|.U.XX=X;X6X0XqXwXwXwXwXwXwXwXwXwXwXwXwXwX",
"wXwXwXwXwXwXwXwXwXwXwXwXwXwXwXwXwXwXwXwXwXwXwXwXwXwXwXwXwXwXwXwXwX;XU. .g T k * = w * @ 1 w i ^ L. X*X7XwXwXwXwXwXwXwXwXwXwXwXwX",
"wXwXwXwXwXwXwXwXwXwXwXwXwXwXwXwXwXwXwXwXwXwXwXwXwXwXwXwXwXwX4X$XO.q , ; o o o O o .     X X   O 1 i '  X>XqXwXwXwXwXwXwXwXwXwXwX",
"wXwXwXwXwXwXwXwXwXwXwXwXwXwXwXwXwXwXwXwXwXwXwXwXwXwXwXwX0X*XI.E r & O o o o . . o X     X o . o o X * U s.&X9XwXwXwXwXwXwXwXwXwX",
"wXwXwXwXwXwXwXwXwXwXwXwXwXwXwXwXwXwXwXwXwXwXwXwXwXwXwX6X|.E 1 ; ; ; O o . o .     o O o o X X   X o o & w  .(.<XqXwXwXwXwXwXwXwX",
"wXwXwXwXwXwXwXwXwXwXwXwXwXwXwXwXwXwXwXwXwXwXwXwXqXqX>XL.j 1 * ; ; O @ . o o % % o X     .     X X X X X o o f P.XX5XqXwXwXwXwXwX",
"wXwXwXwXwXwXwXwXwXwXwXwXwXwXwXwXwXwXqXwXwX5X@X%X-X XE ; 6 6 6 6 > * @ @ @ o O o o X                   X X X . d O.&XqXwXwXwXwXwX",
"wXwXwXwXwXwXwXwXwXwXwXwXwXwXwXwXwX8X,X@XA.y.d.4.G v a a Q { { Q B s 6 @ o o . . X X                   X X X . O r (.qXwXwXwXwXwX",
"wXwXwXwXwXwXwXwXwXwXwXwXwXwXwXqX,X].T.T.A.A.p.] Z ^ r.F.R.R.F.V.u.) 7 ; # # # o . X                 X   X X X . o O.2XwXwXwXwXwX",
"wXwXwXwXwXwXwXwXwXwXwXwXwXwXwX:X).T.~.~.E.Y.x.v.W.W.!.!.!.Q.V.l.u.( y 6 7 y 7 : + . . .           X         o o & X.>XwXwXwXwXwX",
"wXwXwXwXwXwXwXwXwXwXwXwXwXwX3X[.B.T.G.E.!.).).)./.!.^._.^.Q.v.6.| ) p 9 x v p 7 3 $ + .                 o o o % & t XXwXwXwXwXwX",
"wXwXwXwXwXwXwXwXwXwXwXwXwXqX@XA.A.E./.!.'.'./.!./.^.^.^.!./.Q.c.| Q y y z c y y u 3 $ . .         X X X o   o & * < ^ *XwXwXwXwX",
"wXwXwXwXwXwXwXwXwXwXwXwXwX,X[.G.~./.).).).).'./.^.^.H.b.S.G.Q.E.k.) y 7 9 7 y 7 2 $ + .           X         o o , < k  XqXwXwXwX",
"wXwXwXwXwXwXwXwXwXwXwXwXqX=X`._.)._.'._.).)._._.^.Q.G.9.K >.V.^.R.o.j a c r > 2 > + . . .                   o o ; < g U.wXwXwXwX",
"wXwXwXwXwXwXwXwXwXwXwXwX0X.X_._._._.'.'.'.).).!././.K.M.[ x | ^.!.R.E y Z u 0 7 2 : # .                         % & g P.2XwXwXwX",
"wXwXwXwXwXwXwXwXwXwXwXqX=X'._._.!._.!.`.'.'.`.'./.^.E.C.B.c v z.Q.Q.o.B Z n u y 3 2 # .                         o % t O.*XwXwXwX",
"wXwXwXwXwXwXwXwXwXwXwX,X{.!.Q._.^.W._.'.[.[.].'././.G.n.n.A 0 L b.V.k.' ^ } z 3 2 3 : .                         X o - ! #XwXwXwX",
"wXwXwXwXwXwXwXwXwXwX1X+X^.^.K.K.H.H.Q.'.[.[.'.)./.^.G.d.:./ 5 V 8.b.S.k.r.x.] p 3 : + . X X               X   X X o % I |.6XwXwX",
"wXwXwXwXwXwXwXwXwX,X{.^.Q.Q.H.H.D.D.D.H./.).'.)./.E.G.l.$.#.0 K 8.b.D.c.F.R.p.H c 3 : + . .             X     X X % % d O.XX3XwX",
"wXwXwXwXwXwXwXqX-X].K.H.Q.H.G.C.C.M.M.M.A.E.!.!./.~.E.V.;.#.F #.w.N.D.H.!.E.} x v z 4 + . X                     X X % = d ^ *XwX",
"wXwXwXwXwXwXwX1X{.S.H.Q.G.D.M.V.C.V.B.b.m.m.A.!././.~.G.j.7.1.e.b.J.K._./.!.t.G x u 2 # + .               X X   X X % % = d XXqX",
"wXwXwXwXwXwX7X.XS.S.E.E.G.M.a.b.G.E.E.E.Z.B.A.~.).).).^.~.C.C.C.K.^.^.^././.Z.} C z 8 4 +                 X     X X o o % d |.wX",
"wXwXwXwXwXqX$XH.G.G.!.E.E.V.t.1.Z.!./././.~.~.!.).).).).^.^.^.^._._.K.G.G.E.A.>.C 0 2 + ; + .           X X     X X o % & I 2XwX",
"wXwXwXwXwX1X{.Q.Q.!.Q.!.!.Y.>.m F./././.A.Y.!.)././.)././._.^.^.^.^.D.N.V.V.Z.t.x 3 : $ $ + .                   X X X % = X.9XwX",
"wXwXwXwXqX%XQ.Q.!.!.!.!.!.Y.( b a.E.)./.a.y.Y./.).).)./.^.J.J.J.N.N.m.n.b.l.t.` x 3 + + O O               X   X   X o % e I.qXwX",
"wXwXwXwX0X'.W.!.!.!.!.!.!.d.>.>.5.B.)./.E.d.Z.'././.^.J.C.m.e.e.8.e.e.n.b.j.<.Z s p 2 $ $ # + + . .       X       X % - I }.wXwX",
"wXwXwXwX%X!.Q.!.!.!.).).E.s.4.B.4.y././.!.m.A.E.~.A.C.m.d.0.:.:.:.8.i.M.G.S.t.n > S z 0 5 2 2 $ +         X   X X X X = T *XwXwX",
"wXwXwX7X+XG.W.!.!.).).).E.s.,.Y.5.4.A.^.Z.y.e.m.C.d.d.3.3.8.7.7.w.9.>.y.H._.v.) 6 v S z 5 2 $ + .             X X X X % R *XwXwX",
"wXwXwX5XG.S.!./.!.!.).).T.d.4.B.B.5.y.~.A.9.` 5.m.d.0.:.8.d.j.n.b.t.G H t.^.F.| a 9 V 9 2 + + .               X X X X - ^ &XwXwX",
"wXwXwX<XS.V.Q./.E.!.).E.T.s.4.5.Z.%.%.A.Z.y.M K d.d.:.7.N.G.J.G.B.t.} p Z D.D.u.B 5 c 5 $ + O                 X o % & = ! ;XwXwX",
"wXwXwX-XS.c.W.!.).!.!.E.B.y.4.@.D.t.#.0.M.a._ K 3.3.3.M.^._.^.^.Z.9.p.y $ 9.b.i.) p p 7 # + .       o   X X X   o o * w +.2XwXwX",
"wXwXwX,Xi.j.R.!.).!.).!.A.y.4.J 9.u.%.%.a.i.1.` J ` 5.!.{._._.^.Q.i.a.A 3 L j.w.[ V p 0 O . .           X X X X   o % e I.qXwXwX",
"wXwXwX0Xa.u.V.Y.E.W.!.Y.Y.d.4.%.` 9.,.` i.a.a.6.K P l.'.].]._.^.^.M.0.` z C w.8.-.S z v + .                 X X X o = ..4XwXwXwX",
"wXwXwX5X^.7.l.Z.Z.Z.Y.A.A.Z.a.,./ $.1.K 2.p.u.l.i.M.~.'.].]._._.K.D.w.=.x P g.7.&.S V V 0 #   . X X X X X X X o X o h XXqXwXwXwX",
"wXwXwX7XoX1.u.l.Z.Z.Z.Z.A.Z.B.t.,./ G m ` p.a.M.C.K././.]./.^.^.K.C.g.;.G [ 7.;.[ L L C 5 O   X   X X X X X % % o = P.6XwXwXwXwX",
"wXwXwXwXOX3.6.a.l.M.B.B.V.V.V.l.y.,._ b H q.l.M.D.K.^.^.^.^.K.J.C.b.w.8.[ ;.7.7.-.[ _ L 5 o   X X X X o X % % = - ~ ;XwXwXwXwXwX",
"wXwXwXwX%Xa.1.6.u.i.l.M.V.M.B.B.l.l.l.r.| u.z.M.C.J.K.K.J.J.D.N.b.b.g.w.7.7.7.7.7.-.-._ p # X X   X X X X % % e Y XXwXwXwXwXwXwX",
"wXwXwXwX1XF.=.1.6.9.u.j.z.n.b.z.M.S.D.S.S.S.N.D.N.D.D.D.C.C.N.b.b.g.g.g.g.g.7.7.7.;.-._ B 1 @ o X X o o o % - h P.6XwXwXwXwXwXwX",
"wXwXwXwXqX{.=.<.1.6.t.i.j.l.j.z.z.S.D.D.D.H.J.N.N.M.N.N.N.n.b.i.g.g.j.g.g.g.g.q.h.;.[ S y ; @ o o o % % * - I f.;XqXwXwXwXwXwXwX",
"wXwXwXwXwX1XA.1.=.1.2.9.q.i.h.z.M.S.D.D.D.D.N.N.b.j.b.a.i.w.w.i.j.g.g.j.g.g.h.6.] S z 6 ; * * @ o % % % e ~ U.4XwXwXwXwXwXwXwXwX",
"wXwXwXwXwXqX:XE.2.<.1.2.9.9.g.g.g.j.b.N.j.b.j.g.w.w.w.w.w.w.q.w.w.j.h.h.k.h.<.) B 6 ; # @ @ @ o o % = q ~ }.4XwXwXwXwXwXwXwXwXwX",
"wXwXwXwXwXwXwX0XoX9.2.2.2.2.6.7.7.q.i.j.i.u.g.h.q.q.q.w.q.u.h.k.k.z.c.c.k.] v 5 1 ; @ * @ @ w g e h +.}.>X9XqXwXwXwXwXwXwXwXwXwX",
"wXwXwXwXwXwXwXwX0X=XQ.a.2.9.6.9.9.q.q.u.j.j.h.g.j.u.h.j.k.k.k.c.F.c.t.[ S C C x p W W W X.+.f.|.*X4X4X9XwXwXwXwXwXwXwXwXwXwXwXwX",
"wXwXwXwXwXwXwXwXwXqX7X%X[.l.x.u.u.k.k.k.k.k.z.z.z.c.c.c.v.R.v.k.t.*.J F P #.#.J [ `.2X9X2X4XwXwXwXwXwXwXwXwXwXwXwXwXwXwXwXwXwXwX",
"wXwXwXwXwXwXwXwXwXwXwXwX8X5X-X%X$X.X.X{.R._.W.F.`.W.W.F.a.t.5.%.F l l J #.@.N F z.:XqXwXwXwXwXwXwXwXwXwXwXwXwXwXwXwXwXwXwXwXwXwX",
"wXwXwXwXwXwXwXwXwXwXwXwXwXwXwXwXqXwXqX7XqX3X,X5X=X=X-X).p.$.F F M M M N N N ,.!.;XqXwXwXwXwXwXwXwXwXwXwXwXwXwXwXwXwXwXwXwXwXwXwX",
"wXwXwXwXwXwXwXwXwXwXwXwXwXwXwXwXwXwXwXwXwXwXwXwXwXqXqX5X@X/.9.$.J D $.t.V._.%X6XwXwXwXwXwXwXwXwXwXwXwXwXwXwXwXwXwXwXwXwXwXwXwXwX",
"wXwXwXwXwXwXwXwXwXwXwXwXwXwXwXwXwXwXwXwXwXwXwXwXwXwXwXwXwX7X3X.X[..X@X-X6XwXwXwXwXwXwXwXwXwXwXwXwXwXwXwXwXwXwXwXwXwXwXwXwXwXwXwX",
"wXwXwXwXwXwXwXwXwXwXwXwXwXwXwXwXwXwXwXwXwXwXwXwXwXwXwXwXwXwXwXqX8XqXwXwXwXwXwXwXwXwXwXwXwXwXwXwXwXwXwXwXwXwXwXwXwXwXwXwXwXwXwXwX",
"wXwXwXwXwXwXwXwXwXwXwXwXwXwXwXwXwXwXwXwXwXwXwXwXwXwXwXwXwXwXwXwXwXwXwXwXwXwXwXwXwXwXwXwXwXwXwXwXwXwXwXwXwXwXwXwXwXwXwXwXwXwXwXwX",
"wXwXwXwXwXwXwXwXwXwXwXwXwXwXwXwXwXwXwXwXwXwXwXwXwXwXwXwXwXwXwXwXwXwXwXwXwXwXwXwXwXwXwXwXwXwXwXwXwXwXwXwXwXwXwXwXwXwXwXwXwXwXwXwX",
"wXwXwXwXwXwXwXwXwXwXwXwXwXwXwXwXwXwXwXwXwXwXwXwXwXwXwXwXwXwXwXwXwXwXwXwXwXwXwXwXwXwXwXwXwXwXwXwXwXwXwXwXwXwXwXwXwXwXwXwXwXwXwXwX",
"wXwXwXwXwXwXwXwXwXwXwXwXwXwXwXwXwXwXwXwXwXwXwXwXwXwXwXwXwXwXwXwXwXwXwXwXwXwXwXwXwXwXwXwXwXwXwXwXwXwXwXwXwXwXwXwXwXwXwXwXwXwXwXwX",
"wXwXwXwXwXwXwXwXwXwXwXwXwXwXwXwXwXwXwXwXwXwXwXwXwXwXwXwXwXwXwXwXwXwXwXwXwXwXwXwXwXwXwXwXwXwXwXwXwXwXwXwXwXwXwXwXwXwXwXwXwXwXwXwX",
"wXwXwXwXwXwXwXwXwXwXwXwXwXwXwXwXwXwXwXwXwXwXwXwXwXwXwXwXwXwXwXwXwXwXwXwXwXwXwXwXwXwXwXwXwXwXwXwXwXwXwXwXwXwXwXwXwXwXwXwXwXwXwXwX",
"wXwXwXwXwXwXwXwXwXwXwXwXwXwXwXwXwXwXwXwXwXwXwXwXwXwXwXwXwXwXwXwXwXwXwXwXwXwXwXwXwXwXwXwXwXwXwXwXwXwXwXwXwXwXwXwXwXwXwXwXwXwXwXwX",
"wXwXwXwXwXwXwXwXwXwXwXwXwXwXwXwXwXwXwXwXwXwXwXwXwXwXwXwXwXwXwXwXwXwXwXwXwXwXwXwXwXwXwXwXwXwXwXwXwXwXwXwXwXwXwXwXwXwXwXwXwXwXwXwX"
};
