/* XPM */
static char *result[] = {
/* columns rows colors chars-per-pixel */
"64 64 218 2 ",
"   c #030506",
".  c #060807",
"X  c #030709",
"o  c #05090B",
"O  c #0A0C0B",
"+  c #120F0B",
"@  c #0C100F",
"#  c #13110D",
"$  c #1A140E",
"%  c #1D180F",
"&  c #060D11",
"*  c #0A0E11",
"=  c #0B1114",
"-  c #0D1519",
";  c #131413",
":  c #1C1611",
">  c #151817",
",  c #1D1A14",
"<  c #11161B",
"1  c #131A1D",
"2  c #1C1C1A",
"3  c #231C14",
"4  c #261D17",
"5  c #2A2015",
"6  c #26211B",
"7  c #2C231B",
"8  c #31241B",
"9  c #36271B",
"0  c #33291F",
"q  c #171F20",
"w  c #1C2224",
"e  c #1B2628",
"r  c #242426",
"t  c #282929",
"y  c #352B22",
"u  c #392D23",
"i  c #342E2C",
"p  c #383229",
"a  c #2D2D30",
"s  c #2C3638",
"d  c #3A3734",
"f  c #373B3A",
"g  c #73311B",
"h  c #453426",
"j  c #423529",
"k  c #4B3528",
"l  c #4D372B",
"z  c #4B3B2D",
"x  c #543C2B",
"c  c #593D2E",
"v  c #473E35",
"b  c #693621",
"n  c #6B3B26",
"m  c #753C25",
"M  c #5A402C",
"N  c #4E4135",
"B  c #4F473E",
"V  c #534233",
"C  c #5C4334",
"Z  c #57483B",
"A  c #61442D",
"S  c #73442E",
"D  c #79422C",
"F  c #694936",
"G  c #644D3C",
"H  c #7A4B34",
"J  c #764C3A",
"K  c #65513D",
"L  c #76533E",
"P  c #7B533C",
"I  c #393E41",
"U  c #364142",
"Y  c #3F474A",
"T  c #454746",
"R  c #454A4D",
"E  c #584E43",
"W  c #5C5648",
"Q  c #545757",
"!  c #714E42",
"~  c #685745",
"^  c #6C5B4C",
"/  c #7B5742",
"(  c #735A43",
")  c #755B49",
"_  c #7D5C4B",
"`  c #77614B",
"'  c #7B624D",
"]  c #6C6150",
"[  c #7D6753",
"{  c #5B6563",
"}  c #666869",
"|  c #7A7368",
" . c #6B7272",
".. c #787B7A",
"X. c #814F38",
"o. c #87563D",
"O. c #864F40",
"+. c #835943",
"@. c #875845",
"#. c #855D4A",
"$. c #84654C",
"%. c #87674C",
"&. c #926B4C",
"*. c #8C6453",
"=. c #836854",
"-. c #8B6C54",
";. c #866B5A",
":. c #8E6E59",
">. c #956657",
",. c #936C54",
"<. c #946B5B",
"1. c #8F7054",
"2. c #8D725B",
"3. c #927455",
"4. c #93745B",
"5. c #98765C",
"6. c #957A5D",
"7. c #997C5D",
"8. c #A47A5F",
"9. c #9E6E64",
"0. c #8A7664",
"q. c #947561",
"w. c #9B7563",
"e. c #957B62",
"r. c #9A7D63",
"t. c #9B7E6B",
"y. c #A17C63",
"u. c #A57A6E",
"i. c #A57D72",
"p. c #9B805F",
"a. c #9B8163",
"s. c #98846B",
"d. c #9C846B",
"f. c #948674",
"g. c #9C8471",
"h. c #9B8B73",
"j. c #9B8B79",
"k. c #9F917A",
"l. c #A18366",
"z. c #AA8466",
"x. c #A2856A",
"c. c #A9856D",
"v. c #A5896D",
"b. c #AA8B6E",
"n. c #A48672",
"m. c #A48B72",
"M. c #AA8D73",
"N. c #A88778",
"B. c #A58C7A",
"V. c #AA8E7C",
"C. c #A69176",
"Z. c #AC9275",
"A. c #A4927D",
"S. c #AB937B",
"D. c #AF997D",
"F. c #B1957B",
"G. c #B1997E",
"H. c #7B8381",
"J. c #868484",
"K. c #898B89",
"L. c #928F8E",
"P. c #8F8F91",
"I. c #989A99",
"U. c #AA8E82",
"Y. c #A69784",
"T. c #AC9483",
"R. c #AD9984",
"E. c #AD9788",
"W. c #AE9B8B",
"Q. c #B19585",
"!. c #B29B84",
"~. c #B09788",
"^. c #B29D8C",
"/. c #A29F9F",
"(. c #B29E90",
"). c #B4A08E",
"_. c #B3A292",
"`. c #BAA796",
"'. c #B6A699",
"]. c #BCAA9C",
"[. c #9E9FA1",
"{. c #A8A6A6",
"}. c #ABADAD",
"|. c #BAADA1",
" X c #BDB3A7",
".X c #AEB2B3",
"XX c #B6B9B8",
"oX c #BEBDBD",
"OX c #C7A8A0",
"+X c #C4B7AA",
"@X c #C9BBB2",
"#X c #CCC1B5",
"$X c #CBC4BC",
"%X c #D3C9BE",
"&X c #BEC1C1",
"*X c #CAC9C9",
"=X c #CED0CF",
"-X c #D2D0CE",
";X c #DCD3CB",
":X c #D4D7D5",
">X c #DDD9D4",
",X c #DADBDC",
"<X c #E2DBD4",
"1X c #E5DEDA",
"2X c #E5E1DE",
"3X c #E9E5DF",
"4X c #DFE2E0",
"5X c #E5E6E5",
"6X c #EAE5E2",
"7X c #ECE8E4",
"8X c #ECECEB",
"9X c #F1EEEB",
"0X c #EEF1EF",
"qX c #F4F1EF",
"wX c #F4F3F3",
"eX c #F8F7F6",
"rX c #F8F8F7",
"tX c #FFFFFFFF",
/* pixels */
"tXtXtXtXtXtXtXtXtXtXtXtXtXtXtXtXtXtXtXtXtXtXtXtXtXtXtXtXtXtXtXtXtXtXtXtXtXtXtXtXtXtXtXtXtXtXtXtXtXtXtXtXtXtXtXtXtXtXtXtXtXtXtXtX",
"tXtXtXtXtXtXtXtXtXtXtXtXtXtXtXtXtXtXtXtXtXtXtXtXtXtXtXtXtXtXtXtXtXtXtXtXtXtXtXtXtXtXtXtXtXtXtXtXtXtXtXtXtXtXtXtXtXtXtXtXtXtXtXtX",
"tXtXtXtXtXtXtXtXtXtXtXtXtXtXtXtXtXtXtXtXtXtXtXtXtXtXtXtXtXtXtXtXtXtXtXtXtXtXtXtXtXtXtXtXtXtXtXtXtXtXtXtXtXtXtXtXtXtXtXtXtXtXtXtX",
"tXtXtXtXtXtXtXtXtXtXtXtXtXtXtXtXtXtXtXtXtXtXtXtXtXtXtXtXtXtXtXtXtXtXtXtXtXtXtXtXtXtXtXtXtXtXtXtXtXtXtXtXtXtXtXtXtXtXtXtXtXtXtXtX",
"tXtXtXtXtXtXtXtXtXtXtXtXtXtXtXtXtXtXtXtXtXtXtXtXtXtXtXtXtXtXtXtXtXtXtXtXtXtXtXtXtXtXtXtXtXtXtXtXtXtXtXtXtXtXtXtXtXtXtXtXtXtXtXtX",
"tXtXtXtXtXtXtXtXtXtXtXtXtXtXtXtXtXtXtXtXtXtXtXtXtXtXtXtXtXtXtXtXtXtXtXtXtXtXtXtXtXtXtXtXtXtXtXtXtXtXtXtXtXtXtXtXtXtXtXtXtXtXtXtX",
"tXtXtXtXtXtXtXtXtXtXtXtXtXtXtXtXtXtXtXtXtXtXtXtXtXtXtXtXtXtXtXtXtXtXtXtXtXtXtXtXtXtXtXtXtXtXtXtXtXtXtXtXtXtXtXtXtXtXtXtXtXtXtXtX",
"tXtXtXtXtXtXtXtXtXtXtXtXtXtXtXtXtXwX<X;X%X%X%X;X3X7X9XtXtXtXtXtXtXtXtXtXtXtXtXtXtXtXtXtXtXtXtXtXtXtXtXtXtXtXtXtXtXtXtXtXtXtXtXtX",
"tXtXtXtXtXtXtXtXtXtXtXtXtXtXtX9X;XR.R.d.S.S.W.^.R._.`.#X<X9XtXtXtXtXtXtXtXtXtXtXtXtXtXtXtXtXtXtXtXtXtXtXtXtXtXtXtXtXtXtXtXtXtXtX",
"tXtXtXtXtXtXtXtXtXtXtXtXtX7X;X_.3.p.d.C.S.Y.Y.W.Y.R.D.S.C.`.;X7XtXtXtXtXtXtXtXtXtXtXtXtXtXtXtXtXtXtXtXtXtXtXtXtXtXtXtXtXtXtXtXtX",
"tXtXtXtXtXtXtXtXtXtXtXtX;X].y.3.p.h.A.W.W.W.W.W.^.^.R.S.v.C.!.+X1XwXtXtXtXtXtXtXtXtXtXtXtXtXtXtXtXtXtXtXtXtXtXtXtXtXtXtXtXtXtXtX",
"tXtXtXtXtXtXtXtXtXtX9X+XB.-.:.e.h.A.W.W.^.^.W.W.W.W.E.R.R.D.R.!.).+X;X1X6XwX9XwXrXtXtXtXtXtXtXtXtXtXtXtXtXtXtXtXtXtXtXtXtXtXtXtX",
"tXtXtXtXtXtXtXtXtXrX@Xt.%.:.q.d.B.E.W.W.E.E.W.W.W.W.W.R.E.S.R.R.!.!.).'.|.|. X X*X1XqXtXtXtXtXtXtXtXtXtXtXtXtXtXtXtXtXtXtXtXtXtX",
"tXtXtXtXtXtXtXtXtX1Xe.$.*.3.s.m.B.U.W.W.W.^.(.(.^.W.E.E.T.S.C.!.G.!.!.!.W.).E.C.V.Q.@X9XrXtXtXtXtXtXtXtXtXtXtXtXtXtXtXtXtXtXtXtX",
"tXtXtXtXtXtXtXtXrX].:.*.:.4.t.m.B.U.W.W.W.(.(.E.(.E.W.E.S.m.C.S.D.G.).)._.).W.Y.M.N.Q.(.9XrXtXtXtXtXtXtXtXtXtXtXtXtXtXtXtXtXtXtX",
"tXtXtXtXtXtXtXtX9Xn.%.-.2.e.s.n.B.T.E.E.E.T.E.U.N.U.U.g.r.a.x.m.Z.G.Z.).^.)._.W.~.U.Q.V.@XrXtXtXtXtXtXtXtXtXtXtXtXtXtXtXtXtXtXtX",
"tXtXtXtXtXtXtXtX3Xr.-.-.4.e.d.v.B.V.U.B.N.i.i.u.q.*._ c F q.v.M.Z.Z.D.!.W.W._.W.^.~.V.~.N.;XtXtXtXtXtXtXtXtXtXtXtXtXtXtXtXtXtXtX",
"tXtXtXtXtXtXtXrX#X:.:.:.6.r.x.m.B.V.B.i.9.9.9.>.<.n.=.c ;.N.C.B.m.m.S.^._._._.(.^.^.~.Q.N.u.9XtXtXtXtXtXtXtXtXtXtXtXtXtXtXtXtXtX",
"tXtXtXtXtXtXtXrX`.-.:.2.r.d.x.v.B.C.n.<.>.>.*.t.S.q.<.i.U.W.E.V.x.v.Y.)._._._._.(._.(.U.N.u.OXtXtXtXtXtXtXtXtXtXtXtXtXtXtXtXtXtX",
"tXtXtXtXtXtXtXeXR.:.2.4.r.a.x.n.m.n.w.*.O.P g.V.<.>.w.U.^.^.^.T.v.v.W._._._._._.W.).(.E.;.>.Q.6XtXtXtXtXtXtXtXtXtXtXtXtXtXtXtXtX",
"tXtXtXtXtXtXtX9X^.2.2.4.a.a.d.v.g.w.*./ #.A.r.<.>.w.~.(.(.^.~.Q.x.M.^.'.'._._.^._._.W.W.0.~ ) 1XtXtXtXtXtXtXtXtXtXtXtXtXtXtXtXtX",
"tXtXtXtXtXtXtXrXW.q.2.3.d.s.v.h.g.q.O.#.q.q.*.O.y.E.(.^.~.Q.Q.U.x.B.E._.'._._.W.!.^.W.).W.W v ..8XtXtXtXtXtXtXtXtXtXtXtXtXtXtXtX",
"tXtXtXtXtXtXtXqX].q.2.4.a.v.d.v.g.:.! _ 4.+.X.w.Q.S.~.E.i.w.Q.Q.n.V.^._._._.).).!.).!.^.!.h.f 6 ..@XtXtXtXtXtXtXtXtXtXtXtXtXtXtX",
"tXtXtXtXtXtXtXtX+Xe.4.4.a.v.C.v.n.;.A ! / #.t.n.V.n.n.n.t.n.Q.Q.S.~.^.E.^.^.W.!.R.R.!.W.).!.| p + R }.0XtXtXtXtXtXtXtXtXtXtXtXtX",
"tXtXtXtXtXtXtXtX;Xd.q.6.a.m.Z.Z.n.[ l F -.t.d.t.w.*.4.M.Q.~.(.~.^.(.^.~.Q.!.!.!.D.Z.Z.!.!.!.A.W 6 2 t /.,XtXtXtXtXtXtXtXtXtXtXtX",
"tXtXtXtXtXtXtXtX>XA.e.6.p.v.Z.C.C.[ G -.e.e.w.:.F J y.V.^.(.^.(.(.(.!.~.!.S.V.S.C.:.l.!.!.W.W.f.v 2 : d L.8XtXtXtXtXtXtXtXtXtXtX",
"tXtXtXtXtXtXtXtXrX_.a.e.a.v.Z.Z.C.6.6.e.e.t.3.J F #.y.M.Q.).(.(.(.(.Q.F.V.x.y.M.s.F -.R.W.E.S.h.E 2 > ; T H.rXtXtXtXtXtXtXtXtXtX",
"tXtXtXtXtXtXtXtXwX Xs.e.p.a.b.D.D.v.d.s.x.t.=.L *.y.c.c.F.!.(.^.(.^.Q.N.4.@.5.2.Z x m.R.E.s.d.C.W 2 ; ; O r J.tXtXtXtXtXtXtXtXtX",
"tXtXtXtXtXtXtXtXtX$Xh.a.p.a.l.b.Z.b.b.v.v.a.L J >.5.w.y.c.F.^.^.).!.Z.6.+.o.G 7 k ' S.R.A.2.6.d.] 6 @ @ @ @ 2 oXtXtXtXtXtXtXtXtX",
"tXtXtXtXtXtXtXtXtX>XY.s.r.7.a.v.b.b.b.Z.Z.m.:./ @.,.,.,.5.c.F.^.!.!.Z.1.o.x 8 8 ^ G.R.R.0.] 2.[ Z 7 @ . O o < R wXtXtXtXtXtXtXtX",
"tXtXtXtXtXtXtXtXtX3XW.s.a.r.a.a.v.b.Z.G.!.!.T.B.N.x.4.,.<.8.c.F.).!.Z.p.P A x L v.).W.j.] Z V p 6 % @ @ . o X w P.tXtXtXtXtXtXtX",
"tXtXtXtXtXtXtXtXtXeX+Xk.a.e.6.a.a.b.Z.G.^.).).`.'.).B.y.5.,.8.c.G.).G.v.7.&.3.7.v.Y.f.E p 0 0 6 : @ @ . o o o o } ,XtXtXtXtXtXtX",
"tXtXtXtXtXtXtXtXtXrX#XY.s.a.6.a.l.v.Z.G.!.).).`.`.).!.m.8.&.&.8.F.!.).F.b.z.z.l.C.f.Q d y 7 h y , @ O & o . o & t *XrXtXtXtXtXtX",
"tXtXtXtXtXtXtXtXtXtX:XY.j.a.7.6.7.z.b.F.G.^._.)._.).!.Z.v.3.&.&.z.!.).).D.Z.Z.C.0.] d j p 8 h z 0 # . o & X . o & } rXtXtXtXtXtX",
"tXtXtXtXtXtXtXtXtXtX2X_.A.s.q.6.7.l.v.b.F.!.).).).!.R.S.v.a.4.,.z.Z.G.!.).D.Z.h.| B B V u 7 p j 0 $ . o O o X o & a oXtXtXtXtXtX",
"tXtXtXtXtXtXtXtXtXtX;Xt.A.k.a.e.e.7.z.b.b.F.G.).!.G.T.d.e.4.4.5.8.v.M.F.!.!.W.Y.f.0.Z 0 7 4 u y 7 @ . o o X X X o q P.wXtXtXtXtX",
"tXtXtXtXtXtXtXtXtXtX#X*.q.Y.s.e.6.6.r.l.z.b.Z.G.!.Z.7.r.e.G -.l.l.z.v.V.!.).^.E.j.) p u 8 , 8 8 6 O . .   X o X X . { qXtXtXtXtX",
"tXtXtXtXtXtXtXtXtXrX%X+.#.g.j.s.r.7.r.r.l.z.b.C.b.5.w.;.N V q.V.v.l.x.S.R.R.t.0.;.C 5 8 4 3 3 u 3 +     X X o o X . a *XtXtXtXtX",
"tXtXtXtXtXtXtXtXtXwX@X/ S *.g.h.a.e.r.p.p.l.p.7.5.4.) y 6 G C.!.m.r.d.V.B.d.( k C 9 3 4 3 # + 3 % . .       X . X X r oXrXtXtXtX",
"tXtXtXtXtXtXtXtXtXtX|./ m J :.B.h.a.p.p.p.p.7.3.$.C h : Z S.!.!.s.=.;.t.;._ C l k 4 3 3 : # . + + .         X X . X @ I.tXtXtXtX",
"tXtXtXtXtXtXtXtXtXrX$XP b b J :.A.s.p.p.p.p.2.' A M h ( a.Z.A.h.^ N ~ ~ c c l k y : + : + . . . . X             X X * L.8XtXtXtX",
"tXtXtXtXtXtXtXtXtXtX<Xd.n b b J 0.h.s.a.a.p.p.%.%.%.3.p.l.l.2.K p 7 h 4 8 9 u 4 3 $ O . .   . . X               X . 3 J.wXrXtXtX",
"tXtXtXtXtXtXtXtXtXtXrX X$.m H S K 6.s.a.p.p.3.1.1.3.6.3.5.' N 6 7 z y $ 3 : 4 3 + O . .         X               X X 2 J.5XtXtXtX",
"tXtXtXtXtXtXtXtXtXtXtX3XY.D X.o.F Z e.p.p.3.p.3.1.-.-.$.L N 0 p ~ C 5 + # : ; 3 . . . X                         X X r L.7XtXtXtX",
"tXtXtXtXtXtXtXtXtXtXtXtX%X3.g o.P V N =.p.p.1.%.%.' ( G x u u z z h 5 + O % + . . X                     X     X X X r {.qXtXtXtX",
"tXtXtXtXtXtXtXtXtXtXtXtXtX].+.m H V 7 N ~ 3.2.1.$.( V N j j u 7 8 5 5 $ O + +                     X       X     X + T oXrXtXtXtX",
"tXtXtXtXtXtXtXtXtXtXtXtXtXqX'.+.H A 3 2 N ` =.1.$.( K V j , $ $ % 3 5 % O . . .                     X       X X X ;  .;XtXtXtXtX",
"tXtXtXtXtXtXtXtXtXtXtXtXtXtX7X#Xk.| f @ 3 z ` ' ` K h h 3 . O + O $ % % . . .                       X .   X X X X > I.qXtXtXtXtX",
"tXtXtXtXtXtXtXtXtXtXtXtXtXtXtXwX2X=XQ > # 6 j K Z 5 % $ + . X . . O + + .                         X   X X X X X X i {.tXtXtXtXtX",
"tXtXtXtXtXtXtXtXtXtXtXtXtXtXtXtXtXtXI.- @ @ > 0 6 @ . . X   . . . . O O O                           X X o X X o o Q -XrXtXtXtXtX",
"tXtXtXtXtXtXtXtXtXtXtXtXtXtXtXtXtXtX:XY @ @ > > O . X X         . .   X .                       X X X . o * o o r J.:XtXtXtXtXtX",
"tXtXtXtXtXtXtXtXtXtXtXtXtXtXtXtXtXtX5X..q O @ @ o X X X                                     X X X X o * * * * o } @X9XtXtXtXtXtX",
"tXtXtXtXtXtXtXtXtXtXtXtXtXtXtXtXtXtXtX.XY O o & o o X X X .       X                     X X X X X X * < < < I K.oXwXrXtXtXtXtXtX",
"tXtXtXtXtXtXtXtXtXtXtXtXtXtXtXtXtXtXtXtXH.e & o & . X X   . X         X   X X           X X X X X * < 1 1 Q -X5XtXtXtXtXtXtXtXtX",
"tXtXtXtXtXtXtXtXtXtXtXtXtXtXtXtXtXtXtXtX,Xs & & o o . X                     X           X X o o o * w r I /.wXtXtXtXtXtXtXtXtXtX",
"tXtXtXtXtXtXtXtXtXtXtXtXtXtXtXtXtXtXtXrX0XI.1 & & & o o o o       X     X       X       o o o & < s Q ..}.tXtXtXtXtXtXtXtXtXtXtX",
"tXtXtXtXtXtXtXtXtXtXtXtXtXtXtXtXtXtXtXtXtX4X .q - - o & o o X X X X   X X X   X X X   o o & & w s  .}.4XrXtXtXtXtXtXtXtXtXtXtXtX",
"tXtXtXtXtXtXtXtXtXtXtXtXtXtXtXtXtXtXtXtXtXwX:X{ s - & - & & o X   X   X X X   X X X o o & & a { [.*XrXtXtXtXtXtXtXtXtXtXtXtXtXtX",
"tXtXtXtXtXtXtXtXtXtXtXtXtXtXtXtXtXtXtXtXtXtXwX:XH.U e q - & X o X   X & X X X o & o o & & < R {.4XtXtXtXtXtXtXtXtXtXtXtXtXtXtXtX",
"tXtXtXtXtXtXtXtXtXtXtXtXtXtXtXtXtXtXtXtXtXtXtXrX4X&X{ U e - & X o X & & & X & - - - & & - e } -XrXtXtXtXtXtXtXtXtXtXtXtXtXtXtXtX",
"tXtXtXtXtXtXtXtXtXtXtXtXtXtXtXtXtXtXtXtXtXtXtXtXtXrX=X}.H.I s w & & & - = 1 e s U s Y Y I ..-X8XtXtXtXtXtXtXtXtXtXtXtXtXtXtXtXtX",
"tXtXtXtXtXtXtXtXtXtXtXtXtXtXtXtXtXtXtXtXtXtXtXtXtXtXtXeX8X,X&XI.} R e I s } H.}..X,X=X8X,XwXeXtXtXtXtXtXtXtXtXtXtXtXtXtXtXtXtXtX",
"tXtXtXtXtXtXtXtXtXtXtXtXtXtXtXtXtXtXtXtXtXtXtXtXtXtXtXtXtXtXtXwXwX5XXXXXoX=XeXrXtXtXtXtXtXtXtXtXtXtXtXtXtXtXtXtXtXtXtXtXtXtXtXtX",
"tXtXtXtXtXtXtXtXtXtXtXtXtXtXtXtXtXtXtXtXtXtXtXtXtXtXtXtXtXtXtXtXtXtXtXtXrXtXtXtXtXtXtXtXtXtXtXtXtXtXtXtXtXtXtXtXtXtXtXtXtXtXtXtX"
};
