/* XPM */
static char *result[] = {
/* columns rows colors chars-per-pixel */
"64 64 222 2 ",
"   c #030506",
".  c #060807",
"X  c #0A0907",
"o  c #030709",
"O  c #05090B",
"+  c #0B0C0B",
"@  c #120E0A",
"#  c #0C100E",
"$  c #14120D",
"%  c #1B150E",
"&  c #060D10",
"*  c #090F12",
"=  c #071015",
"-  c #0C1214",
";  c #0D151B",
":  c #0E191C",
">  c #131312",
",  c #1B1611",
"<  c #171816",
"1  c #1D1A15",
"2  c #131B1C",
"3  c #1B1C1B",
"4  c #231B13",
"5  c #291D14",
"6  c #271F19",
"7  c #321911",
"8  c #19201D",
"9  c #2A2217",
"0  c #2B221B",
"q  c #31261D",
"w  c #35291F",
"e  c #3A281D",
"r  c #161E22",
"t  c #231F20",
"y  c #192426",
"u  c #252223",
"i  c #262626",
"p  c #2D2A22",
"a  c #332723",
"s  c #342A22",
"d  c #3B2E24",
"f  c #3B3126",
"g  c #3B352C",
"h  c #253331",
"j  c #2D3334",
"k  c #333434",
"l  c #373A38",
"z  c #432A1F",
"x  c #6E2B13",
"c  c #65301A",
"v  c #72371F",
"b  c #443324",
"n  c #47382B",
"m  c #4C3B2C",
"M  c #573928",
"N  c #423C33",
"B  c #4B3D32",
"V  c #503F30",
"C  c #683925",
"Z  c #713C27",
"A  c #6B3F33",
"S  c #54412F",
"D  c #484537",
"F  c #534334",
"G  c #5C4836",
"H  c #6F442C",
"J  c #72422D",
"K  c #684837",
"L  c #6C4B34",
"P  c #774A36",
"I  c #66513D",
"U  c #77573D",
"Y  c #384444",
"T  c #43484A",
"R  c #4F4E48",
"E  c #5C5349",
"W  c #4A5554",
"Q  c #555859",
"!  c #6C5641",
"~  c #685746",
"^  c #7E5943",
"/  c #795944",
"(  c #745C4B",
")  c #795D4B",
"_  c #55655E",
"`  c #7B6145",
"'  c #6E6451",
"]  c #766753",
"[  c #635F62",
"{  c #5F676A",
"}  c #666566",
"|  c #716D6F",
" . c #6F706A",
".. c #6B7572",
"X. c #767879",
"o. c #844B33",
"O. c #82523D",
"+. c #85573D",
"@. c #865745",
"#. c #855A44",
"$. c #845E4C",
"%. c #895B4C",
"&. c #915F51",
"*. c #866244",
"=. c #84644C",
"-. c #8C644D",
";. c #8B6A4D",
":. c #91694A",
">. c #826552",
",. c #8C6453",
"<. c #846B54",
"1. c #8C6B53",
"2. c #856D5A",
"3. c #8D6E5A",
"4. c #936B53",
"5. c #956259",
"6. c #956558",
"7. c #9A6D59",
"8. c #8F7055",
"9. c #83705B",
"0. c #8E715A",
"q. c #937356",
"w. c #94745B",
"e. c #9B765B",
"r. c #967A5D",
"t. c #9A7C5E",
"y. c #A67A5D",
"u. c #9D6D65",
"i. c #857666",
"p. c #8D7564",
"a. c #937662",
"s. c #9E7765",
"d. c #967C62",
"f. c #9A7D63",
"g. c #9B7D6B",
"h. c #837D7E",
"j. c #A47D64",
"k. c #A07168",
"l. c #A27C6A",
"z. c #AA7F74",
"x. c #9A805F",
"c. c #978164",
"v. c #9B8164",
"b. c #97846A",
"n. c #9C846B",
"m. c #9C886E",
"M. c #9C8977",
"N. c #9C8C74",
"B. c #A28465",
"V. c #A3856B",
"C. c #A8846D",
"Z. c #A58A6D",
"A. c #A98B6E",
"S. c #A48474",
"D. c #A48B73",
"F. c #AA8D72",
"G. c #A8857A",
"H. c #A58C79",
"J. c #AA8C7B",
"K. c #A79175",
"L. c #AC9274",
"P. c #A4927C",
"I. c #AC947C",
"U. c #AE9A7D",
"Y. c #B1947A",
"T. c #B1997E",
"R. c #848C8B",
"E. c #888D8C",
"W. c #89918D",
"Q. c #8E9592",
"!. c #979697",
"~. c #AB8F80",
"^. c #A49482",
"/. c #AC9583",
"(. c #AD9983",
"). c #AE9789",
"_. c #A79B88",
"`. c #AE9B8B",
"'. c #B19684",
"]. c #B29B84",
"[. c #B19D8C",
"{. c #AF9E93",
"}. c #B29E91",
"|. c #B4A18D",
" X c #ADA190",
".X c #B3A292",
"XX c #B4A79A",
"oX c #B9A99B",
"OX c #A6A4A5",
"+X c #A3A9A9",
"@X c #ACABA9",
"#X c #BAB4AA",
"$X c #B4B7B3",
"%X c #C0B19D",
"&X c #C5AFA3",
"*X c #C6B6AA",
"=X c #C6BEB4",
"-X c #CAC1B5",
";X c #CBC3BD",
":X c #D3C7BB",
">X c #BEC1C0",
",X c #C3C2C1",
"<X c #CACAC9",
"1X c #D6CDC7",
"2X c #D7D1CA",
"3X c #CFD0D0",
"4X c #D5D5D5",
"5X c #D9D7D4",
"6X c #DDDDDA",
"7X c #E2DCD5",
"8X c #E4E1DB",
"9X c #E9E2DC",
"0X c #DFE1E1",
"qX c #E3E4E2",
"wX c #E9E7E5",
"eX c #ECE9E6",
"rX c #ECECEB",
"tX c #F1EFED",
"yX c #F4F2EF",
"uX c #F5F4F4",
"iX c #F9F8F7",
"pX c #FFFFFFFF",
/* pixels */
"pXpXpXpXpXpXpXpXpXpXpXpXpXpXpXpXpXpXpXpXpXpXpXpXpXpXpXpXpXpXpXpXpXpXpXpXpXpXpXpXpXpXpXpXpXpXpXpXpXpXpXpXpXpXpXpXpXpXpXpXpXpXpXpX",
"pXpXpXpXpXpXpXpXpXpXpXpXpXpXpXpXpXpXpXpXpXpXpXpXpXpXpXpXpXpXpXpXpXpXpXpXpXpXpXpXpXpXpXpXpXpXpXpXpXpXpXpXpXpXpXpXpXpXpXpXpXpXpXpX",
"pXpXpXpXpXpXpXpXpXpXpXpXpXpXpXpXpXpXpXpXpXpXpXpXpXpXiX2XD.g.g.J.[.&X:X9XuXpXpXpXpXpXpXpXpXpXpXpXpXpXpXpXpXpXpXpXpXpXpXpXpXpXpXpX",
"pXpXpXpXpXpXpXpXpXpXpXpXpXpXpXpXpXpXpXpXpXpXpXpXpXwXg.*.=.-.<.1.1.4.8.8.t.|.5XpXpXpXpXpXpXpXpXpXpXpXpXpXpXpXpXpXpXpXpXpXpXpXpXpX",
"pXpXpXpXpXpXpXpXpXpXpXpXpXpXpXpXpXpXpXpXpXpXpXpX1X4.-.;.<.<.3.d.a.c.b.v.n.b.n.%XyXpXpXpXpXpXpXpXpXpXpXpXpXpXpXpXpXpXpXpXpXpXpXpX",
"pXpXpXpXpXpXpXpXpXpXpXpXpXpXpXpXpXpXpXpXpXpXpX*X;.<.<.1.w.w.d.n.N.H.U./.U.U.I.I.|.eXpXpXpXpXpXpXpXpXpXpXpXpXpXpXpXpXpXpXpXpXpXpX",
"pXpXpXpXpXpXpXpXpXpXpXpXpXpXpXpXpXpXpXpXpXpXoX1.3.3.1.0.w.d.n.H.D./.`.`.`.`._././.`.8XpXpXpXpXpXpXpXpXpXpXpXpXpXpXpXpXpXpXpXpXpX",
"pXpXpXpXpXpXpXpXpXpXpXpXpXpXpXpXpXpXpXpXpX:X8.3.3.1.e.d.g.v.D.H.H.).}.`.`.[.`.`./.U.U.8XpXpXpXpXpXpXpXpXpXpXpXpXpXpXpXpXpXpXpXpX",
"pXpXpXpXpXpXpXpXpXpXpXpXpXpXpXpXpXpXpXpXtXn.w.0.0.e.g.v.V.V.D.H./.`.`.`.`.`.`.[.`.)./.`.eXpXpXpXpXpXpXpXpXpXpXpXpXpXpXpXpXpXpXpX",
"pXpXpXpXpXpXpXpXpXpXpXpXpXpXpXpXpXpXpXpX#Xa.0.0.w.f.c.n.Z.G.J.H./.`.`.{.`.`.`.{.`.`.(.L.oXpXpXpXpXpXpXpXpXpXpXpXpXpXpXpXpXpXpXpX",
"pXpXpXpXpXpXpXpXpXpXpXpXpXpXpXpXpXpXpXyXn.w.0.w.g.n.n.V.D.D.~./.^./.).`.}.`.[.).`.`.(.K.m.-XpXpXpXpXpXpXpXpXpXpXpXpXpXpXpXpXpXpX",
"pXpXpXpXpXpXpXpXpXpXpXpXpXpXpXpXpXpXpX-Xd.w.0.r.V.n.n.V.D.H.H.H.S.V.G.J.[.[.}.[.`.`.).P.D.U.tXpXpXpXpXpXpXpXpXpXpXpXpXpXpXpXpXpX",
"pXpXpXpXpXpXpXpXpXpXpXpXpXpXpXpXpXpXpX_.a.r.e.v.Z.m.Z.D.S.m.g.6.5.u.k.z.G./.[.[.[.).)./.U.U.:XpXpXpXpXpXpXpXpXpXpXpXpXpXpXpXpXpX",
"pXpXpXpXpXpXpXpXpXpXpXpXpXpXpXpXpXpX1Xb.r.t.t.A.K.Z.D.n.a.,.&.5.&.5.5.6.u.u.G.[.`.)././.(.(.|.iXpXpXpXpXpXpXpXpXpXpXpXpXpXpXpXpX",
"pXpXpXpXpXpXpXpXpXpXpXpXpXpXpXpXpXpX Xv.d.c.B.K.K.K.K.d.$.P A K U ^ s.w.6.$.%.z./.U.D.I.U.].(.2XpXpXpXpXpXpXpXpXpXpXpXpXpXpXpXpX",
"pXpXpXpXpXpXpXpXpXpXpXpXpXpXpXpXpX7XN.c.c.c.Z.L.K.I.D.] A =.a.D.'.I.[.P./.U. .z $.g.n.H.U.(.T.[.eXpXpXpXpXpXpXpXpXpXpXpXpXpXpXpX",
"pXpXpXpXpXpXpXpXpXpXpXpXpXpXpXpXpXoXN.v.c.t.V.L.U.K.] e M ` $./ &.P &.@.@.%.^ M L q.V.F.U.U.U.].oXtXpXpXpXpXpXpXpXpXpXpXpXpXpXpX",
"pXpXpXpXpXpXpXpXpXpXpXpXpXpXpXpXtX_.m.t.f.f.V.U.U.v.` I / ^ ^ @.@.&.l.l.l.S./.'.U.D.D.D.U.U.|.`..XXX8XpXpXpXpXpXpXpXpXpXpXpXpXpX",
"pXpXpXpXpXpXpXpXpXpXpXpXpXpXpXpX=X^.b.c.x.x.A.L.L.n.d.d.d.d.V.V.S.I.J.[.[.}.}.[.[./.F.F.L.T.|.|..X`.{.4XpXpXpXpXpXpXpXpXpXpXpXpX",
"pXpXpXpXpXpXpXpXpXpXpXpXpXpXpXiX X^.c.f.t.B.V.L.A.V.n.g.d.g.g.S.J.'.'.[.[.}.[.}.[./.V.A.L.I.(.|.{.}./.}.6XpXpXpXpXpXpXpXpXpXpXpX",
"pXpXpXpXpXpXpXpXpXpXpXpXpXpXpX;X_.M.c.t.t.v.B.A.A.A.A.V.g.d.3.,.$.6.g.I.).~.).[.`.D.B.V.I.].].`.}.`.J.C.}.tXpXpXpXpXpXpXpXpXpXpX",
"pXpXpXpXpXpXpXpXpXpXpXpXpXpX*Xd._.N.t.r.t.c.A.F.Y.L.F.V.w./ P M M &.j.C.3.@.G.[.I.g.V.I.[.`.{.|. X.X'.F.z.;XpXpXpXpXpXpXpXpXpXpX",
"pXpXpXpXpXpXpXpXpXpXpXpXpX2X$.,.^.N.f.r.e.B.A.L.Y.].'.n.L P ,.$.w.C.F.'./.'.).~.V.C.Y.}.XX.X.X X.X[.`./.G.).iXpXpXpXpXpXpXpXpXpX",
"pXpXpXpXpXpXpXpXpXpXpXpX6Xd.J %.P.b.r.d.t.B.L.Y.].[.[.D.U ^ e.j.C.C.'.}.}.[.[.J.C.J.[.XXXXXX.X.X.X.X[.J./.J.rXpXpXpXpXpXpXpXpXpX",
"pXpXpXpXpXpXpXpXpXpXpXuXH.J J 4.^.b.d.t.t.V.F.Y.].|.|.}.D.-.6.s.l.S.'.[.[.[.[.'.'.[.}..XXX.X.X|.}..X}.J.[.G.eXpXpXpXpXpXpXpXpXpX",
"pXpXpXpXpXpXpXpXpXpXpX5XU C J $.P.b.d.t.t.B.F.Y.].|.oXoXoXF.-.4.s.C.'.}.[.[.}.}.[.[.}.}.XXXX{.|.[.}.}.~.).z.uXpXpXpXpXpXpXpXpXpX",
"pXpXpXpXpXpXpXpXpXpXpX;XH C C ,.^.b.t.d.t.B.A.Y.].|.}.oXoX[.v.-.7.C.'.}.|.}.}.}.'.(.).|.[.}.[.[..X|.}.~.J.7.iXpXpXpXpXpXpXpXpXpX",
"pXpXpXpXpXpXpXpXpXpXpX#XZ C c @.P.b.t.c.x.B.A.L.].[.}.}..X].D.4.q.j.Y.}.}.|.}.[.'.(.].[.[.[.[.[.[.[.}.a.G.7.pXpXpXpXpXpXpXpXpXpX",
"pXpXpXpXpXpXpXpXpXpXpX#Xv P v P ^.m.c.x.x.v.A.L.].].].|.].T.Z.w.7.j.Y.|.[.|.'.'.I./.'.[.[.].].[.[.[.`.' 7.z.pXpXpXpXpXpXpXpXpXpX",
"pXpXpXpXpXpXpXpXpXpXpXXXv +.P K P.m.x.x.x.x.B.A.Y.%X].].].T.B.q.:.j.Y.].'.'.F.j.s.e.j.F.U.].].T.].[.`.R P &XpXpXpXpXpXpXpXpXpXpX",
"pXpXpXpXpXpXpXpXpXpXpX`.x +.+.G b.b.c.v.x.x.x.B.C.Y.L.L.L.H.V.;.:.y.Y.|.].L.7.@.O.-.B.L.L.Z.A.T.].`.).D n wXpXpXpXpXpXpXpXpXpXpX",
"pXpXpXpXpXpXpXpXpXpXpXoXx o.+.m b.c.x.x.x.x.e.e.q.q.e.4.w.d.n.e.:.y.T.|.T.Z.*.P / ` 3.p.<.L t.(.[.`.(.D u iXpXpXpXpXpXpXpXpXpXpX",
"pXpXpXpXpXpXpXpXpXpXpX-Xv o.U w 9.c.x.x.x.;.` U ,.4.a.a.2.) =.t.:.y.].|.].V.:.M 4 @ 4 9 7 #.U.'.[.]._.D @ ,XpXpXpXpXpXpXpXpXpXpX",
"pXpXpXpXpXpXpXpXpXpXpX6X;.P n 3 ` 0.x.x.x.;.*.M 5 6 , > a V e.t.y.C.]..X].A.q.:.P S I =.Z.(.`.`.`.`.P.g > | pXpXpXpXpXpXpXpXpXpX",
"pXpXpXpXpXpXpXpXpXpXpXiX#X' 1 1 I 0.x.q.;.q.q.8.U b e m ) j.K.V.B.A.Y.].T.Y.B.x.e.x.(..X'.(.(.P.K.|.N.g > k iXpXpXpXpXpXpXpXpXpX",
"pXpXpXpXpXpXpXpXpXpXpXpXuXW.> < F 0.q.q.q.;.0.r.f.v.B.I.|.|.].V.B.B.F.T.|.Y.L.A.V.K.].`.`.U.b.p.v.T. .p > 6 3XpXpXpXpXpXpXpXpXpX",
"pXpXpXpXpXpXpXpXpXpXpXpXpXW # > N 1.0.8.<.;.;.0.t.f.B.L.(.`.Z.v.j.F.I.[.|.T.K.K.P.H.^.M. .] ' <.m.K.D 8 < > !.pXpXpXpXpXpXpXpXpX",
"pXpXpXpXpXpXpXpXpXpXpXpXwX8 # # s ` <.;.` I ` ` <.e.t.g.d.p.9.0.g.U.'.[.|.].M.i.E E k i f n I 9.b.] 9 $ < > X.iXpXpXpXpXpXpXpXpX",
"pXpXpXpXpXpXpXpXpXpXpXpX$X= # $ 0 ! =.=.` F n S S g 0 p p p g ( V./.).).).`._.i.E N g N 4 w s w m n > > > > } uXpXpXpXpXpXpXpXpX",
"pXpXpXpXpXpXpXpXpXpXpXpXR.# # - 8 D G G G I F n g f p 0 0 a B G ) >.p.>./ M.g.i.~ D F q q b 0 4 % 8 # # - # i uXpXpXpXpXpXpXpXpX",
"pXpXpXpXpXpXpXpXpXpXpXpX..& # - < 1 1 $ 4 m f q w d S I ! S 9 5 d K G M z ` I d q q 5 6 b S s < # # + O + + # eXpXpXpXpXpXpXpXpX",
"pXpXpXpXpXpXpXpXpXpXpXpX_ & O - # O .   @ % X X % 4 q b b 4 % % 5 b b b S z 5 6 d w , p g m f $ + O + O + . r uXpXpXpXpXpXpXpXpX",
"pXpXpXpXpXpXpXpXpXpXpXuXh O O & O . o   . .   X $ @ 4 9 9 % + % 4 q a s w 4 4 0 5 0 4 d a f 0 + O O O O O & r pXpXpXpXpXpXpXpXpX",
"pXpXpXpXpXpXpXpXpXpXpXrXh O O O O . o   o     X @ X % 5 5 @ X 1 $ 6 $ , , + 6 4 , $ , a 0 4 $ . . - O o o . j pXpXpXpXpXpXpXpXpX",
"pXpXpXpXpXpXpXpXpXpXpX0Xy & & & o o             . X , 5 , X + , + , X @ + X @ @ $ @ @ s 6 @ . . O = . o O & | pXpXpXpXpXpXpXpXpX",
"pXpXpXpXpXpXpXpXpXpXpX6Xh = & O o   O   o       . . @ 4 @ . X @ o O   X . . X   + . @ 4 $ X     O O   o O * +XpXpXpXpXpXpXpXpXpX",
"pXpXpXpXpXpXpXpXpXpXpXrX_ : = O o o O               X $ . .             o o     O . + + .     . o O o O * & 3XpXpXpXpXpXpXpXpXpX",
"pXpXpXpXpXpXpXpXpXpXpXiXQ.r = O o O o           .   . . .                     X . . . .         o O o   O t uXpXpXpXpXpXpXpXpXpX",
"pXpXpXpXpXpXpXpXpXpXpXpX<Xl ; = & o o o o o           o                         o     o         O O o   O Q pXpXpXpXpXpXpXpXpXpX",
"pXpXpXpXpXpXpXpXpXpXpXpXuX{ y : = O o o o o o                                   o   o             O o o O OXpXpXpXpXpXpXpXpXpXpX",
"pXpXpXpXpXpXpXpXpXpXpXpXpX+XY : = & o o o o       o                                             o O   o < tXpXpXpXpXpXpXpXpXpXpX",
"pXpXpXpXpXpXpXpXpXpXpXpXpXiXX.: & o o o o o                                                     o o     | pXpXpXpXpXpXpXpXpXpXpX",
"pXpXpXpXpXpXpXpXpXpXpXpXpXpXuXT = O o o   o   o   o       o o o                 .               o o O 3 3XpXpXpXpXpXpXpXpXpXpXpX",
"pXpXpXpXpXpXpXpXpXpXpXpXpXpXpXqXl & o o o o o o     o     o   o                 . o   o     o o . o + h.iXpXpXpXpXpXpXpXpXpXpXpX",
"pXpXpXpXpXpXpXpXpXpXpXpXpXpXpXpX4Xr & & & & o o o   o                     o     .     o     . O o O [ 4XpXpXpXpXpXpXpXpXpXpXpXpX",
"pXpXpXpXpXpXpXpXpXpXpXpXpXpXpXpXpX@X: * = & o o o             o                 O     o o o O . . D $XiXpXpXpXpXpXpXpXpXpXpXpXpX",
"pXpXpXpXpXpXpXpXpXpXpXpXpXpXpXpXpXpXR.Y y & o O O O   o     O o     o   o o o o O o o o o O . O l OXrXpXpXpXpXpXpXpXpXpXpXpXpXpX",
"pXpXpXpXpXpXpXpXpXpXpXpXpXpXpXpXpXpXiX+XW Y 2 2 ; & O O o O O O o o o o & O & O O   o .   O # } #XrXpXpXpXpXpXpXpXpXpXpXpXpXpXpX",
"pXpXpXpXpXpXpXpXpXpXpXpXpXpXpXpXpXpXpXpXrX4XE.W r : O & O O * * & O O & * ; * * * o O O o > h.,XiXpXpXpXpXpXpXpXpXpXpXpXpXpXpXpX",
"pXpXpXpXpXpXpXpXpXpXpXpXpXpXpXpXpXpXpXpXpXpXpXqXR.r = & & = ; ; ; ; ; - r 2 2 - - O O O u h.wXpXpXpXpXpXpXpXpXpXpXpXpXpXpXpXpXpX",
"pXpXpXpXpXpXpXpXpXpXpXpXpXpXpXpXpXpXpXpXpXpXpXpXpX0X{ ; : r T X...T } Q k r i l k * k | @XwXpXpXpXpXpXpXpXpXpXpXpXpXpXpXpXpXpXpX",
"pXpXpXpXpXpXpXpXpXpXpXpXpXpXpXpXpXpXpXpXpXpXpXpXpXpXiX!.Q } @X3X0X4X3X>X@XQ.>XpXiX4X,X=XqXpXpXpXpXpXpXpXpXpXpXpXpXpXpXpXpXpXpXpX",
"pXpXpXpXpXpXpXpXpXpXpXpXpXpXpXpXpXpXpXpXpXpXpXpXpXpXpXpXiXqXrXpXpXpXpXpXpXpXpXpXpXpXpXpXpXpXpXpXpXpXpXpXpXpXpXpXpXpXpXpXpXpXpXpX",
"pXpXpXpXpXpXpXpXpXpXpXpXpXpXpXpXpXpXpXpXpXpXpXpXpXpXpXpXpXpXpXpXpXpXpXpXpXpXpXpXpXpXpXpXpXpXpXpXpXpXpXpXpXpXpXpXpXpXpXpXpXpXpXpX"
};
