/* XPM */
static char *result[] = {
/* columns rows colors chars-per-pixel */
"64 64 220 2 ",
"   c #030606",
".  c #060807",
"X  c #080907",
"o  c #030709",
"O  c #05090B",
"+  c #0A0C0B",
"@  c #110E0B",
"#  c #0C100F",
"$  c #14110D",
"%  c #1B150E",
"&  c #070D11",
"*  c #090F12",
"=  c #0C1214",
"-  c #0D1719",
";  c #131412",
":  c #131717",
">  c #1B1611",
",  c #1B1914",
"<  c #141B1E",
"1  c #1D1D1C",
"2  c #231B13",
"3  c #2A1F16",
"4  c #261F1A",
"5  c #28231A",
"6  c #2C231C",
"7  c #33261D",
"8  c #35291E",
"9  c #392A1E",
"0  c #151E21",
"q  c #1C2425",
"w  c #282826",
"e  c #21262A",
"r  c #352B22",
"t  c #3A2C23",
"y  c #3D3226",
"u  c #37332C",
"i  c #3C342A",
"p  c #2E3837",
"a  c #353636",
"s  c #3B3633",
"d  c #393A3B",
"f  c #68331F",
"g  c #433326",
"h  c #43362A",
"j  c #4A3528",
"k  c #463A2E",
"l  c #4D3B2C",
"z  c #523A2B",
"x  c #593B2D",
"c  c #493B32",
"v  c #553E31",
"b  c #6B3B26",
"n  c #773923",
"m  c #4D4234",
"M  c #474339",
"N  c #554434",
"B  c #584738",
"V  c #5D4B3B",
"C  c #64432E",
"Z  c #73442E",
"A  c #7B432C",
"S  c #694B36",
"D  c #634D3B",
"F  c #774B36",
"G  c #6B533C",
"H  c #75533C",
"J  c #7D563B",
"K  c #363F42",
"L  c #3B4344",
"P  c #484546",
"I  c #464848",
"U  c #564C42",
"Y  c #4C4E50",
"T  c #4B5254",
"R  c #4D5A57",
"E  c #575859",
"W  c #6C5243",
"Q  c #695646",
"!  c #7D5441",
"~  c #745A45",
"^  c #785947",
"/  c #6E5550",
"(  c #73604D",
")  c #7C614B",
"_  c #6B6356",
"`  c #786857",
"'  c #79705E",
"]  c #575E61",
"[  c #5D6463",
"{  c #64686A",
"}  c #737065",
"|  c #6B7273",
" . c #757878",
".. c #86563D",
"X. c #865747",
"o. c #8C5D52",
"O. c #84654D",
"+. c #8C644C",
"@. c #89684B",
"#. c #946A4C",
"$. c #856553",
"%. c #8D6553",
"&. c #856A52",
"*. c #8B6C54",
"=. c #886A5A",
"-. c #8E6E59",
";. c #926554",
":. c #936B54",
">. c #986F56",
",. c #96665A",
"<. c #956B5B",
"1. c #8F7254",
"2. c #8E715A",
"3. c #927355",
"4. c #93745C",
"5. c #9B745A",
"6. c #957A5D",
"7. c #997B5D",
"8. c #9D6C63",
"9. c #887763",
"0. c #937562",
"q. c #9B7462",
"w. c #967B62",
"e. c #9A7D62",
"r. c #957C68",
"t. c #9B7E6A",
"y. c #947D72",
"u. c #A27B63",
"i. c #A67A6F",
"p. c #A37C6C",
"a. c #A47E72",
"s. c #9B805F",
"d. c #978266",
"f. c #9B8163",
"g. c #95826A",
"h. c #9C836A",
"j. c #9C896D",
"k. c #928371",
"l. c #9D8572",
"z. c #9C8A72",
"x. c #9F8E7A",
"c. c #A28366",
"v. c #A98164",
"b. c #A2856B",
"n. c #A9876F",
"m. c #A4896D",
"M. c #A98B6E",
"N. c #A48673",
"B. c #A48B73",
"V. c #AA8D73",
"C. c #A8847A",
"Z. c #A58D7A",
"A. c #AA8D7B",
"S. c #B08D74",
"D. c #A69177",
"F. c #AB9275",
"G. c #A4927C",
"H. c #AC947C",
"J. c #AE997D",
"K. c #B09377",
"L. c #B1967A",
"P. c #B1997E",
"I. c #817F81",
"U. c #838686",
"Y. c #8C9392",
"T. c #99999A",
"R. c #AB8C80",
"E. c #A69482",
"W. c #AC9583",
"Q. c #A99987",
"!. c #AE9984",
"~. c #AE9A8B",
"^. c #B19583",
"/. c #B29B84",
"(. c #B29D8C",
"). c #BD988E",
"_. c #B29E90",
"`. c #B5A18D",
"'. c #B3A292",
"]. c #B8A99A",
"[. c #9F9FA1",
"{. c #A6A6A5",
"}. c #AAADAC",
"|. c #B6AEA7",
" X c #AAB0AF",
".X c #B9B2A9",
"XX c #B9B9B8",
"oX c #C2B3A4",
"OX c #C9B8AA",
"+X c #C6BDB3",
"@X c #C9B8B2",
"#X c #BCC2BF",
"$X c #CCC4B9",
"%X c #D2C6BB",
"&X c #C3C4C3",
"*X c #C6CBC9",
"=X c #CACBCB",
"-X c #D5CDC4",
";X c #D5CDCB",
":X c #DDD3CC",
">X c #CFD0D0",
",X c #D3D4D4",
"<X c #D5D7D4",
"1X c #DCDCDC",
"2X c #E0D8CF",
"3X c #E1DBD4",
"4X c #E4DEDA",
"5X c #E5E1DD",
"6X c #E9E2DD",
"7X c #E4E5E4",
"8X c #E9E8E6",
"9X c #EDE9E5",
"0X c #EDEDED",
"qX c #F1EEEB",
"wX c #EEF0EF",
"eX c #F3F1EF",
"rX c #F5F5F4",
"tX c #F8F6F5",
"yX c #F8F8F7",
"uX c #FFFFFFFF",
/* pixels */
"uXuXuXuXuXuXuXuXuXuXuXuXuXuXuXuXuXuXuXuXuXuXuXuXuXuXuXuXuXuXuXuXuXuXuXuXuXuXuXuXuXuXuXuXuXuXuXuXuXuXuXuXuXuXuXuXuXuXuXuXuXuXuXuX",
"uXuXuXuXuXuXuXuXuXuXuXuXuXuXuXuXuXuXuXuXuXuXuXuXuXuXuXuXuXuXuXuXuXuXuXuXuXuXuXuXuXuXuXuXuXuXuXuXuXuXuXuXuXuXuXuXuXuXuXuXuXuXuXuX",
"uXuXuXuXuXuXuXuXuXuXuXuXuXuXuXuXuXuXuXuXuXuXuXuXuXuX8X1X*X8X1X0XuXuXuXuXuXuXuXuXuXuXuXuXuXuXuXuXuXuXuXuXuXuXuXuXuXuXuXuXuXuXuXuX",
"uXuXuXuXuXuXuXuXuXuXuXuXuXuXuXuXuXuXtXyX0X0X8X,X*X{.T.] T L T |  X=X1XrXuXuXuXuXuXuXuXuXuXuXuXuXuXuXuXuXuXuXuXuXuXuXuXuXuXuXuXuX",
"uXuXuXuXuXuXuXuXuXuXuXuXuXuXuXuXuX1XXX{ | R ] K T p q 0 - - * - e e R Y. X,XuXuXuXuXuXuXuXuXuXuXuXuXuXuXuXuXuXuXuXuXuXuXuXuXuXuX",
"uXuXuXuXuXuXuXuXuXuXuXuXuXuXuXuX0X[.K 0 * = & < 0 = O & * & O o & & - 0 K [  X1XuXuXuXuXuXuXuXuXuXuXuXuXuXuXuXuXuXuXuXuXuXuXuXuX",
"uXuXuXuXuXuXuXuXuXuXuXuXuXuXuXyX>XI.e * & & & & & o o o & O o o O O & - 0 q p U.&XrXuXuXuXuXuXuXuXuXuXuXuXuXuXuXuXuXuXuXuXuXuXuX",
"uXuXuXuXuXuXuXuXuXuXuXuXuXuX8X&XU.K 0 & o & o o o o o o o o o o O O & & - - - e R #XwXuXuXuXuXuXuXuXuXuXuXuXuXuXuXuXuXuXuXuXuXuX",
"uXuXuXuXuXuXuXuXuXuXuXyXuX>XT.] p < & & o o   o     o o       o o o O O & & & * 0 L 1XyXuXuXuXuXuXuXuXuXuXuXuXuXuXuXuXuXuXuXuXuX",
"uXuXuXuXuXuXuXuXuXuXuX7X{. .T q & & & o o o     o o         o   o o o O o o & & * - | 7XuXuXuXuXuXuXuXuXuXuXuXuXuXuXuXuXuXuXuXuX",
"uXuXuXuXuXuXuXuXuXuX<X{ P e 0 & & o o o o           o               o o o o O & & & 0  XyXuXuXuXuXuXuXuXuXuXuXuXuXuXuXuXuXuXuXuX",
"uXuXuXuXuXuXuXuXuX7X[.p < 0 * O o o o   o o   o   o     o       o o   o o o o O O O - R 0XuXuXuXuXuXuXuXuXuXuXuXuXuXuXuXuXuXuXuX",
"uXuXuXuXuXuXrX8X}.U.0 : : = & O                 o             X             o O & O O p Y.uXuXuXuXuXuXuXuXuXuXuXuXuXuXuXuXuXuXuX",
"uXuXuXuXuXuX,X{.P + = & & + O o         o                                   o O # = & # R *XuXuXuXuXuXuXuXuXuXuXuXuXuXuXuXuXuXuX",
"uXuXuXuXuX0X.XY + o O & O o O                                           o     X # : # # q  XrXuXuXuXuXuXuXuXuXuXuXuXuXuXuXuXuXuX",
"uXuXuXuXuXwXT.w O o o O O                         o   o X X X X o       o O O ; 5 1 ; # $ [ rXuXuXuXuXuXuXuXuXuXuXuXuXuXuXuXuXuX",
"uXuXuXuXuX1X] + o o   o O                             X @ $ @ X X + . X @ @ % y B k 5 : $ p XXwXyXuXuXuXuXuXuXuXuXuXuXuXuXuXuXuX",
"uXuXuXuXuX=XP X o o o     O                       O   X @ 2 % @ + + X @ 8 9 m ~ ) ) m 6 ; q | Q.+X5XuXuXuXuXuXuXuXuXuXuXuXuXuXuX",
"uXuXuXuXeX{.s o o o       O                         X . $ 2 2 % $ % @ 5 m N G ) &.*.) V 5 , i J F ~.3XuXuXuXuXuXuXuXuXuXuXuXuXuX",
"uXuXuXuX9XI.1 o o o         O                     + @ + @ 3 3 3 3 3 9 y l N D ) *.1.3.) V 1 y Z A A !.qXuXuXuXuXuXuXuXuXuXuXuXuX",
"uXuXuXtX;X] O O O                                 + , + @ 2 7 l g m r y N D ~ ) *.1.4.6.` V y H ..n X.].uXuXuXuXuXuXuXuXuXuXuXuX",
"uXuXuXuX+XI O o                                 ; % > $ @ % g V N 6 y V ) &.@.1.1.3.6.6.s.d.D D ....n h.-XuXuXuXuXuXuXuXuXuXuXuX",
"uXuXuXrXXXa + O                   X       X X @ $ 6 % % % 2 v k ; u D 1.3.4.3.3.1.1.6.s.f.d.d.Q F F A A _.8XuXuXuXuXuXuXuXuXuXuX",
"uXuXuXyXXXc o o                   X     X X @ % , 7 9 3 5 9 t w i ( f.s.s.s.1.1.@.@.s.s.f.d.g.d.H b b b &.$XuXuXuXuXuXuXuXuXuXuX",
"uXuXuXuX&Xa O o o o o         X X X . + @ @ % 5 t g z z v D c M ' m.V.b.e.D C C J 3.s.s.s.s.d.x.0.! f b Z ~.0XuXuXuXuXuXuXuXuXuX",
"uXuXuXuX;Xu O O o o           X @ X @ $ , 4 2 9 j z G ) 9.=.( 2.D.`.H.4.9 7 g S @.3.s.s.s.s.d.g.Z.q.J b Z l.8XuXuXuXuXuXuXuXuXuX",
"uXuXuXuX1XE o o . o o       O @ > @ @ % 2 3 3 z z v =.l.H.b.7.h.J.!.9.r 3 c O.3.7.s.c.7.s.s.s.d.k.x.<.H Z Z.qXuXuXuXuXuXuXuXuXuX",
"uXuXuXuXeXE + o O + o       X > 7 4 > 2 3 3 r W $.=.N.(.^.V.c.c.J.m.~ h B t.7.e.m.M.v.c.s.f.d.s.d.z.l.%.Z E.qXuXuXuXuXuXuXuXuXuX",
"uXuXuXuXtX[.@ o o O O o   o X > 6 r 2 5 r t c 9.E.W.(.(.P.n.c.c.b.e.x ( r.4.b.J.P.L.S.M.c.e.e.6.w.g.G.r.+.A.tXuXuXuXuXuXuXuXuXuX",
"uXuXuXuXuX#Xd O o   O O .   X 2 6 r 7 , r y ` y.E.~.(.(.^.V.m.c.7.4.4.0.q.N.W./././.K.K.n.c.e.7.w.w.j.E.t.|.eXuXuXuXuXuXuXuXuXuX",
"uXuXuXuXuX7XY * O o   O + o + 5 g y r 6 g U U _ y.G.!./././.K.v.>.5.6.h.D.J.^.`.`.`./.L.V.M.c.e.w.6.d.G.E.$XyXuXuXuXuXuXuXuXuXuX",
"uXuXuXuXuXuX[.* & O o O & O + 3 h l t 6 c u U ' z.G.F.P./.`.`.S.5.#.:.f.V.P./.`.`.`.`./.K.S.m.f.7.6.6.z.E.+XuXuXuXuXuXuXuXuXuXuX",
"uXuXuXuXuXuX7XT # O O O & O # : 8 g 9 w u M } z.M.v.M.M.K.`.`./.v.#.#.>.m.^.`.'.'.'.'.(.P.K.M.c.7.7.f.d.G.].8XuXuXuXuXuXuXuXuXuX",
"uXuXuXuXuXuXeXT.0 O . O O + + $ 4 6 t w s _ !.V.s.s.3.3.v.P./.P.S.u.>.>.7.V.`.].].'.'.(./.K.M.m.s.7.7.d.z.'.0XuXuXuXuXuXuXuXuXuX",
"uXuXuXuXuXuXuXXXd . . . O # : , 8 h m B ' E.(.F.s.S S J 3.B./.`.P.S.u.>.:.4.b.Z.W.!./././.K.M.m.c.s.e.f.d.G.-XuXuXuXuXuXuXuXuXuX",
"uXuXuXuXuXuXuXuX .0 . # X + , i Q ` ( ` l./.(.h.m 9 9 C @.c.P.(.`.L.n.u.:.;.+.:.%.$.B.L.K.S.M.S.m.h.e.6.f.z.+XyXuXuXuXuXuXuXuXuX",
"uXuXuXuXuXuXuXuXwXd = # & + ; m 6.d.&.g.W.!.h.N 9 t H ..+.N.^.(.).(.^.n.u.u.5.>.X.S :.m.M.m.m.F.S.m.s.s.f.j.].yXuXuXuXuXuXuXuXuX",
"uXuXuXuXuXuXuXuXuX X1 ; ; ; , i g.j.r.x.!.J.) g G 7.+.+.e.H.(.(.`._./.H.n.b.p.>.! ! r.h.m.h.m.D.L.M.j.s.f.d.G.5XuXuXuXuXuXuXuXuX",
"uXuXuXuXuXuXuXuXuXyXT.P ; : : k 9.H.G.W.~.N.C ~ B.c.5.m.A.^.(._._.(._.).A.n.4.S H %.w.d.w.w.w.B.J.F.m.f.6.w.x.5XuXuXuXuXuXuXuXuX",
"uXuXuXuXuXuXuXuXuXuXyX{.I > ; w ' E.!.(.(.A.@.e.F.D.V.W.^.^._._._._.(._.^.b.%.b ^ 4.t.d.0.) W j.F.F.M.f.6.w.j.$XuXuXuXuXuXuXuXuX",
"uXuXuXuXuXuXuXuXuXuXuX0X}.P 0 4 M G./.~./.L.M.J.!./.`./.!./._._.(.(._.^.H.u.X.%.w.p.t.e.^ z D h.F.F.F.h.6.4.6..XeXuXuXuXuXuXuXuX",
"uXuXuXuXuXuXuXuXuXuXuXuXqX&XP 4 5 _ Q.~.~.P.J./.!.~.~./.(./.^.W.W.(.R.t.N.p.N.N.A.t.4.! ! v W h.D.B.M.b.6.4.6.E.tXuXuXuXuXuXuXuX",
"uXuXuXuXuXuXuXuXuXuXuXuXuXuX&XI.: u ' ~.~.~././.~._.'.'._._.~.V.A.W.C.<.Z.(.W.W.V.o.F $.*.F ^ g.m.j.m.b.4.4.2.E.1XuXuXuXuXuXuXuX",
"uXuXuXuXuXuXuXuXuXuXuXuXuXuXuX0XT.s M G.(.`.Q.`.Q.'.'.'.'._.R.N.C.!.W.R.(.(.^.A.,.X.-.4.$.! %.r.B.j.h.h.0.1.4.d.5XuXuXuXuXuXuXuX",
"uXuXuXuXuXuXuXuXuXuXuXuXuXuXuXuXeXy.D _ Q._.(._._._.'.].].'.H.b.Z./.~._._._.A.,.;.%.B.0.! X.<.l.m.m.d.h.w.-.4.l.:XuXuXuXuXuXuXuX",
"uXuXuXuXuXuXuXuXuXuXuXuXuXuXuXuXrXOX,.$.z.'.`.`._.'.'.'.].`.A.c.B.~.(.(.(.C.,.;.t.J.<.F X.,.t.B.B.j.h.f.4.2.-.0.:XuXuXuXuXuXuXuX",
"uXuXuXuXuXuXuXuXuXuXuXuXuXuXuXuXuX-Xi.n.z.~.'._.~.'.'.'._.~.V.b.Z.!.(.~.A.q.%.t.W.q.X.,.8.q.Z.Z.B.b.b.e.4.1.-.e.5XuXuXuXuXuXuXuX",
"uXuXuXuXuXuXuXuXuXuXuXuXuXuXuXuXuXuX).a.W.G._.'.'.'.'.'.~.!.V.m.B.H.H.B.~ ~ t.l.%.,.8.8.8.l.Z.A.V.b.h.e.4.*.-.^.9XuXuXuXuXuXuXuX",
"uXuXuXuXuXuXuXuXuXuXuXuXuXuXuXuXuXuXqXa.^.^.W.(._._.'.~.!.J.F.F.V.B.h.! x / =.o.8.i.i.p.N.R.R.A.B.b.e.0.3.*.%.oXyXuXuXuXuXuXuXuX",
"uXuXuXuXuXuXuXuXuXuXuXuXuXuXuXuXuXuXuX;XR.^.^.^.~._.'.(.`.J.J.J.F.m.e.0.q.y.a.a.C.R.R.W.Q.Q.W.Z.B.N.w.4.*.&.2.$XuXuXuXuXuXuXuXuX",
"uXuXuXuXuXuXuXuXuXuXuXuXuXuXuXuXuXuXuXeX@X^.C.A.W.~.'.~.(.!.P.P.H.B.B.B.~.~.~.~.~.~.~._.~.~.~.Z.Z.j.r.4.%.&.N.9XuXuXuXuXuXuXuXuX",
"uXuXuXuXuXuXuXuXuXuXuXuXuXuXuXuXuXuXuXuXtX@X).C.B.H.~.'.`.(./.P.J.H.A.R.R.~.~.(.~._._.~.~._.Q.B.Z.h.6.-.+.O.].yXuXuXuXuXuXuXuXuX",
"uXuXuXuXuXuXuXuXuXuXuXuXuXuXuXuXuXuXuXuXuXrX7X+X.X]._.].'.'./.!.J.!.J.W.W.~.~.~.~.~.~.~.Q.(.Q.W.N.w.3.%.O.G.9XuXuXuXuXuXuXuXuXuX",
"uXuXuXuXuXuXuXuXuXuXuXuXuXuXuXuXuXuXuXuXuXuXuXtXeX9X4X4X1X-XoX]./.!.J.W.!.!.~.(.~._.~.~.~._.!.G.h.4.-.4.!.-XuXuXuXuXuXuXuXuXuXuX",
"uXuXuXuXuXuXuXuXuXuXuXuXuXuXuXuXuXuXuXuXuXuXuXuXuXuXuXuXuXyXeX6XOX`.J.D.D.W.~.~.~.~.~.~.~.W.D.d.4.%.Z.oX4XuXuXuXuXuXuXuXuXuXuXuX",
"uXuXuXuXuXuXuXuXuXuXuXuXuXuXuXuXuXuXuXuXuXuXuXuXuXuXuXuXuXuXuXuXqX2X`.G.G.H.W.Q.~.~.Q.Q.H.B.h.6.w.oX:XeXuXuXuXuXuXuXuXuXuXuXuXuX",
"uXuXuXuXuXuXuXuXuXuXuXuXuXuXuXuXuXuXuXuXuXuXuXuXuXuXuXuXuXuXuXuXuXuX9X2XOX].`.J./.W.W.B.m.j.B.`.6XqXuXuXuXuXuXuXuXuXuXuXuXuXuXuX",
"uXuXuXuXuXuXuXuXuXuXuXuXuXuXuXuXuXuXuXuXuXuXuXuXuXuXuXuXuXuXuXuXuXuXuXuXeXeX6X-X%X$XOX$XoX-X2XuXuXuXuXuXuXuXuXuXuXuXuXuXuXuXuXuX",
"uXuXuXuXuXuXuXuXuXuXuXuXuXuXuXuXuXuXuXuXuXuXuXuXuXuXuXuXuXuXuXuXuXuXuXuXuXuXuXuXuXyXuXrXuXyXuXuXuXuXuXuXuXuXuXuXuXuXuXuXuXuXuXuX",
"uXuXuXuXuXuXuXuXuXuXuXuXuXuXuXuXuXuXuXuXuXuXuXuXuXuXuXuXuXuXuXuXuXuXuXuXuXuXuXuXuXuXuXuXuXuXuXuXuXuXuXuXuXuXuXuXuXuXuXuXuXuXuXuX",
"uXuXuXuXuXuXuXuXuXuXuXuXuXuXuXuXuXuXuXuXuXuXuXuXuXuXuXuXuXuXuXuXuXuXuXuXuXuXuXuXuXuXuXuXuXuXuXuXuXuXuXuXuXuXuXuXuXuXuXuXuXuXuXuX",
"uXuXuXuXuXuXuXuXuXuXuXuXuXuXuXuXuXuXuXuXuXuXuXuXuXuXuXuXuXuXuXuXuXuXuXuXuXuXuXuXuXuXuXuXuXuXuXuXuXuXuXuXuXuXuXuXuXuXuXuXuXuXuXuX",
"uXuXuXuXuXuXuXuXuXuXuXuXuXuXuXuXuXuXuXuXuXuXuXuXuXuXuXuXuXuXuXuXuXuXuXuXuXuXuXuXuXuXuXuXuXuXuXuXuXuXuXuXuXuXuXuXuXuXuXuXuXuXuXuX",
"uXuXuXuXuXuXuXuXuXuXuXuXuXuXuXuXuXuXuXuXuXuXuXuXuXuXuXuXuXuXuXuXuXuXuXuXuXuXuXuXuXuXuXuXuXuXuXuXuXuXuXuXuXuXuXuXuXuXuXuXuXuXuXuX"
};
