/* XPM */
static char *ebda25472a63411e923785c43baaab28dVXOAVCWOTKjkC20[] = {
/* columns rows colors chars-per-pixel */
"64 64 193 2 ",
"   c #161F3C",
".  c #191E3C",
"X  c #19213F",
"o  c #46153E",
"O  c #4A143C",
"+  c #4C193E",
"@  c #1D0F5D",
"#  c #1D105D",
"$  c #3E1345",
"%  c #34124D",
"&  c #391249",
"*  c #271057",
"=  c #2B1154",
"-  c #22105A",
";  c #152143",
":  c #182645",
">  c #1D334E",
",  c #182D54",
"<  c #172F5D",
"1  c #1B3655",
"2  c #24374E",
"3  c #0F0F67",
"4  c #0F0F69",
"5  c #130E65",
"6  c #190F61",
"7  c #100E69",
"8  c #0D126C",
"9  c #161568",
"0  c #0E1670",
"q  c #0F1A74",
"w  c #0F1F7A",
"e  c #121B73",
"r  c #101E7A",
"t  c #173464",
"y  c #1A3963",
"u  c #0E227C",
"i  c #172374",
"p  c #11247E",
"a  c #2A2E74",
"s  c #431342",
"d  c #451944",
"f  c #4F1E43",
"g  c #521F45",
"h  c #542246",
"j  c #562449",
"k  c #5A264B",
"l  c #592A4D",
"z  c #5E2E52",
"x  c #5D3157",
"c  c #633457",
"v  c #633758",
"b  c #673B5C",
"n  c #432963",
"m  c #583763",
"M  c #26475C",
"N  c #26566A",
"B  c #315162",
"V  c #245F71",
"C  c #266275",
"Z  c #69405E",
"A  c #6D4463",
"S  c #704866",
"D  c #754D6A",
"F  c #77526E",
"G  c #7A5370",
"H  c #7E5B76",
"J  c #815D77",
"K  c #85637D",
"L  c #0F2680",
"P  c #0F2982",
"I  c #112B85",
"U  c #11348D",
"Y  c #0F3992",
"T  c #123791",
"R  c #123C95",
"E  c #123E99",
"W  c #174F94",
"Q  c #12429C",
"!  c #15489F",
"~  c #2C7988",
"^  c #1246A1",
"/  c #134AA5",
"(  c #134EA9",
")  c #1C56A5",
"_  c #1352AC",
"`  c #145BB5",
"'  c #165BB5",
"]  c #2057A9",
"[  c #1A65B7",
"{  c #1564BC",
"}  c #156ABE",
"|  c #1A6EB9",
" . c #1567C1",
".. c #1469C3",
"X. c #186EC2",
"o. c #1773C4",
"O. c #1A76C4",
"+. c #1A7CC4",
"@. c #217CC5",
"#. c #3079C7",
"$. c #8C6B84",
"%. c #94788D",
"&. c #977B90",
"*. c #987B92",
"=. c #2E818E",
"-. c #308796",
";. c #32949F",
":. c #3098AD",
">. c #38A5AC",
",. c #39AAB3",
"<. c #3CB5BA",
"1. c #52A19F",
"2. c #7880A6",
"3. c #58B3AB",
"4. c #63BBB0",
"5. c #1E83C6",
"6. c #1F85C8",
"7. c #2782C6",
"8. c #2589C8",
"9. c #318FCA",
"0. c #2491CA",
"q. c #2797C8",
"w. c #299ECC",
"e. c #389DCE",
"r. c #2BA3CE",
"t. c #34A9CE",
"y. c #36B8D2",
"u. c #4BB5D2",
"i. c #4FBAD4",
"p. c #3AC4D4",
"a. c #3ECDD5",
"s. c #3FCDD8",
"d. c #3FD4D5",
"f. c #3FD8D5",
"g. c #42C8CA",
"h. c #45CDD5",
"j. c #53C1D2",
"k. c #41D6D6",
"l. c #44D9D4",
"z. c #48D9D8",
"x. c #50DFD8",
"c. c #67D5D1",
"v. c #5AE5DB",
"b. c #66EDDB",
"n. c #72E7DC",
"m. c #72F4DE",
"M. c #73ECE3",
"N. c #7AF4E3",
"B. c #7BFAE1",
"V. c #9D8396",
"C. c #A2869B",
"Z. c #A3899D",
"A. c #9D9DB3",
"S. c #A88EA0",
"D. c #A793A4",
"F. c #AB93A5",
"G. c #AD97A8",
"H. c #AE98A8",
"J. c #B29CAC",
"K. c #B3A1AE",
"L. c #B6A2B2",
"P. c #B9A6B5",
"I. c #BBA8B6",
"U. c #BCACB9",
"Y. c #C2B1BE",
"T. c #93B4D6",
"R. c #C8BBC6",
"E. c #81FDE2",
"W. c #80F6E9",
"Q. c #CDC1CB",
"!. c #D1C4CD",
"~. c #D6CAD4",
"^. c #D8CED6",
"/. c #DCD3DA",
"(. c #E0D8DE",
"). c #DDDEE7",
"_. c #E3DCE1",
"`. c #E6E4E6",
"'. c #E9E4E7",
"]. c #EBE6EA",
"[. c #ECECECFF",
"{. c #F0ECEF",
"}. c #F1EDF0",
"|. c #F4F4F4FF",
" X c #F5F5F5",
".X c #F7F7F7FF",
"XX c #F8F7F7FF",
"oX c #F9F6F8FF",
"OX c #F7F8F8FF",
"+X c #F8F8F8FF",
"@X c #F9F9F9",
"#X c #FBFAFBFF",
"$X c #FDFEFDFF",
/* pixels */
"+X+X+X+X+X+X+X+X+X+X+X+X+X+X+X+X+X+X+X+X+X+X+X+X+X+X+X+X+X+X+X+X+X+X+X+X+X+X+X+X+X+X+X+X+X+X+X+X+X+X+X+X+X+X+X+X+X+X+X+X+X+X+X+X",
"+X+X+X+X+X+X+X+X+X+X+X+X+X+X+X+X+X+X+X+X+X+X+X+X+X+X+X+X+X+X+X+X+X+X+X+X+X+X+X+X+X+X+X+X+X+X+X+X+X+X+X+X+X+X+X+X+X+X+X+X+X+X+X+X",
"+X+X+X+X+X+X+X+X+X+X+X+X+X+X+X+X+X+X+X+X+X+X+X+X+X+X+X+X+X+XOXOX+X+X+X+X+X+X+X+X+X+X+X+X+X+X+X+X+X+X+X+X+X+X+X+X+X+X+X+X+X+X+X+X",
"+X+X+X+X+X+X+X+X+X+X+X+X+X+X+X+X+X+X+X+X+X+X+X+X+X+X+X+X+X+XOXOX+X+X+X+X+X+X+X+X+X+X+X+X+X+X+X+X+X+X+X+X+X+X+X+X+X+X+X+X+X+X+X+X",
"+X+X+X+X+X+X+X+X+X+X+X+X+X+X+X+X+X+X+X+X+X+X+X+X+X+X.X.X.XOX.X.X.X.X.X|.+X.X.X.X+X+X+X+X+X+X+X+X+X+X+X+X+X+X+X+X+X+X+X+X+X+X+X+X",
"+X+X+X+X+X+X+X+X+X+X+X+X+X+X+X+X+X+X+X+X+X+X+XoX+X+X.X|.|..X[.|..X.X.X|..X|..X.X+X+X+X+X+X+X+X+X+X+XXX.X+X+X+X+X+X+X+X+X+X+X+X+X",
"+X+X+X+X+X+X+X+X+X+X+X+X+X+X+X+X+X+X+X+X+X+XOX.X.X[.[.|.|.|..X|.[.`.|.|.|..X.X`.|..X+X+X+X+X.X+X+X.X.X.X+X+X+X+X+X+X+X+X+X+X+X+X",
"+X+X+X+X+X+X+X+X+X+X+X+X+X+X+X+X+X+X+X+X+X+X[.}..X.X#X`.~.~.^.`.$X#X.X^.^.^.$X.X|.[..X+X+X+X.X.X.X|..X.X+X+X+X+X+X+X+X+X+X+X+X+X",
"+X+X+X+X+X+X+X+X+X+X+X+X+X+X+X+X+X+X+X+X}.[..X$X'._._.K O j c *..X_.R.s $ s /.(.+XoX[.+XXX.X[.}.|.|..X[..X+X+X+X+X+X+X+X+X+X+X+X",
"+X+X+X+X+X+X+X+X+X+X+X+X+X+X+X+X+X+X+X[.}.$X[.[.A O + h l V.].].I.s & 3 5 4 s o ~.$X[..X[.{..X.X].[.[.$X[.+X+X+X+X+X+X+X+X+X+X+X",
"+X+X+X+X+X+X+X+X+X+X+X+X+X+X+X+X+X+X[.}.$X+Xl O s O O J.+XZ.o o % 4 3 3 3 3 4 s O /.+X_.$XXX.XZ.+ O G #X[..X+X.X+X+X+X+X+X+X+X+X",
"+X+X+X+X+X+X+X+X+X+X+X+X+X+X.X.X+X.X}.$X#Xj O O - & O J.V.d % 7 7 4 4 4 8 8 3 s O /.#X#X$X*.+ d O O G +X[..XOX+X+X+X+X+X+X+X+X+X",
"+X+X+X+X+X+X+X+XOX.X.XOX[.[..X[.[.[..XoXh O o # 4 5 5 9 9 7 5 7 3 7 4 q { { { 8 s g !.$X$X%.o O O J .X$X[..X.X.X+X+X+X+X+X+X+X+X",
"+X+X+X+X+X+X+X+X+X.X.X[.+X$X$X$X+X.X+XoXO O @ 4 4 3 3 4 4 4 7 7 3 7 w ` .. .q 4 3 $ k R.$X|.].].].{.$X[..XOX.XOX+X+X+X+X+X+X+X+X",
"+X+X+X+X+X+X+X+X+X.X[.OX+XY.c $.$X+X{.v o @ 4 ( ` ` u 8 4 4 4 4 p ' { ......` ` ' e s l Y.$X$X$X$X$X$X`..X.X+X+X+X+X+X+X+X+X+X+X",
"+X+X+X+X+X+X+X.X.X[.+X$XU.c G /.$X`.A o @ 3 (  ...T 8 4 8 4 I _ ' ..} ...... ...} ' i @ m U.K.A A V.$X$X]..X+X+X+X+X+X+X+X+X+X+X",
"+X+X+X+X+X+X+X.X[.+X$XI.v G /.$X_.D s - 4 /  ...Y ^ ( P 4 I ` ............ .P P P ` _ p % v v O O k V.$X$X[..X+X+X+X+X+X+X+X+X+X",
"+X+X+X+X+X+X+X[.+X$XP.b f $.$X/.F s - 4 /  ....._ ` Q E / ` ................/ 8 4 I ` P @ & O O O O l V.$X[.+X+X+X+X+X+X+X+X+X+X",
"+X+X+X+X+X+X+X[.$XP.b O G !.$XQ.s * 4 8  .........Q R ` .... ................./ ^ q P q 4 % O O O O O A $X[..XOX+X+X+X+X+X+X+X+X",
"+X+X+X+X+X+X.X[.$X$.O G Q.$X/.K $ 3 8 Q  .....E T R ` ......8.i.i.i.i.i.u....... .r 4 4 4 @ = & O O O A $X+X[..X+X+X+X+X+X+X+X+X",
"+X+X+X+X+X+X+X[.$X$.G Q.$X^.K s * 0 E ........^ R ` ....9.u.c.B.E.E.E.E.B.r.r.w.X.Q q 4 4 4 4 6 = = % l J.$X[..X+X+X+X+X+X+X+X+X",
"+X+X+X+X+X+X.X[.$XI.Q.$X/.$.s * 7 w .......... .......9.c.m.b.b.b.b.b.b.v.d.d.k.w.o.Q U U w 4 4 7 7 @ O v $XoX[.+X+X+X+X+X+X+X+X",
"+X+X+X+X+X+X.X[.+X$X$X$XG.s = 4 0 T ............} 5.0.j.b.g.;.;.;.:.>.v.v.d.f.k.k.w.o. ...^ U U p 7 @ & l Y.$X[..X+X+X+X+X+X+X+X",
"+X+X+X+X+X+X+X+X[.`.$X/.$.% 4 0 T ............6.8.p.f.<.>.C . . . . 2 4.4.v.k.d.k.k.w.o. .` ' .._ u 3 @ O l $X.X[.+X+X+X+X+X+X+X",
"+X+X+X+X+X+X+X+X+X[.+XZ.o * 4 u  .............p.v.<.>.N . . . . . . . . X 4.,.l.k.k.l.8...Q R ' .._ w 6 $ h !.$X[.+X+X+X+X+X+X+X",
"+X+X+X+X+X+X+X+X.X[.$XZ.% 6 4 u '  .......{ +.h.c.B     . . . . . . . . . X X ,.h.l.k.q.o...R I `  ._ 8 6 O h +X.X[.+X+X+X+X+X+X",
"+X+X+X+X+X+X.X.X[.$X[.*.O % 3 4 u ......@.@.h.B.B . ; . . .     . . . . . . . . g.l.k.f.0...Q 0 I { ! 6 # f h (.$X[..XXX+X+X+X+X",
"+X+X+X+X+X+X+X.X[.$XV.g O % 8 3 r ......E.B.z.n.M . .   .       . . . . . . : ; c.z.d.f.0.....Q 8 0 9 d d d O O .X.X[..X+X+X+X+X",
"+X+X+X+X+X+X.X[.[.$X$XZ.O % 4 4 L  ...O.E.l.B.M . .         ; ; ; ; ; ; ; ; { } ....y.f.0..... ..... ...} ] d O }.XX[..X+X+X+X+X",
"+X+X+X+X+X+X[.$X+X$X$XZ.O % 5 7 L  .O.N.E.l.N.M X ; . W } } { { { } } { } } ......p.f.f.0.X........... .[ [ d O + `.|..X+X+X+X+X",
"+X+X+X+X+X.X[.$X$.U.$XZ.O & 7 8 r ....X.| s.+.{ [ [ [ { ..q.d.d.f.a.k.a.a.k.f.h.s.f.k.k.k.s.w.........) m ).O O O [.[..X+X+X+X+X",
"+X+X+X+X+X[.+X$XJ P.$XZ.O a ' ' { .... .s.d.a.O.y.p.p.h.p.v.N.B.m.m.N.M.o.o.o.o.O.p.f.d.q.O.X.....( e 9 f b (.+ O '..X.X+X+X+X+X",
"+X+X+X+XOX[.$X$.g I.oXT.) [ .... .+.p.p.k.k.k.a.d.f.d.f.v.j.7.7.7.7.7.7.X...} ..} +.p.b.e...^ R ../ 4 4 - k |.+ O ].|..X.XoX+X+X",
"+X+X+X+X+X[.$XD O I.T.#.............6.6.k.k.k.8.5.5.5.5.8.+.{ ) < < < < < < < < < , ,.r.O.Q q 0 R / 4 6 s l |.d O ].{..XOXOX+X+X",
"+X+X+X+X+X[.$XG O b A.2.a L R ..........h.k.V y t t t t t t t , . . . . . . . . . . ,.8...Y 4 4 U ( 8 6 O l |.+ Y.oX}.oX+X+X+X+X",
"+X+X+X+X+X[.#XQ.A + G.Z.% 4 e Q ......X.k.k.3.2 . . . . . . . . . . . . . . . .   ~ 0.O...T 4 P E p 7 6 O l |.+ |.oX].+X+X+X+X+X",
"+X+X+X+X+X[..X+XJ O S A = 7 3 p ........k.k.N.M . . . . . . . . . . . . . . . . ; <.6.../ r 7 r p 7 4 6 l L.oXJ.+X[..X+X+X+X+X+X",
"+X+X+X+X+X+X[.$XY.A O & # 4 3 p ........w.d.v.1.2 . . . . . . . . . . . . . . . ~ :.O...I 4 4 4 4 7 4 6 v $X$X$X$X[..X+X+X+X+X+X",
"+X+X+X+X+X+X}.oX$X$.O = 4 4 q ^ ..{ Q ....r.k.v.M . . . . . . . . . . . . . . . p.| ..../ R R u 7 4 5 % v |.S.D.+X}.|..X+X+X+X+X",
"+X+X+X+X+XOXOX'.$X$.O s @ 8 P  ...{ Y ^  . .r.k.=.> . . . . . . . . . . . . . C p.+.( ' ......_ p 4 - O v [.+ O .X.X.X+X+X+X+X+X",
"+X+X+X+X+X+X+X[.$X$.O O & @ u / ^ / Q 8 ......r.a.=.V 1     . . . . . . X V V g.y.o.p R '  .' ( U 3 # O c ].+ K .X{..X.X+X.X+X+X",
"+X+X+X+X+X+XOX[.$XG.x O O % 4 4 4 4 4 8 ( (  ...r.y.a.-.N > . X . . : N V k.k.k.o._ w 9 U ) i - 6 3 # O v [.K +X#X[..X+X+X+X.X+X",
"+X+X+X+X+X+X+X[.$X$X&.O O & @ 4 4 4 4 4 4 4 ( _ { ..r.k.f.:.M M M M V l.f.k.x.x.O.w 4 4 6 % z z % 4 @ h K $X$X$X[.|.XX+X+X+X+X+X",
"+X+X+X+X+X+X+XOX`.$XS.b l O & 6 4 4 4 4 4 8 4 4 / { ..t.l.k.l.d.k.k.k.k.k.x.B.n.| e q 8 % O S.F.% 7 * A $X$X[.[..X|.oX+X+X+X.X+X",
"+X+X+X+X+X+X+X+X[.$X$X$XL.j O $ 5 4 5 8 4 q q q 8 / ..j.v.k.k.k.k.k.k.z.x.B.M.| q 0 ( i & j Z.C.% * O A $X[..XOX+X+X+X+X+X+X+X+X",
"+X+X+X+X+X+X+X+X.X[.[..X+XP.f O $ 6 5 7 4 `  . .I _ ..i.v.l.l.z.l.k.x.E.N.N.[ 8 4 ' L % O G.C.O O O + D $X[..X.X+X+X+X+X+X+X+X+X",
"+X+X+X+X+X+X+X+XoX+X.X[.+X$XY.+ d O s 7 7 8 ` ........} i.W.B.E.E.E.E.M.} [ 8 8 ' { L & O J.Z.O O O F +X$X[.+X+X+X+X+X+X+X+X+X+X",
"+X+X+X+X+X+X+X+X+X.X.XOX[.+X+X.X~.O O s 5 7 8 8 _ } ....o.u.E.E.E.E.n.X.{ 8 8 '  .u 7 & O J.C.O O O G $X[..X+X+X+X+X+X+X+X+X+X+X",
"+X+X+X+X+X+X+X+X+X+X+X+X.X[.[.OX$X{._.O $ 6 4 4 0 0 0 ^  .X.o.) i i i 0 8 4 3 { u 7 % O O H.C.O O J .X$X[..X.XXX+X+X+X+X+X+X+X+X",
"+X+X+X+X+X+X+X+X+X+X+X+X+X+X|..X$X$X$X_._.d s 9 4 7 4 0 q q e 0 3 7 7 7 4 4 3 q 4 & O O F.*.h O K ].$X]..X+X.X.X+X+X+X+X+X+X+X+X",
"+X+X+X+X+X+X+X+X+X+X+X+XOXOX|.|.(.H $X$X$X/.~.x 6 % $ - 4 7 4 @ $ $ % 7 4 4 3 7 % s O F.%.k O $._.$X[.|.+X+X+X+X+X+X+X+X+X+X+X+X",
"+X+X+X+X+X+X+X+X+X+X+X+X+XoX|.[.|.Y.D G $X$X$X~.m s O * 4 3 - s O b L.% 4 7 3 & O O G.].(.!.!._.$X[.|..X+X+X+X+X+X+X+X+X+X+X+X+X",
"+X+X+X+X+X+X+X+X+X+X+X+X.X+XoX[.+X.XP.+ J J J J L.b O * 4 3 * O Z !..XL.& & % O O G.[.$X+X$X$X+X[.|.+X+X+X+X+X+X+X+X+X+X+X+X+X+X",
"+X+X+X+X+X+X+X+X+X+X+X+X+X+X+X.X[.+XoXL.+ O O O H n - 6 - % $ S R.$X`.K O O O J.I.{.+X[.[.[.[.}..XOX+X+X+X+X+X+X+X+X+X+X+X+X+X+X",
"+X+X+X+X+X+X+X+X+X+X+X+X+X+X.X+X+X[.+X$XH.G.h O O & % % $ O D R.$X$X/.j H.H.H.XX$X+X]..X+X+X+X+XOX+X+X+X+X+X+X+X+X+X+X+X+X+X+X+X",
"+X+X+X+X+X+X+X+X+X+X+X+X+XOX+X.X+XoX].+X$X+XG.Z.Z.c O o O S R.$X|.XX].G.$X$X$X+X[.[..X+X+X+X+X+XOXoX+X+X+X+X+X+X+X+X+X+X+X+X+X+X",
"+X+X+X+X+X+X+X+X+X+X+X+X+X+X+X+X+X+X.X[.].+X$X$X$XK.&.&.%.R.$X|.[.[.+X$X+X].[.[..X+X+X+X+X+X+X+X+X+X+X+X+X+X+X+X+X+X+X+X+X+X+X+X",
"+X+X+X+X+X+X+X+X+X+X+X+X+X+X+X+X+X+X+X+XOX[.[.`.+X$X$X$X$X$X|.[..X|.[.[.[.+X+X+X+X+X+X+X+X+X+X+X+X+X+X+X+X+X+X+X+X+X+X+X+X+X+X+X",
"+X+X+X+X+X+X+X+X+X+X+X+X+X+X+X+X+X+X+X+X+X+X+X+X{.[.[.[.[.[..X.XoX+X+X+X+XOX+XOX+X+X+X+X+X+X+X+X+X+X+X+X+X+X+X+X+X+X+X+X+X+X+X+X",
"+X+X+X+X+X+X+X+X+X+X+X+X+X+X+X+X+X+X+X+X+X+X+X+X+X+X+X+X.X.X+X+X+X+X+X+X+X+XoX+X+X+X+X+X+X+X+X+X+X+X+X+X+X+X+X+X+X+X+X+X+X+X+X+X",
"+X+X+X+X+X+X+X+X+X+X+X+X+X+X+X+X+X+X+X+X+X+X+X+X+X+X+X+X+X+X+X+X+X+X+X+X+X+X+X+X+X+X+X+X+X+X+X+X+X+X+X+X+X+X+X+X+X+X+X+X+X+X+X+X",
"+X+X+X+X+X+X+X+X+X+X+X+X+X+X+X+X+X+X+X+X+X+X+X+X+X+X+X+X+X+X+X+X+X+X+X+X+X+X+X+X+X+X+X+X+X+X+X+X+X+X+X+X+X+X+X+X+X+X+X+X+X+X+X+X",
"+X+X+X+X+X+X+X+X+X+X+X+X+X+X+X+X+X+X+X+X+X+X+X+X+X+X+X+X+X+X+X+X+X+X+X+X+X+X+X+X+X+X+X+X+X+X+X+X+X+X+X+X+X+X+X+X+X+X+X+X+X+X+X+X",
"+X+X+X+X+X+X+X+X+X+X+X+X+X+X+X+X+X+X+X+X+X+X+X+X+X+X+X+X+X+X+X+X+X+X+X+X+X+X+X+X+X+X+X+X+X+X+X+X+X+X+X+X+X+X+X+X+X+X+X+X+X+X+X+X"
};
